<svg width="40" height="40" viewBox="0 0 40 40" fill="none" xmlns="http://www.w3.org/2000/svg">
<rect width="40" height="40" rx="5" fill="#F2F2F2"/>
<path d="M3.64078 27.6791L15.7923 11.9747L10.0818 10.6185C9.34718 10.4441 8.42459 10.0227 8.52619 9.27257C8.5751 9.0585 8.68934 8.86492 8.85335 8.71898C9.01732 8.57284 9.2228 8.48163 9.44115 8.45776C9.87959 8.41674 10.3216 8.4694 10.7385 8.61196L15.127 9.78284C16.2405 10.0798 17.4203 10.3776 18.5308 10.0739C23.62 8.68836 28.9052 11.4751 34.1933 11.2755C34.0435 12.2597 32.8553 12.6619 31.8847 12.8651L29.7359 13.3126C31.5782 13.8707 32.7235 14.1235 34.4907 14.6742C35.2038 15.1783 35.8902 15.7193 36.547 16.2948C35.6659 16.3976 35.0056 16.4181 33.8057 16.5294C32.3554 16.2454 30.924 15.8723 29.5195 15.4123L31.9163 17.2316C31.5321 17.7307 30.7864 17.7296 30.1674 17.6186C28.9292 17.398 27.744 16.9452 26.6739 16.2841C26.9528 15.5912 27.6843 15.2861 28.1707 14.7432C29.0648 14.9387 30.1956 15.1978 30.9906 15.4329C31.9632 15.7755 32.9686 16.0166 33.991 16.152C34.1943 16.0579 34.3557 15.892 34.4444 15.6861C34.533 15.4802 34.5424 15.2489 34.471 15.0365C32.3641 14.2906 31.4038 14.1211 29.1796 13.5192C29.3983 13.2694 29.5247 12.9524 29.538 12.6207C29.5514 12.2891 29.4508 11.9628 29.253 11.6962C28.7694 11.2477 28.0842 11.089 27.4527 11.2796C26.8355 11.4781 26.273 11.8172 25.8091 12.2703C25.4948 12.4615 25.1085 12.4919 24.7682 12.352L10.5515 8.90367C10.19 8.78218 9.80188 8.76355 9.43053 8.85005C9.05692 8.95314 8.83428 9.33566 8.92907 9.71145C9.05414 10.0035 9.38377 10.1106 9.71148 10.1827C14.4393 11.3028 19.7297 12.5977 24.4574 13.7177C24.0023 14.0915 22.9553 14.3032 22.3762 14.416C21.7971 14.5287 21.0985 14.2625 20.9294 13.6966L21.7425 13.4135C20.9145 13.2665 20.0685 13.2456 19.2344 13.3524C19.5906 13.5292 19.9957 13.6203 20.3304 13.8083C20.5076 13.8989 20.6497 14.0454 20.7346 14.2254C20.8192 14.4053 20.842 14.6082 20.7989 14.8024C20.6545 15.2395 20.103 15.3283 19.6197 15.4062C18.5097 15.6219 17.521 16.2463 16.849 17.1559C16.6441 17.4347 16.5367 17.9322 16.8625 18.0397C17.1652 17.0347 18.1002 16.3454 19.075 15.9503C20.0497 15.5553 21.0959 15.3868 22.0737 15.0106C23.9752 14.2867 25.4937 12.8323 27.2758 11.8544C27.6991 11.6223 28.2158 11.4143 28.6455 11.6338C28.8245 11.7484 28.9645 11.9148 29.047 12.1106C29.1294 12.3064 29.1503 12.5228 29.107 12.7308C29.0016 13.1515 28.7824 13.5351 28.4737 13.8397C27.5532 14.8622 26.3423 15.5842 25.4447 16.6265C24.2626 17.9878 23.7122 19.8056 22.5761 21.2103C21.0949 23.0413 18.7894 23.9942 17.0706 25.6098C15.5946 26.9873 14.5969 28.7912 13.3765 30.4007C12.6267 31.3918 11.7834 32.3122 10.944 33.2321V33.2321C9.91631 34.3577 8.32883 34.9019 6.98139 34.1894C4.48333 32.8685 2.08006 29.9838 3.64078 27.6791ZM28.8052 12.8415C28.9641 12.7379 28.7439 12.461 28.5688 12.5126C28.3937 12.5642 28.2597 12.7262 28.1064 12.8407C27.9187 12.9658 27.6876 13.0079 27.4681 12.9568C27.2485 12.9057 27.0597 12.7661 26.9465 12.5709C26.8839 12.4483 26.6667 12.5535 26.6697 12.6935C26.6972 12.831 26.7833 12.9498 26.9055 13.0186C27.1194 13.2198 27.3914 13.3481 27.6827 13.3852C27.9507 13.3597 28.2055 13.2562 28.4154 13.0877L28.8052 12.8415ZM24.974 18.4039C25.0231 18.534 25.1135 18.6443 25.2313 18.7178L26.1283 19.4398C26.4598 19.7643 26.8897 19.9696 27.3504 20.0236C27.5259 20.0227 27.7483 19.9244 27.7391 19.7464C27.7292 19.6835 27.7062 19.6234 27.6717 19.57C27.1125 18.6192 26.5572 17.6756 26.0057 16.7389L25.1344 17.9215C25.017 18.0534 24.959 18.2278 24.974 18.4039ZM28.5129 15.0744L29.3228 15.2561Z" fill="#060305"/>
</svg>
