<svg width="172" height="175" viewBox="0 0 172 175" fill="none" xmlns="http://www.w3.org/2000/svg">
<path d="M172 87.0876C172 38.9911 133.496 5.41397e-07 86.0013 5.41397e-07C38.5049 5.41397e-07 0 38.9911 0 87.0876C0 135.185 38.5049 174.178 86.0013 174.178C133.496 174.178 172 135.185 172 87.0876Z" fill="#5ABE46"/>
<path d="M169.506 147.837C161.93 130.533 145.627 117.386 127.33 114.584C130.598 108.898 129.023 101.228 124.84 96.2131C120.657 91.1959 114.087 88.6784 107.898 86.8641C88.9564 81.3113 68.3419 81.9293 49.7488 88.6056C45.5369 90.1191 41.3709 91.9678 37.8895 94.83C34.4081 97.6923 31.6419 101.679 30.9443 106.199C30.2468 110.718 31.9109 115.732 35.6179 118.28C21.6188 123.315 10.6113 136.55 8.49298 151.604C32.5016 167.72 61.3398 175.344 90.0344 174.988C118.728 174.631 145.885 164.543 169.506 147.837" fill="white"/>
<path d="M35.3379 118.76C42.3531 115.187 51.0502 115.326 57.9545 119.118C67.378 124.297 76.7642 130.031 86.0762 135.526C88.1793 136.767 90.8199 136.47 92.6284 134.811C99.4083 128.595 106.219 122.436 112.987 116.197C116.98 112.519 123.338 113.492 128.529 114.896" stroke="#060305" stroke-width="1.33333" stroke-miterlimit="10" stroke-linecap="round" stroke-linejoin="round"/>
<path d="M87.9083 133.642C87.9083 139.568 87.9083 145.492 87.9083 151.417" stroke="#060305" stroke-width="1.33333" stroke-miterlimit="10" stroke-linecap="round" stroke-linejoin="round"/>
<path d="M91.6755 132.856C92.5253 139.912 93.3747 146.967 94.224 154.02" stroke="#060305" stroke-width="1.33333" stroke-miterlimit="10" stroke-linecap="round" stroke-linejoin="round"/>
<path d="M39.2186 117.484C42.1773 131.526 42.3014 146.19 39.5823 160.284" stroke="#060305" stroke-width="1.33333" stroke-miterlimit="10" stroke-linecap="round" stroke-linejoin="round"/>
<path d="M125.625 114.579C125.125 130.254 127.946 146.031 133.837 160.505" stroke="#060305" stroke-width="1.33333" stroke-miterlimit="10" stroke-linecap="round" stroke-linejoin="round"/>
<path d="M63.7248 109.998C58.8233 105.632 52.9126 102.464 46.6185 100.829" stroke="#060305" stroke-width="1.33333" stroke-miterlimit="10" stroke-linecap="round" stroke-linejoin="round"/>
<path d="M103.486 111.949C105.998 107.313 111.524 104.738 113.271 103.781" stroke="#060305" stroke-width="1.33333" stroke-miterlimit="10" stroke-linecap="round" stroke-linejoin="round"/>
<path d="M64.6946 35.9534C64.6946 35.9534 51.2407 47.5685 57.7714 68.1701C66.1762 90.5077 90.9928 53.6557 64.6946 35.9534Z" fill="#772227"/>
<path d="M126.193 71.8935C125.63 75.2584 123.822 78.3212 121.491 80.7659C120.647 81.6449 119.722 82.4278 118.771 83.1694C118.302 90.9156 116.186 97.3983 110.827 101.931C109.046 103.428 106.916 104.719 104.37 105.776C104.47 107.544 104.291 109.288 104.247 111.039C104.219 112.158 103.924 113.274 103.226 114.15C98.3769 120.231 91.4102 123.939 83.6999 123.466C78.8223 123.164 74.0131 121.337 70.0612 118.357C67.3029 116.297 64.9585 113.66 63.296 110.597C63.4314 107.095 63.6189 103.661 63.8051 100.228C64.0074 96.3956 64.2217 92.5761 64.3678 88.6495C58.8887 89.0066 53.1953 86.7679 49.6854 82.4415C46.1903 78.1001 45.1454 71.6737 47.5018 66.5906C49.8596 61.5117 55.7017 58.2401 61.087 59.3801C61.9564 60.9197 62.7213 62.5129 63.5908 64.0511C66.6049 60.0819 68.8032 55.1787 68.9104 50.1519C69.031 45.1252 67.5306 40.0709 64.6892 35.9506C70.3961 29.8663 78.5946 26.5837 86.781 26.5837C86.781 26.5837 86.781 26.5837 86.7931 26.5837C90.6793 26.5837 94.563 27.3254 98.1799 28.8499C104.317 31.4457 108.925 36.2939 112.085 42.1723C114.726 47.048 116.36 52.6365 117.07 58.2402C117.109 58.6673 117.162 59.0793 117.216 59.5037C119.602 59.4515 122.053 60.5077 123.688 62.3206C125.952 64.834 126.755 68.5148 126.193 71.8935Z" fill="#772227"/>
<path d="M86.4059 87.2266C86.6417 88.3887 87.5151 89.3887 88.6163 89.7579C89.7148 90.1248 90.9968 89.8474 91.8568 89.0523" stroke="#060305" stroke-width="1.33333" stroke-miterlimit="10" stroke-linecap="round" stroke-linejoin="round"/>
<path d="M118.065 75.3779C118.281 77.8556 118.497 80.3319 118.712 82.8082" stroke="#060305" stroke-width="1.33333" stroke-miterlimit="10" stroke-linecap="round" stroke-linejoin="round"/>
<path d="M118.393 71.5941C119.931 69.7771 121.469 67.9586 123.007 66.1388" stroke="#060305" stroke-width="1.33333" stroke-miterlimit="10" stroke-linecap="round" stroke-linejoin="round"/>
<path d="M51.9534 66.6443C55.1444 68.872 58.3368 71.0983 61.5291 73.3246" stroke="#060305" stroke-width="1.33333" stroke-miterlimit="10" stroke-linecap="round" stroke-linejoin="round"/>
<path d="M63.1392 85.8724C63.4031 87.1662 63.6644 88.4599 63.9269 89.7523" stroke="#060305" stroke-width="1.33333" stroke-miterlimit="10" stroke-linecap="round" stroke-linejoin="round"/>
<path d="M85.0944 107.007C91.5996 108.599 98.5804 108.078 104.794 105.54" stroke="#060305" stroke-width="1.33333" stroke-miterlimit="10" stroke-linecap="round" stroke-linejoin="round"/>
<path d="M81.9624 69.9625C81.9624 68.8252 81.0621 67.9023 79.9529 67.9023C78.8424 67.9023 77.9435 68.8252 77.9435 69.9625C77.9435 71.0997 78.8424 72.0226 79.9529 72.0226C81.0621 72.0226 81.9624 71.0997 81.9624 69.9625Z" fill="#060305"/>
<path d="M109.557 69.9625C109.557 68.8252 108.657 67.9023 107.548 67.9023C106.439 67.9023 105.538 68.8252 105.538 69.9625C105.538 71.0997 106.439 72.0226 107.548 72.0226C108.657 72.0226 109.557 71.0997 109.557 69.9625Z" fill="#060305"/>
<path d="M92.2975 80.5297C93.9265 80.4226 95.5555 80.3168 97.1831 80.2097C96.7062 75.5235 96.1114 70.5201 95.6332 65.8353" stroke="#060305" stroke-width="1.33333" stroke-miterlimit="10" stroke-linecap="round" stroke-linejoin="round"/>
<path d="M74.8503 64.5445C76.4605 63.1051 78.6428 62.3593 80.7714 62.5282C82.9014 62.6958 84.9497 63.7712 86.3242 65.4468" stroke="#060305" stroke-width="1.33333" stroke-miterlimit="10" stroke-linecap="round" stroke-linejoin="round"/>
<path d="M102.09 65.475C103.485 63.7678 105.575 62.6772 107.739 62.5234C109.906 62.371 112.121 63.1552 113.733 64.6482" stroke="#060305" stroke-width="1.33333" stroke-miterlimit="10" stroke-linecap="round" stroke-linejoin="round"/>
</svg>
