<svg width="172" height="175" viewBox="0 0 172 175" fill="none" xmlns="http://www.w3.org/2000/svg">
<path d="M172 84.6826C172 37.913 133.496 -8.39209e-07 86.0005 -8.39209e-07C38.5036 -8.39209e-07 0 37.913 0 84.6826C0 131.452 38.5036 169.365 86.0005 169.365C133.496 169.365 172 131.452 172 84.6826Z" fill="#FFC9C8"/>
<path d="M169.507 148.911C161.931 132.291 145.628 119.664 127.331 116.973C130.599 111.512 129.024 104.145 124.841 99.3288C120.658 94.5101 114.088 92.0921 107.898 90.3495C88.9571 85.0163 68.3424 85.6099 49.7492 92.0222C45.5372 93.4759 41.3712 95.2514 37.8898 98.0005C34.4083 100.75 31.6421 104.579 30.9445 108.92C30.247 113.26 31.9111 118.076 35.6181 120.523C21.6189 125.359 10.6114 138.07 8.49304 152.529C32.5019 168.008 61.3402 175.33 90.0351 174.989C118.729 174.646 145.886 164.957 169.507 148.911" fill="#B478FF"/>
<path d="M35.3381 120.984C42.3534 117.553 51.0506 117.686 57.955 121.328C67.3785 126.302 76.7648 131.81 86.0769 137.087C88.18 138.279 90.8205 137.994 92.629 136.4C99.4091 130.43 106.22 124.515 112.988 118.522C116.981 114.989 123.339 115.925 128.53 117.273" stroke="#060305" stroke-width="1.33333" stroke-miterlimit="10" stroke-linecap="round" stroke-linejoin="round"/>
<path d="M87.909 135.278C87.909 140.97 87.909 146.659 87.909 152.35" stroke="#060305" stroke-width="1.33333" stroke-miterlimit="10" stroke-linecap="round" stroke-linejoin="round"/>
<path d="M91.6762 134.523C92.5261 141.299 93.3754 148.076 94.2247 154.85" stroke="#060305" stroke-width="1.33333" stroke-miterlimit="10" stroke-linecap="round" stroke-linejoin="round"/>
<path d="M39.2189 119.758C42.1776 133.245 42.3016 147.329 39.5826 160.866" stroke="#060305" stroke-width="1.33333" stroke-miterlimit="10" stroke-linecap="round" stroke-linejoin="round"/>
<path d="M125.626 116.968C125.126 132.023 127.947 147.176 133.838 161.078" stroke="#060305" stroke-width="1.33333" stroke-miterlimit="10" stroke-linecap="round" stroke-linejoin="round"/>
<path d="M63.7253 112.569C58.8237 108.375 52.913 105.332 46.6188 103.762" stroke="#060305" stroke-width="1.33333" stroke-miterlimit="10" stroke-linecap="round" stroke-linejoin="round"/>
<path d="M104.981 112.395C107.744 110.462 110.508 108.53 113.272 106.597" stroke="#060305" stroke-width="1.33333" stroke-miterlimit="10" stroke-linecap="round" stroke-linejoin="round"/>
<path d="M117.34 63.0806C121.151 63.3088 124.527 66.1396 125.86 69.663C127.193 73.1864 126.652 77.2335 124.921 80.584C123.189 83.9346 120.36 86.6401 117.205 88.76L117.34 63.0806Z" fill="#C14F4F"/>
<path d="M118.322 73.8182C120.009 72.4806 121.697 71.1431 123.385 69.8068" stroke="#060305" stroke-width="1.33333" stroke-miterlimit="10" stroke-linecap="round" stroke-linejoin="round"/>
<path d="M104.97 112.545C105.061 106.336 105.231 100.92 105.322 94.7119C91.6899 94.4837 78.2375 94.3781 64.604 94.1499C64.2236 100.358 63.8431 106.567 63.4626 112.775C72.0651 119.568 80.6446 126.702 89.2476 133.495C94.3145 126.586 99.9034 119.455 104.97 112.545" fill="#C14F4F"/>
<path d="M123.303 45.2157C122.555 42.278 119.158 40.2755 116.175 41.0143C118.388 38.9723 118.165 34.9542 115.741 33.1575C113.316 31.3622 108.273 31.6366 106.892 34.2973C102.86 29.2266 96.4485 26.3825 89.9703 25.5C81.4458 24.3392 72.5518 26.4722 65.3883 31.1432C63.8918 27.2914 60.4783 24.1255 56.3929 23.09C50.9067 21.6996 44.6884 24.1545 41.5523 28.8018C38.4168 33.4477 38.4789 39.9286 41.557 44.6128C43.6947 47.8645 47.175 50.1571 50.9921 51.0898C49.507 56.5892 49.3332 62.4329 50.6503 67.9759C52.3274 75.0319 55.6128 83.2421 58.1984 90.0277C59.7332 94.0536 61.3067 98.1509 63.9959 101.541C66.6846 104.931 71.2959 107.34 75.6639 107.319C78.6765 110.944 83.1983 113.314 87.934 113.751C92.6704 114.189 97.4304 112.149 101.074 109.139C106.504 108.84 111.754 106.168 115.147 101.983C118.539 97.7973 118.609 92.5235 118.586 87.1691C118.538 75.607 119.079 63.7929 119.031 52.2308C122.015 51.4987 124.052 48.1547 123.303 45.2157Z" fill="#772227"/>
<path d="M43.3629 23.7865C47.2881 21.4398 52.3159 20.9701 56.6186 22.5518C60.9216 24.1334 64.4078 27.7307 65.8102 32.0376" stroke="#772227" stroke-width="1.33333" stroke-miterlimit="10" stroke-linecap="round" stroke-linejoin="round"/>
<path d="M105.995 35.2193C106.63 33.3607 107.995 31.754 109.739 30.8082C111.486 29.8624 113.595 29.5893 115.529 30.0563" stroke="#772227" stroke-width="1.33333" stroke-miterlimit="10" stroke-linecap="round" stroke-linejoin="round"/>
<path d="M115.218 67.3454C114.307 73.9463 114.102 80.1514 113.193 86.7523C99.2604 81.9032 83.8969 82.109 69.8747 86.7009C68.1938 80.8888 66.513 75.0768 64.8316 69.2647C68.0572 63.8246 69.0965 56.7765 67.7815 50.6122C71.2284 51.4881 74.9851 50.4183 77.8648 48.3578C80.745 46.296 82.62 42.9323 82.8382 39.4313C85.9231 38.8562 89.2261 38.6808 92.3622 38.8179C95.4987 38.9551 98.7031 39.8785 101.019 41.9654C102.812 43.5813 103.984 45.7987 105.87 47.3078C107.756 48.8169 110.937 49.2957 112.383 47.3725L115.218 67.3454" fill="#C14F4F"/>
<path d="M82.3904 39.2229C87.5815 37.9037 93.345 38.9657 97.6998 42.0445C100.908 44.3121 103.278 47.5202 105.592 50.6729" stroke="#772227" stroke-width="1.33333" stroke-miterlimit="10" stroke-linecap="round" stroke-linejoin="round"/>
<path d="M60.7421 64.3931C55.2082 62.8563 48.8287 65.6371 46.0495 70.5917C43.2697 75.549 44.183 82.1829 48.0218 86.4001C51.8591 90.6147 58.2821 92.2491 63.7923 90.6332L60.7421 64.3931" fill="#C14F4F"/>
<path d="M50.5823 69.5786C53.3154 70.8172 56.0481 72.0572 58.7813 73.2959" stroke="#060305" stroke-width="1.33333" stroke-miterlimit="10" stroke-linecap="round" stroke-linejoin="round"/>
<path d="M81.5655 71.8053C81.5655 70.713 80.6656 69.8266 79.5561 69.8266C78.4457 69.8266 77.5466 70.713 77.5466 71.8053C77.5466 72.8975 78.4457 73.784 79.5561 73.784C80.6656 73.784 81.5655 72.8975 81.5655 71.8053Z" fill="#060305"/>
<path d="M107.255 71.8053C107.255 70.713 106.355 69.8266 105.246 69.8266C104.135 69.8266 103.236 70.713 103.236 71.8053C103.236 72.8975 104.135 73.784 105.246 73.784C106.355 73.784 107.255 72.8975 107.255 71.8053Z" fill="#060305"/>
<path d="M94.9949 87.9553C90.9602 88.115 86.901 87.6598 83.0051 86.6151C84.0569 88.9803 85.935 90.7387 88.5458 90.9827C91.156 91.2268 93.5097 90.0844 94.9949 87.9553" fill="white"/>
<path d="M72.7904 64.2876C73.847 62.1071 76.0972 60.5307 78.5368 60.2643C80.9764 59.9991 83.5222 61.0518 85.0376 62.9527" stroke="#060305" stroke-width="1.33333" stroke-miterlimit="10" stroke-linecap="round" stroke-linejoin="round"/>
<path d="M99.7882 62.2838C100.958 60.3038 103.239 59.0111 105.565 59.0097C107.89 59.0084 110.173 60.2985 111.345 62.2759" stroke="#060305" stroke-width="1.33333" stroke-miterlimit="10" stroke-linecap="round" stroke-linejoin="round"/>
<path d="M93.6448 70.1208C94.5449 73.8051 95.4451 77.4881 96.344 81.1724C94.8208 81.1328 93.0582 81.1289 91.5349 81.088" stroke="#060305" stroke-width="1.33333" stroke-miterlimit="10" stroke-linecap="round" stroke-linejoin="round"/>
</svg>
