<svg width="172" height="175" viewBox="0 0 172 175" fill="none" xmlns="http://www.w3.org/2000/svg">
<path d="M172 83.1513C172 37.2287 133.496 4.451e-06 86.0013 4.451e-06C38.5049 4.451e-06 0 37.2287 0 83.1513C0 129.075 38.5049 166.305 86.0013 166.305C133.496 166.305 172 129.075 172 83.1513Z" fill="#FFC9C8"/>
<path d="M167.282 139.607C161.907 130.622 155.805 121.693 147.028 115.714C134.733 107.337 119.141 105.707 104.152 104.487C100.041 110.296 92.173 112.838 84.9176 112.244C77.6621 111.651 70.3478 107.58 64.2364 103.754C40.6804 103.523 17.7259 118.38 8.96878 139.524C30.1067 157.088 62.6811 176.613 90.4958 174.894C118.312 173.177 142.11 151.182 167.282 139.607Z" fill="#B478FF"/>
<path d="M57.9937 103.952C62.0501 113.739 72.4631 120.736 83.3636 120.999C94.2655 121.263 105.027 114.777 109.583 105.199" stroke="#060305" stroke-width="1.33333" stroke-miterlimit="10" stroke-linecap="round" stroke-linejoin="round"/>
<path d="M79.05 120.668C81.0139 123.013 82.9791 125.359 84.943 127.705C86.6953 125.293 88.4488 122.884 90.2024 120.475" stroke="#060305" stroke-width="1.33333" stroke-miterlimit="10" stroke-linecap="round" stroke-linejoin="round"/>
<path d="M64.6946 34.2185C64.6946 34.2185 47.4617 43.8022 55.8692 64.8685C64.274 85.9348 90.9928 50.9133 64.6946 34.2185Z" fill="#772227"/>
<path d="M126.193 68.1132C125.63 71.2866 123.822 74.175 121.491 76.4806C120.647 77.3096 119.722 78.0479 118.771 78.7473C118.302 86.0527 116.186 92.1664 110.827 96.4408C109.046 97.8526 106.916 99.0702 104.37 100.068C104.503 102.282 104.143 104.458 104.263 106.66C99.4003 113.163 91.9788 117.23 83.6999 116.751C78.8223 116.466 74.013 114.743 70.0611 111.932C67.3028 109.989 64.9585 107.502 63.296 104.614C63.4313 101.311 63.6189 98.0728 63.8051 94.8346C64.0074 91.2208 64.2217 87.6187 64.3677 83.9155C58.8886 84.2523 53.1952 82.141 49.6854 78.0609C46.1903 73.9665 45.1454 67.9059 47.5018 63.1121C49.8595 58.3222 55.7017 55.2369 61.087 56.3119C61.9564 57.7639 62.7213 59.2664 63.5907 60.7171C66.6049 56.9738 68.8032 52.3497 68.9104 47.609C69.0309 42.8683 67.5306 38.1017 64.6892 34.2159C70.396 28.4779 78.5946 25.3821 86.781 25.3821C86.781 25.3821 86.781 25.3821 86.7931 25.3821C90.6793 25.3821 94.5629 26.0816 98.1799 27.5193C104.317 29.9674 108.925 34.5397 112.085 40.0835C114.726 44.6817 116.36 49.9522 117.07 55.2369C117.109 55.6397 117.162 56.0283 117.216 56.4285C119.602 56.3793 122.053 57.3754 123.688 59.0851C125.952 61.4555 126.755 64.9268 126.193 68.1132" fill="#C14F4F"/>
<path d="M112.085 40.0835C111.697 40.7182 111.201 41.3127 110.613 41.8192C107.692 44.3981 102.589 44.4615 99.9495 41.6119C98.8778 40.4449 98.1008 38.8258 96.5602 38.3867C94.4021 37.7909 92.5414 39.8504 90.4904 40.7441C87.4508 42.0783 83.539 40.4721 81.9971 37.6095C80.4432 34.747 81.0996 31.0542 83.1506 28.5038C84.1553 27.2603 85.3878 26.2241 86.781 25.3822C86.781 25.3822 86.781 25.3822 86.793 25.3822C90.6793 25.3822 94.5629 26.0816 98.1799 27.5194C104.317 29.9674 108.925 34.5398 112.085 40.0835" fill="#DC6E5A"/>
<path d="M118.771 75.7552V78.7473C118.302 86.0527 116.186 92.1664 110.827 96.4408C103.378 94.8994 105.159 87.0889 108.857 87.0889C113.359 87.0889 114.283 82.672 110.546 81.6747C106.794 80.6903 109.206 70.898 118.771 75.7552" fill="#DC6E5A"/>
<path d="M70.2366 106.609C70.7591 107.153 70.9734 107.904 71.0123 108.642C71.0806 109.821 70.7176 110.948 70.0611 111.932C67.3028 109.989 64.9585 107.502 63.296 104.614C63.4313 101.311 63.6189 98.0728 63.8051 94.8347C65.0523 94.5886 66.3772 94.6909 67.5426 95.1844C69.7008 96.0781 71.2413 98.2153 71.3619 100.468C71.4959 102.735 70.2098 105.016 68.1589 106.129C68.8434 105.819 69.7128 106.078 70.2366 106.609" fill="#DC6E5A"/>
<path d="M118.065 71.3993C118.281 73.736 118.497 76.0714 118.712 78.4067" stroke="#060305" stroke-width="1.33333" stroke-miterlimit="10" stroke-linecap="round" stroke-linejoin="round"/>
<path d="M118.393 67.8308C119.931 66.1172 121.469 64.4022 123.007 62.686" stroke="#060305" stroke-width="1.33333" stroke-miterlimit="10" stroke-linecap="round" stroke-linejoin="round"/>
<path d="M51.9534 63.1627C55.1444 65.2637 58.3367 67.3633 61.5291 69.4629" stroke="#060305" stroke-width="1.33333" stroke-miterlimit="10" stroke-linecap="round" stroke-linejoin="round"/>
<path d="M63.1392 81.2965C63.4031 82.5166 63.6643 83.7368 63.9269 84.9556" stroke="#060305" stroke-width="1.33333" stroke-miterlimit="10" stroke-linecap="round" stroke-linejoin="round"/>
<path d="M85.0944 101.228C91.5996 102.729 98.5804 102.238 104.794 99.8448" stroke="#060305" stroke-width="1.33333" stroke-miterlimit="10" stroke-linecap="round" stroke-linejoin="round"/>
<path d="M88.0429 71.7231C82.2115 71.6907 76.2167 71.2723 70.3839 71.2412C69.4984 68.1559 69.2292 64.8789 68.3423 61.7923C75.8014 61.7923 83.2631 61.7923 90.7222 61.7923C90.0282 64.9994 88.7382 68.5134 88.0429 71.7231Z" stroke="#060305" stroke-width="1.33333" stroke-miterlimit="10" stroke-linecap="round" stroke-linejoin="round"/>
<path d="M117.828 71.0301C112.525 71.1014 107.171 71.3643 101.865 71.4369C101.122 68.1754 100.449 64.9605 99.7044 61.699C106.273 61.6342 112.838 61.5682 119.405 61.5034C119.029 64.3984 118.206 68.1365 117.828 71.0301Z" stroke="#060305" stroke-width="1.33333" stroke-miterlimit="10" stroke-linecap="round" stroke-linejoin="round"/>
<path d="M90.6163 61.5008C91.1977 59.5022 93.2728 58.0101 95.4202 58.045C97.5663 58.0813 99.5891 59.6421 100.099 61.6576" stroke="#060305" stroke-width="1.33333" stroke-miterlimit="10" stroke-linecap="round" stroke-linejoin="round"/>
<path d="M81.9624 66.292C81.9624 65.2195 81.0621 64.3491 79.9529 64.3491C78.8424 64.3491 77.9435 65.2195 77.9435 66.292C77.9435 67.3645 78.8424 68.2349 79.9529 68.2349C81.0621 68.2349 81.9624 67.3645 81.9624 66.292Z" fill="#060305"/>
<path d="M109.557 66.292C109.557 65.2195 108.657 64.3491 107.548 64.3491C106.439 64.3491 105.538 65.2195 105.538 66.292C105.538 67.3645 106.439 68.2349 107.548 68.2349C108.657 68.2349 109.557 67.3645 109.557 66.292Z" fill="#060305"/>
<path d="M92.9245 79.7965C90.1113 80.724 86.8506 80.2667 84.4272 78.6036C84.1004 80.1748 84.3804 81.8586 85.6731 82.8624C86.9658 83.8676 88.8494 84.1072 90.3658 83.457C91.8823 82.8094 92.8227 81.3988 92.9245 79.7965" fill="white"/>
<path d="M92.2975 76.2579C93.9265 76.1569 95.5555 76.0571 97.1831 75.9561C96.7062 71.5366 96.1114 66.8179 95.6332 62.3998" stroke="#060305" stroke-width="1.33333" stroke-miterlimit="10" stroke-linecap="round" stroke-linejoin="round"/>
<path d="M74.8503 57.8818C76.4605 56.5244 78.6428 55.821 80.7714 55.9804C82.9014 56.1384 84.9497 57.1526 86.3242 58.7328" stroke="#060305" stroke-width="1.33333" stroke-miterlimit="10" stroke-linecap="round" stroke-linejoin="round"/>
<path d="M102.09 59.067C103.485 57.457 105.575 56.4285 107.739 56.2834C109.906 56.1397 112.121 56.8793 113.733 58.2873" stroke="#060305" stroke-width="1.33333" stroke-miterlimit="10" stroke-linecap="round" stroke-linejoin="round"/>
<path d="M62.2069 163.909C59.474 143.91 54.007 103.911 54.007 103.911L39.3716 107.556C39.3716 107.556 45.9626 147.28 49.3853 167.3L62.2069 163.909Z" fill="#060305"/>
<path d="M57.7741 132.899C53.1055 133.548 48.4355 134.195 43.7643 134.843C45.0878 137.713 48.402 139.611 51.6305 139.255C54.8604 138.897 57.1565 135.983 57.7741 132.899Z" stroke="white" stroke-width="1.33333" stroke-miterlimit="10" stroke-linecap="round" stroke-linejoin="round"/>
<path d="M115.44 160.815C116.127 142.025 116.814 123.237 117.5 104.449C122.447 105.534 126.735 105.889 131.681 106.973C131.206 124.344 130.78 141.953 130.304 159.324L115.44 160.815" fill="#060305"/>
<path d="M130.915 133.289C126.029 133.146 121.142 133.005 116.257 132.861C117.114 135.944 120.043 138.677 123.338 138.847C126.635 139.018 129.723 136.265 130.915 133.289Z" stroke="white" stroke-width="1.33333" stroke-miterlimit="10" stroke-linecap="round" stroke-linejoin="round"/>
</svg>
