<svg width="172" height="175" viewBox="0 0 172 175" fill="none" xmlns="http://www.w3.org/2000/svg">
<path d="M172 84.7282C172 37.9349 133.496 -7.39477e-06 86.0013 -7.39477e-06C38.5049 -7.39477e-06 0 37.9349 0 84.7282C0 131.52 38.5049 169.454 86.0013 169.454C133.496 169.454 172 131.52 172 84.7282Z" fill="#B478FF"/>
<path d="M168.064 139.271C160.736 123.226 144.209 113.891 127.283 108.274C119.793 105.788 112.229 104 104.485 102.445C104.429 100.66 103.974 99.1732 103.917 97.3864C109.753 94.4855 114.038 88.0437 113.961 81.6029C117.324 79.3289 120.447 76.5957 122.593 73.1761C124.739 69.7552 125.842 65.586 125.029 61.6451C124.218 57.7055 121.142 54.8639 117.219 53.758C117.856 42.7482 111.941 31.6065 102.398 25.8416C92.8548 20.078 80.0922 19.9408 70.4228 25.4958C60.7534 31.0495 54.6634 42.3193 55.0546 53.3383C48.4248 55.9092 44.3965 63.7158 46.197 70.5062C47.9961 77.2992 55.3828 82.169 62.4426 81.2188C61.9872 88.5175 62.0836 95.614 61.6282 102.912C54.7478 104.925 47.6317 106.681 40.7501 108.694C24.9117 113.33 11.1885 126.737 6.22522 142.262C29.9299 158.479 58.7024 166.436 87.5446 165.528C116.388 164.62 143.696 154.502 168.064 139.271" fill="#FFC9C8"/>
<path d="M85.3034 72.2985C84.3268 76.6789 80.3427 76.8439 75.6969 75.8382C71.0524 74.8325 67.5667 72.7552 68.4817 68.6559C69.327 64.8641 73.4436 64.1105 78.0881 65.1149C82.7339 66.1205 86.15 68.5067 85.3034 72.2985" fill="#FF99A1"/>
<path d="M114.312 68.8644C115.353 73.2316 111.831 75.0754 107.201 76.1471C102.57 77.2162 98.5162 76.8267 97.5436 72.7393C96.6434 68.9594 100.025 66.5284 104.654 65.4567C109.287 64.3877 113.413 65.0845 114.312 68.8644" fill="#FF99A1"/>
<path d="M117.426 53.564C116.376 63.3054 115.328 73.0455 114.279 82.7867" stroke="#060305" stroke-width="1.33333" stroke-miterlimit="10" stroke-linecap="round" stroke-linejoin="round"/>
<path d="M116.547 63.9323C118.23 63.0956 119.914 62.2588 121.598 61.4234" stroke="#060305" stroke-width="1.33333" stroke-miterlimit="10" stroke-linecap="round" stroke-linejoin="round"/>
<path d="M52.1248 59.3275C54.7143 60.5893 57.3052 61.851 59.8947 63.1127" stroke="#060305" stroke-width="1.33333" stroke-miterlimit="10" stroke-linecap="round" stroke-linejoin="round"/>
<path d="M54.4277 53.2947C57.3789 51.4351 61.4085 51.389 64.4039 53.1812" stroke="#060305" stroke-width="1.33333" stroke-miterlimit="10" stroke-linecap="round" stroke-linejoin="round"/>
<path d="M79.1786 61.917C79.1786 60.8229 78.2784 59.9373 77.1692 59.9373C76.0586 59.9373 75.1597 60.8229 75.1597 61.917C75.1597 63.0111 76.0586 63.8967 77.1692 63.8967C78.2784 63.8967 79.1786 63.0111 79.1786 61.917Z" fill="#060305"/>
<path d="M107.311 61.917C107.311 60.8229 106.411 59.9373 105.301 59.9373C104.191 59.9373 103.292 60.8229 103.292 61.917C103.292 63.0111 104.191 63.8967 105.301 63.8967C106.411 63.8967 107.311 63.0111 107.311 61.917Z" fill="#060305"/>
<path d="M70.613 52.648C72.2152 50.5509 74.9039 49.3076 77.563 49.4317C80.2235 49.5544 82.7809 51.0432 84.1741 53.2816" stroke="#060305" stroke-width="1.33333" stroke-miterlimit="10" stroke-linecap="round" stroke-linejoin="round"/>
<path d="M98.7974 54.0536C100.023 51.5605 102.761 49.8632 105.575 49.8527C108.386 49.8421 111.137 51.5196 112.383 54.0034" stroke="#060305" stroke-width="1.33333" stroke-miterlimit="10" stroke-linecap="round" stroke-linejoin="round"/>
<path d="M92.169 60.8928C93.0585 65.6559 93.9493 70.4191 94.8402 75.1822C93.4215 75.2364 91.7095 75.2997 90.2908 75.3538" stroke="#060305" stroke-width="1.33333" stroke-miterlimit="10" stroke-linecap="round" stroke-linejoin="round"/>
<path d="M83.5163 77.5276C83.7159 78.7696 84.517 79.9058 85.6302 80.5219C86.7435 81.137 88.1447 81.2205 89.3263 80.741" stroke="#060305" stroke-width="1.33333" stroke-miterlimit="10" stroke-linecap="round" stroke-linejoin="round"/>
<path d="M50.8442 74.0446C50.0016 75.7458 49.1589 77.4456 48.3163 79.1469" stroke="#060305" stroke-width="1.33333" stroke-miterlimit="10" stroke-linecap="round" stroke-linejoin="round"/>
<path d="M56.0539 76.1048C55.2462 79.0995 54.437 82.0927 53.6292 85.086" stroke="#060305" stroke-width="1.33333" stroke-miterlimit="10" stroke-linecap="round" stroke-linejoin="round"/>
<path d="M83.803 99.0337C90.4649 101.964 98.6287 101.292 104.705 97.3112" stroke="#060305" stroke-width="1.33333" stroke-miterlimit="10" stroke-linecap="round" stroke-linejoin="round"/>
<path d="M37.9088 134.902C38.7286 136.467 39.5471 138.029 40.3656 139.594" stroke="#060305" stroke-width="1.33333" stroke-miterlimit="10" stroke-linecap="round" stroke-linejoin="round"/>
<path d="M127.733 140C128.781 138.6 129.828 137.201 130.877 135.802" stroke="#060305" stroke-width="1.33333" stroke-miterlimit="10" stroke-linecap="round" stroke-linejoin="round"/>
<path d="M140.772 161.314C128.184 145.913 121.863 125.377 124.49 105.774C120.706 104.853 117.137 104.112 113.352 103.191C111.561 112.1 105.433 120.061 97.2073 124.162C88.982 128.264 78.8397 128.416 70.4925 124.564C62.1439 120.711 55.7713 112.938 53.7056 104.087C49.6787 105.148 45.9519 105.973 41.9263 107.035C45.0972 124.689 40.7393 143.615 30.3854 158.357C40.817 166.589 53.1845 172.092 66.3932 174.096C78.6722 175.958 91.2661 174.774 103.388 172.094C115.509 169.413 129.084 165.458 140.772 161.314" fill="white"/>
<path d="M50.2333 105.04C51.3184 114.252 57.7834 122.371 66.0476 126.813C75.5067 131.897 87.3517 132.431 97.2422 128.221C107.134 124.009 114.857 115.146 117.582 104.874" stroke="#060305" stroke-width="1.33333" stroke-miterlimit="10" stroke-linecap="round" stroke-linejoin="round"/>
</svg>
