<svg width="172" height="175" viewBox="0 0 172 175" fill="none" xmlns="http://www.w3.org/2000/svg">
<path d="M172 82.469C172 36.9234 133.498 -3.9395e-05 86.0007 -3.9395e-05C38.5038 -3.9395e-05 0 36.9234 0 82.469C0 128.013 38.5038 164.936 86.0007 164.936C133.498 164.936 172 128.013 172 82.469Z" fill="#FFC9C8"/>
<path d="M169.098 150.408C146.926 166.493 115.459 175.446 87.6471 174.983C60.1859 174.509 32.8975 163.603 11.4365 147.108C11.1686 146.915 10.9141 146.721 10.6595 146.517C12.1198 139.683 15.576 133.363 20.3585 128.121C25.985 121.941 33.4468 117.266 41.6722 114.979C45.3428 113.964 49.0134 112.936 52.684 111.91C57.011 110.701 61.338 109.508 65.6517 108.3C70.1126 113.554 77.3467 116.803 84.4066 117.1C91.4665 117.394 98.6067 114.685 103.523 109.816C107.448 110.625 111.426 111.343 115.406 112.051C120.269 112.912 125.132 113.772 129.927 114.749C141.676 117.138 152.313 123.471 159.721 132.27C163.526 136.78 166.473 141.944 168.281 147.558C168.589 148.495 168.857 149.445 169.098 150.408" fill="#B478FF"/>
<path d="M167.573 147.782C115.93 156.917 62.2623 156.815 10.7278 147.334C10.4586 147.14 10.2041 146.949 9.94952 146.743C11.4097 139.909 14.866 133.589 19.6498 128.348C65.1439 137.454 112.473 136.454 159.011 132.497C162.817 137.006 165.763 142.17 167.573 147.782" fill="#A03CFF"/>
<path d="M115.406 112.051C107.18 122.135 98.9416 132.372 90.743 142.379C78.0567 132.232 65.3703 122.071 52.684 111.91C57.011 110.701 61.338 109.508 65.6517 108.3C70.1126 113.554 77.3467 116.803 84.4066 117.1C91.4665 117.394 98.6067 114.685 103.523 109.816C107.448 110.625 111.426 111.343 115.406 112.051" fill="#A03CFF"/>
<path d="M131.488 116.033C130.23 127.626 131.623 139.476 135.539 150.51" stroke="#060305" stroke-width="1.33333" stroke-miterlimit="10" stroke-linecap="round" stroke-linejoin="round"/>
<path d="M37.9453 116.142C40.2173 128.743 40.6553 141.776 39.2393 154.541" stroke="#060305" stroke-width="1.33333" stroke-miterlimit="10" stroke-linecap="round" stroke-linejoin="round"/>
<path d="M49.2839 70.3065C46.9208 70.0624 44.8913 68.0469 44.7225 65.7744C44.5524 63.5007 46.2604 61.2282 48.5632 60.6643C47.4768 58.5588 47.7554 55.6607 49.7421 54.2862C47.7943 54.1128 46.1907 52.2449 46.3877 50.3784C46.5846 48.5132 48.5458 46.9909 50.4896 47.1951C47.7326 44.4307 46.8847 39.9269 48.9236 36.6395C50.9625 33.3509 55.4034 31.6283 59.2522 32.6316C58.7271 30.16 59.9582 27.2837 62.2958 26.1289C64.6322 24.9753 67.7415 25.4943 69.5326 27.3403C69.7563 24.193 72.0015 21.4118 75.1135 20.3905C78.2255 19.3719 81.9309 20.3045 84.1172 22.6617C84.081 18.4855 88.3237 15.1609 92.6775 15.1352C97.0326 15.107 101.018 18.8863 101.039 23.0612C101.482 21.1741 103.859 19.9525 105.743 20.6436C107.628 21.336 108.545 23.7678 107.559 25.4557C110.879 23.6046 115.068 24.2122 117.954 26.644C120.837 29.0745 121.856 33.3317 120.366 36.7256C121.306 36.0717 122.977 36.276 123.787 37.0725C124.598 37.8676 124.872 39.0572 124.777 40.1658C124.681 41.2744 124.262 42.3329 123.845 43.3709C125.186 42.6155 127.124 43.1037 127.905 44.3934C128.686 45.6819 128.168 47.5369 126.821 48.2807C131.215 50.3437 132.863 56.5509 131.487 61.0535C130.112 65.5573 125.775 68.9217 120.996 69.925L49.2839 70.3065" fill="#060305"/>
<path d="M64.3321 23.904C66.5546 24.3613 68.5707 25.6883 69.8152 27.5125C68.5841 25.0935 68.6229 22.1145 69.917 19.7252" stroke="#060305" stroke-width="1.33333" stroke-miterlimit="10" stroke-linecap="round" stroke-linejoin="round"/>
<path d="M104.876 110.669C104.955 108.779 104.84 106.833 104.919 104.945C109.151 103.663 112.902 100.963 115.37 97.4257C117.838 93.8881 119.521 89.2906 119.141 85.0488C124.57 82.0426 128.009 76.0039 127.717 69.9995C127.594 67.4855 126.802 64.9035 124.972 63.0999C123.143 61.295 120.325 60.1183 117.971 61.2334C117.157 55.9369 116.53 50.4979 115.715 45.2015C111.858 43.4544 108.698 41.4787 104.841 39.7316C104.54 42.7068 102.052 45.3556 98.9992 45.9555C95.9475 46.5554 92.5743 45.0589 91.0752 42.4396C90.7791 44.4603 88.7443 46.1058 86.6156 46.0455C84.4882 45.9838 82.4533 44.9471 82.2845 42.9123C81.6241 45.7269 79.2824 48.1201 76.3941 48.9307C73.5045 49.74 69.85 48.9962 67.7119 46.9639C67.1573 53.5399 66.6027 60.117 66.0481 66.6929C64.7889 64.8868 63.8203 63.1782 62.5611 61.3734C56.9453 60.6116 50.9839 63.5007 48.2939 68.2897C45.6026 73.0774 46.3635 79.4402 50.1158 83.5199C53.8681 87.6009 60.3547 89.1195 65.6462 87.1579C65.4064 94.8655 64.332 102.738 64.0909 110.445C71.9398 116.378 80.6301 122.445 88.4803 128.377C93.579 122.605 99.7748 116.44 104.876 110.669" fill="#C14F4F"/>
<path d="M106.182 85.5045C106.182 84.9731 105.732 84.541 105.178 84.541C104.623 84.541 104.173 84.9731 104.173 85.5045C104.173 86.0379 104.623 86.468 105.178 86.468C105.732 86.468 106.182 86.0379 106.182 85.5045Z" fill="#B52A41"/>
<path d="M113.905 86.0339C113.905 85.502 113.457 85.0705 112.901 85.0705C112.346 85.0705 111.896 85.502 111.896 86.0339C111.896 86.5659 112.346 86.9974 112.901 86.9974C113.457 86.9974 113.905 86.5659 113.905 86.0339Z" fill="#B52A41"/>
<path d="M104.292 81.1976C104.292 80.6656 103.842 80.2341 103.287 80.2341C102.733 80.2341 102.283 80.6656 102.283 81.1976C102.283 81.7294 102.733 82.161 103.287 82.161C103.842 82.161 104.292 81.7294 104.292 81.1976Z" fill="#B52A41"/>
<path d="M111.147 82.4822C111.147 81.9503 110.698 81.5188 110.142 81.5188C109.588 81.5188 109.138 81.9503 109.138 82.4822C109.138 83.0141 109.588 83.4457 110.142 83.4457C110.698 83.4457 111.147 83.0141 111.147 82.4822Z" fill="#B52A41"/>
<path d="M116.822 79.6108C116.822 79.0789 116.372 78.6474 115.817 78.6474C115.262 78.6474 114.812 79.0789 114.812 79.6108C114.812 80.1428 115.262 80.5743 115.817 80.5743C116.372 80.5743 116.822 80.1428 116.822 79.6108Z" fill="#B52A41"/>
<path d="M69.9344 81.5749C69.9344 81.0434 69.4843 80.6114 68.9297 80.6114C68.3751 80.6114 67.925 81.0434 67.925 81.5749C67.925 82.1068 68.3751 82.5383 68.9297 82.5383C69.4843 82.5383 69.9344 82.1068 69.9344 81.5749Z" fill="#B52A41"/>
<path d="M86.4039 81.9528C86.4039 81.4208 85.9537 80.9893 85.3991 80.9893C84.8445 80.9893 84.3944 81.4208 84.3944 81.9528C84.3944 82.4846 84.8445 82.9163 85.3991 82.9163C85.9537 82.9163 86.4039 82.4846 86.4039 81.9528Z" fill="#B52A41"/>
<path d="M74.4263 84.2972C74.4263 83.7627 73.9761 83.3338 73.4215 83.3338C72.8669 83.3338 72.4168 83.7627 72.4168 84.2972C72.4168 84.8291 72.8669 85.2607 73.4215 85.2607C73.9761 85.2607 74.4263 84.8291 74.4263 84.2972Z" fill="#B52A41"/>
<path d="M80.2577 86.336C80.2577 85.8041 79.8076 85.3726 79.253 85.3726C78.6983 85.3726 78.2482 85.8041 78.2482 86.336C78.2482 86.8679 78.6983 87.2995 79.253 87.2995C79.8076 87.2995 80.2577 86.8679 80.2577 86.336Z" fill="#B52A41"/>
<path d="M79.3909 81.5007C79.3909 80.9687 78.9408 80.5372 78.3862 80.5372C77.8302 80.5372 77.3815 80.9687 77.3815 81.5007C77.3815 82.0326 77.8302 82.4641 78.3862 82.4641C78.9408 82.4641 79.3909 82.0326 79.3909 81.5007Z" fill="#B52A41"/>
<path d="M88.1334 69.3264C88.1334 64.0235 83.6496 59.7265 78.1196 59.7265C72.5896 59.7265 68.1072 64.0235 68.1072 69.3264C68.1072 74.6293 72.5896 78.9288 78.1196 78.9288C83.6496 78.9288 88.1334 74.6293 88.1334 69.3264Z" stroke="#060305" stroke-width="1.33333" stroke-miterlimit="10" stroke-linecap="round" stroke-linejoin="round"/>
<path d="M117.745 69.3264C117.745 64.0235 113.262 59.7265 107.732 59.7265C102.202 59.7265 97.7185 64.0235 97.7185 69.3264C97.7185 74.6293 102.202 78.9288 107.732 78.9288C113.262 78.9288 117.745 74.6293 117.745 69.3264Z" stroke="#060305" stroke-width="1.33333" stroke-miterlimit="10" stroke-linecap="round" stroke-linejoin="round"/>
<path d="M87.8146 66.6685C89.0738 65.2401 91.0257 64.3973 92.9749 64.4436C94.924 64.4924 96.8303 65.425 98.0132 66.9126" stroke="#060305" stroke-width="1.33333" stroke-miterlimit="10" stroke-linecap="round" stroke-linejoin="round"/>
<path d="M79.9227 71.4511C79.9227 70.3849 79.0225 69.5242 77.9133 69.5242C76.8027 69.5242 75.9038 70.3849 75.9038 71.4511C75.9038 72.5148 76.8027 73.3781 77.9133 73.3781C79.0225 73.3781 79.9227 72.5148 79.9227 71.4511Z" fill="#060305"/>
<path d="M107.503 71.4511C107.503 70.3849 106.604 69.5242 105.494 69.5242C104.384 69.5242 103.484 70.3849 103.484 71.4511C103.484 72.5148 104.384 73.3781 105.494 73.3781C106.604 73.3781 107.503 72.5148 107.503 71.4511Z" fill="#060305"/>
<path d="M102.38 64.6324C104.824 64.6491 107.266 64.6658 109.71 64.6825" stroke="#060305" stroke-width="1.33333" stroke-miterlimit="10" stroke-linecap="round" stroke-linejoin="round"/>
<path d="M81.6817 64.328C80.3019 63.4121 78.5764 62.9843 76.9072 63.1449C75.2367 63.3054 73.6345 64.0518 72.4703 65.2118" stroke="#060305" stroke-width="1.33333" stroke-miterlimit="10" stroke-linecap="round" stroke-linejoin="round"/>
<path d="M93.0512 68.9552C93.5683 73.6453 94.0854 78.3328 94.6038 83.0201C93.4986 83.1541 92.2407 83.0949 91.1355 83.2273" stroke="#060305" stroke-width="1.33333" stroke-miterlimit="10" stroke-linecap="round" stroke-linejoin="round"/>
<path d="M86.7737 86.4127C87.0095 87.4996 87.8829 88.4349 88.9841 88.7802C90.0826 89.1235 91.3646 88.864 92.2247 88.1203" stroke="#060305" stroke-width="1.33333" stroke-miterlimit="10" stroke-linecap="round" stroke-linejoin="round"/>
<path d="M118.074 60.9058C118.444 69.1414 118.812 77.3768 119.182 85.6129" stroke="#060305" stroke-width="1.33333" stroke-miterlimit="10" stroke-linecap="round" stroke-linejoin="round"/>
<path d="M118.833 71.6644C120.484 70.4158 122.139 69.1659 123.792 67.9185" stroke="#060305" stroke-width="1.33333" stroke-miterlimit="10" stroke-linecap="round" stroke-linejoin="round"/>
<path d="M53.7663 66.9588C56.8448 69.1067 59.9233 71.2545 63.0004 73.4024" stroke="#060305" stroke-width="1.33333" stroke-miterlimit="10" stroke-linecap="round" stroke-linejoin="round"/>
<path d="M54.3852 82.6978C52.2418 82.2729 49.88 83.6497 49.2839 85.668C48.6891 87.6873 49.951 90.0458 52.0087 90.7598C54.0664 91.4729 56.609 90.4352 57.4999 88.5183" stroke="#060305" stroke-width="1.33333" stroke-miterlimit="10" stroke-linecap="round" stroke-linejoin="round"/>
<path d="M88.4724 105.907C93.9019 107.582 99.9343 107.409 105.25 105.421" stroke="#060305" stroke-width="1.33333" stroke-miterlimit="10" stroke-linecap="round" stroke-linejoin="round"/>
<path d="M104.721 38.9518C105.258 41.146 104.729 43.5584 103.32 45.3595C101.908 47.1605 99.6396 48.3192 97.2925 48.4361" stroke="#060305" stroke-width="1.33333" stroke-miterlimit="10" stroke-linecap="round" stroke-linejoin="round"/>
</svg>
