<svg width="172" height="175" viewBox="0 0 172 175" fill="none" xmlns="http://www.w3.org/2000/svg">
<path d="M171.457 86.7143C171.457 38.8242 133.074 2.24181e-05 85.7288 2.24181e-05C38.3819 2.24181e-05 0 38.8242 0 86.7143C0 134.603 38.3819 173.426 85.7288 173.426C133.074 173.426 171.457 134.603 171.457 86.7143Z" fill="#B4D2FE"/>
<path d="M59.0306 33.4336C60.1213 33.8199 61.2121 34.2062 62.3028 34.5912C61.922 33.3242 61.5407 32.0559 61.1599 30.7889" stroke="#C14F4F" stroke-width="1.33333" stroke-miterlimit="10" stroke-linecap="round" stroke-linejoin="round"/>
<path d="M52.6379 62.026C50.9754 48.9995 57.9163 35.303 69.4875 28.779C81.058 22.2549 96.5684 23.291 107.138 31.2954C110.19 33.6079 112.856 36.4579 114.691 39.7915C119.583 48.6793 118.014 59.5176 116.311 69.4861L52.6379 62.026Z" fill="#C14F4F"/>
<path d="M109.137 121.886L111.354 118.985L104.049 106.829L97.4805 112.855C87.1685 109.716 79.3799 109.911 70.6303 112.019L60.9231 105.636L52.4397 115.647L56.0687 119.082C59.2121 136.38 62.3555 153.676 65.4994 170.973C81.446 175.721 98.5488 176.04 113.758 169.254C112.364 153.368 110.602 137.727 109.137 121.886" fill="white"/>
<path d="M86.8034 122.652L78.1263 135.669L80.6177 138.666C83.7611 142.448 89.5941 142.188 92.3949 138.141L95.0928 134.24L86.8034 122.652" fill="#060305"/>
<path d="M84.2916 134.001L78.3616 175L96.7433 173.57L88.7386 133.526L84.2916 134.001Z" fill="#060305"/>
<path d="M59.5136 122.684C65.6518 128.393 70.3925 132.687 76.5301 138.396C77.0017 137.443 78.1263 135.669 78.1263 135.669" stroke="#060305" stroke-width="1.33333" stroke-miterlimit="10" stroke-linecap="round" stroke-linejoin="round"/>
<path d="M95.0928 134.24C95.6777 135.275 97.148 137.393 97.148 137.393C97.148 137.393 104.116 128.952 108.305 123.498" stroke="#060305" stroke-width="1.33333" stroke-miterlimit="10" stroke-linecap="round" stroke-linejoin="round"/>
<path d="M172 151.388C165.021 131.456 146.113 116.694 125.353 114.222C125.397 112.823 125.444 111.426 125.488 110.03C118.983 109.325 113.734 109.195 107.228 108.489C107.634 129.148 108.04 149.809 108.444 170.468C130.473 171.932 154.083 164.432 172 151.388Z" fill="#FE5E04"/>
<path d="M125.483 113.859C125.477 123.195 125.473 132.532 125.468 141.867C127.436 141.367 128.959 141.106 130.926 140.605C130.084 149.58 129.286 158.872 128.444 167.851" stroke="#060305" stroke-width="1.33333" stroke-miterlimit="10" stroke-linecap="round" stroke-linejoin="round"/>
<path d="M71.3809 171.937C66.3722 150.552 61.3639 129.167 56.3556 107.78C50.2476 109.644 43.8941 110.548 37.7857 112.411C38.1884 113.547 38.3094 114.461 38.7111 115.599C22.0446 121.638 8.44376 136.49 5.35364 154.123C25.3445 164.706 48.8512 170.686 71.3809 171.937Z" fill="#FE5E04"/>
<path d="M38.5932 115.185C40.7115 123.718 42.8304 132.249 44.95 140.782C42.7152 140.359 40.5347 140.02 38.3006 139.599C40.9886 147.737 43.1738 156.129 45.8623 164.265" stroke="#060305" stroke-width="1.33333" stroke-miterlimit="10" stroke-linecap="round" stroke-linejoin="round"/>
<path d="M123.442 62.8796C121.81 61.2479 119.444 60.3888 117.182 60.5266C116.278 53.6122 114.642 46.7951 112.301 40.2278C98.2376 40.6506 84.1493 40.8478 70.0873 41.2719C68.3357 48.624 66.585 55.976 64.8344 63.3294C62.8918 61.8733 60.6873 60.1673 58.7452 58.7099C53.776 59.4731 49.3238 62.862 47.3828 67.3573C45.4412 71.8539 46.0782 77.304 49.0062 81.267C51.9346 85.2301 57.0551 87.5695 62.0749 87.2404C62.1677 94.549 61.9534 102.138 62.0467 109.447C70.3768 113.735 78.4738 118.365 86.8034 122.652C92.5607 117.961 98.1588 114.555 103.563 109.45C103.42 107.384 103.396 105.58 103.253 103.515C110.678 100.389 116.143 93.1941 117.21 85.1313C117.234 84.9503 117.25 84.7684 117.272 84.5874C118.607 83.6455 119.886 82.6314 121.05 81.4818C123.518 79.0478 125.489 75.9831 126.121 72.5549C126.752 69.1281 125.895 65.3285 123.442 62.8796" fill="#FF9A7D"/>
<path d="M83.4053 74.2042C82.6328 77.7593 79.4826 77.8944 75.8097 77.077C72.1373 76.2613 69.3827 74.577 70.1057 71.2474C70.7738 68.1704 74.0284 67.5586 77.7008 68.3744C81.3735 69.1902 84.0736 71.1258 83.4053 74.2042Z" fill="#C14F4F"/>
<path d="M115.47 71.5662C116.291 75.1106 113.508 76.6086 109.846 77.4755C106.186 78.3456 102.981 78.0295 102.212 74.7121C101.5 71.6432 104.173 69.6698 107.834 68.8013C111.495 67.9327 114.758 68.4987 115.47 71.5662Z" fill="#C14F4F"/>
<path d="M117.477 60.5834C117.569 68.9242 117.661 77.2677 117.753 85.6099" stroke="#060305" stroke-width="1.33333" stroke-miterlimit="10" stroke-linecap="round" stroke-linejoin="round"/>
<path d="M117.708 70.1088C119.043 68.9174 120.379 67.7261 121.714 66.5334" stroke="#060305" stroke-width="1.33333" stroke-miterlimit="10" stroke-linecap="round" stroke-linejoin="round"/>
<path d="M53.232 65.7297C55.7066 67.9192 58.1814 70.1101 60.6555 72.301" stroke="#060305" stroke-width="1.33333" stroke-miterlimit="10" stroke-linecap="round" stroke-linejoin="round"/>
<path d="M61.6214 87.76C61.4626 86.4879 61.3042 85.2179 61.1464 83.9458" stroke="#060305" stroke-width="1.33333" stroke-miterlimit="10" stroke-linecap="round" stroke-linejoin="round"/>
<path d="M82.0856 104.562C89.0667 107.389 97.3042 106.823 103.845 103.071" stroke="#060305" stroke-width="1.33333" stroke-miterlimit="10" stroke-linecap="round" stroke-linejoin="round"/>
<path d="M91.8742 84.7346C88.7397 83.9104 85.6057 83.0852 82.4711 82.2599C82.0564 84.0524 82.2259 86.1582 83.555 87.4145C84.8843 88.6707 86.8931 89.1392 88.6317 88.5989C90.3708 88.0586 91.4705 86.5296 91.8742 84.7346" fill="white"/>
<path d="M71.5536 55.6046C73.3747 53.6825 76.0315 52.6005 78.6605 52.7113C81.29 52.8207 83.8488 54.1201 85.5076 56.1881" stroke="#060305" stroke-width="1.33333" stroke-miterlimit="10" stroke-linecap="round" stroke-linejoin="round"/>
<path d="M100.966 56.0422C102.307 54.1484 104.551 52.9422 106.852 52.8774C109.155 52.8139 111.461 53.8918 112.902 55.7085" stroke="#060305" stroke-width="1.33333" stroke-miterlimit="10" stroke-linecap="round" stroke-linejoin="round"/>
<path d="M93.0202 67.4896C93.6545 71.4797 94.2889 75.4698 94.9245 79.4598C93.0933 79.5775 91.2634 79.6946 89.4329 79.8123" stroke="#060305" stroke-width="1.33333" stroke-miterlimit="10" stroke-linecap="round" stroke-linejoin="round"/>
<path d="M75.854 65.9945C76.8212 65.1475 78.2301 64.8517 79.4508 65.238C80.6715 65.6243 81.6621 66.6806 81.9782 67.9355" stroke="#060305" stroke-width="1.33333" stroke-miterlimit="10" stroke-linecap="round" stroke-linejoin="round"/>
<path d="M103.358 68.0543C103.35 66.84 104.113 65.6567 105.216 65.1786C106.318 64.7004 107.694 64.9557 108.556 65.7972" stroke="#060305" stroke-width="1.33333" stroke-miterlimit="10" stroke-linecap="round" stroke-linejoin="round"/>
</svg>
