<svg width="172" height="175" viewBox="0 0 172 175" fill="none" xmlns="http://www.w3.org/2000/svg">
<path d="M172 83.2014C172 37.2511 133.498 -5.75887e-06 86.0007 -5.75887e-06C38.5038 -5.75887e-06 0 37.2511 0 83.2014C0 129.153 38.5038 166.405 86.0007 166.405C133.498 166.405 172 129.153 172 83.2014Z" fill="#B4D2FE"/>
<path d="M106.24 115.728C106.115 108.461 105.956 101.438 105.831 94.1699C92.1643 92.8272 78.7586 91.4664 65.0916 90.1224C64.395 97.4412 63.6984 104.759 63.0018 112.076C68.6363 117.065 76.2374 120.324 83.8639 120.727C91.4918 121.132 100.076 120.092 106.24 115.728" fill="#FF9A7D"/>
<path d="M145.281 118.693C135.5 114.167 124.705 111.157 113.864 110.636L114.274 110.11L109.408 101.272L87.0991 115.402L62.2395 98.6802L56.2071 108.814L57.0739 109.767C51.1915 111.223 45.3936 112.833 39.7135 114.956C33.085 117.434 26.7177 120.775 21.5119 125.455C14.6676 131.608 10.0405 140.024 8.58972 148.953C32.6429 165.628 62.1323 176.078 91.6981 174.911C121.263 173.746 146.487 161.82 169.057 143.306C165.555 132.256 156.057 123.681 145.281 118.693" fill="white"/>
<path d="M56.8354 110.198C63.7198 117.416 70.6042 124.632 77.4886 131.849C80.8739 126.435 84.093 121.222 87.4796 115.808C90.6881 121.462 94.0961 126.922 97.3045 132.575C103.007 125.068 108.574 117.7 114.274 110.193" stroke="#060305" stroke-width="1.33333" stroke-miterlimit="10" stroke-linecap="round" stroke-linejoin="round"/>
<path d="M87.2559 116.564C87.8588 132.035 88.4629 147.508 89.0657 162.979" stroke="#060305" stroke-width="1.33333" stroke-miterlimit="10" stroke-linecap="round" stroke-linejoin="round"/>
<path d="M111.538 161.637C111.14 155.691 110.742 149.745 110.343 143.797C118.302 143.693 125.986 143.699 133.945 143.594C134.115 148.32 133.602 152.78 133.773 157.505" stroke="#060305" stroke-width="1.33333" stroke-miterlimit="10" stroke-linecap="round" stroke-linejoin="round"/>
<path d="M140.087 116.798C141.109 127.941 143.245 138.989 146.458 149.736" stroke="#060305" stroke-width="1.33333" stroke-miterlimit="10" stroke-linecap="round" stroke-linejoin="round"/>
<path d="M31.9329 118.886C30.9362 130.392 29.9382 141.9 28.9415 153.407" stroke="#060305" stroke-width="1.33333" stroke-miterlimit="10" stroke-linecap="round" stroke-linejoin="round"/>
<path d="M118.307 60.4389C122.155 60.0202 125.981 62.545 127.507 65.9873C129.034 69.4296 128.462 73.5329 126.557 76.7938C124.653 80.0559 121.544 82.5405 118.137 84.3199L118.307 60.4389" fill="#FF9A7D"/>
<path d="M118.574 71.0535C120.23 69.681 121.884 68.3098 123.539 66.9386" stroke="#060305" stroke-width="1.33333" stroke-miterlimit="10" stroke-linecap="round" stroke-linejoin="round"/>
<path d="M118.022 88.2755C119.443 76.9493 119.007 62.3518 118.486 54.4524C119.304 51.7307 119.538 48.6992 118.843 45.9451C117.851 42.0219 115.895 38.3282 113.182 35.2578C111.258 33.0818 108.97 31.2232 106.486 29.668C98.7125 24.8 88.9505 22.9972 79.8705 24.7572C70.7904 26.516 62.4994 31.8156 57.2628 39.2043C52.0261 46.5931 49.9082 55.9869 51.4849 64.8156C52.7897 72.1137 55.0725 78.6095 58.1831 85.3762C61.2938 92.1429 65.6181 98.5234 71.5955 103.149C77.573 107.775 85.3362 110.511 92.936 109.614C98.8585 108.914 104.86 107.097 109.408 103.359C113.955 99.6211 117.304 94.0053 118.022 88.2755" fill="#C14F4F"/>
<path d="M116.603 57.4826C116.615 58.9588 116.68 60.8445 116.768 62.7873C117.088 69.8741 115.588 76.9402 112.326 83.2921L112.272 83.3958C101.811 81.1835 91.3512 81.2276 80.9597 83.7328C80.3488 83.3894 79.7406 83.0433 79.1324 82.6947C73.9172 79.693 70.3591 74.597 69.3236 68.814L67.2659 57.3206C66.4875 52.9762 68.0656 48.4128 70.5533 44.719C73.0397 41.0253 77.1993 38.2854 81.7433 37.9601C86.286 37.6348 91.0605 39.9884 92.9856 43.9829C93.3714 40.7259 97.0875 37.8629 100.426 37.2888C103.762 36.7159 107.258 38.0003 109.762 40.2088C112.266 42.4186 116.54 49.4095 116.603 57.4826" fill="#FF9A7D"/>
<path d="M104.182 73.3411C104.182 72.8045 103.732 72.369 103.177 72.369C102.622 72.369 102.173 72.8045 102.173 73.3411C102.173 73.8789 102.622 74.3131 103.177 74.3131C103.732 74.3131 104.182 73.8789 104.182 73.3411Z" fill="#C14F4F"/>
<path d="M111.864 73.7947C111.864 73.2581 111.414 72.8227 110.859 72.8227C110.304 72.8227 109.854 73.2581 109.854 73.7947C109.854 74.3338 110.304 74.7667 110.859 74.7667C111.414 74.7667 111.864 74.3338 111.864 73.7947Z" fill="#C14F4F"/>
<path d="M107.534 77.482C107.534 76.9454 107.084 76.5099 106.529 76.5099C105.975 76.5099 105.525 76.9454 105.525 77.482C105.525 78.0185 105.975 78.454 106.529 78.454C107.084 78.454 107.534 78.0185 107.534 77.482Z" fill="#C14F4F"/>
<path d="M78.425 75.5379C78.425 75.0013 77.9749 74.5658 77.4203 74.5658C76.8657 74.5658 76.4156 75.0013 76.4156 75.5379C76.4156 76.0745 76.8657 76.5099 77.4203 76.5099C77.9749 76.5099 78.425 76.0745 78.425 75.5379Z" fill="#C14F4F"/>
<path d="M85.0817 73.6871C85.0817 73.1505 84.6329 72.715 84.0769 72.715C83.5223 72.715 83.0722 73.1505 83.0722 73.6871C83.0722 74.2249 83.5223 74.6591 84.0769 74.6591C84.6329 74.6591 85.0817 74.2249 85.0817 73.6871Z" fill="#C14F4F"/>
<path d="M88.7456 76.5099C88.7456 75.9734 88.2955 75.5379 87.7408 75.5379C87.1849 75.5379 86.7361 75.9734 86.7361 76.5099C86.7361 77.0465 87.1849 77.482 87.7408 77.482C88.2955 77.482 88.7456 77.0465 88.7456 76.5099Z" fill="#C14F4F"/>
<path d="M83.0722 79.2783C83.0722 78.7418 82.6234 78.3063 82.0675 78.3063C81.5129 78.3063 81.0627 78.7418 81.0627 79.2783C81.0627 79.8149 81.5129 80.2504 82.0675 80.2504C82.6234 80.2504 83.0722 79.8149 83.0722 79.2783Z" fill="#C14F4F"/>
<path d="M64.0828 65.8019C62.4096 64.1611 60.7364 62.5177 59.0632 60.8769C53.3792 61.1802 47.8639 64.7651 46.1103 69.7264C44.3567 74.6851 46.2429 80.5471 50.6543 83.8429C55.0658 87.1388 61.7184 87.6572 66.6737 85.0898L64.0828 65.8019Z" fill="#FF9A7D"/>
<path d="M51.9189 68.293C54.5969 69.8184 57.2762 71.3451 59.9541 72.8706" stroke="#060305" stroke-width="1.33333" stroke-miterlimit="10" stroke-linecap="round" stroke-linejoin="round"/>
<path d="M88.7925 49.0232C91.3927 49.1671 93.9943 49.3122 96.5945 49.4561" stroke="#060305" stroke-width="1.33333" stroke-miterlimit="10" stroke-linecap="round" stroke-linejoin="round"/>
<path d="M87.8413 53.0242C91.0712 53.1006 94.3024 53.1758 97.5336 53.2522" stroke="#060305" stroke-width="1.33333" stroke-miterlimit="10" stroke-linecap="round" stroke-linejoin="round"/>
<path d="M82.468 68.2761C82.468 67.2029 81.5678 66.332 80.4586 66.332C79.348 66.332 78.4491 67.2029 78.4491 68.2761C78.4491 69.3492 79.348 70.2201 80.4586 70.2201C81.5678 70.2201 82.468 69.3492 82.468 68.2761Z" fill="#060305"/>
<path d="M108.927 68.2761C108.927 67.2029 108.027 66.332 106.918 66.332C105.809 66.332 104.908 67.2029 104.908 68.2761C104.908 69.3492 105.809 70.2201 106.918 70.2201C108.027 70.2201 108.927 69.3492 108.927 68.2761Z" fill="#060305"/>
<path d="M94.8838 67.2678C97.4921 70.8747 98.7996 75.3422 98.5316 79.7345C96.9576 79.9665 95.3111 80.0961 93.7357 80.3281" stroke="#060305" stroke-width="1.33333" stroke-miterlimit="10" stroke-linecap="round" stroke-linejoin="round"/>
<path d="M74.319 62.1069C75.5502 60.0747 77.987 58.7838 80.4197 58.8797C82.8525 58.973 85.1768 60.4467 86.2351 62.5696" stroke="#060305" stroke-width="1.33333" stroke-miterlimit="10" stroke-linecap="round" stroke-linejoin="round"/>
<path d="M102.471 62.3842C103.293 60.5607 105.218 59.253 107.269 59.1208C109.32 58.9912 111.407 60.0423 112.471 61.7453" stroke="#060305" stroke-width="1.33333" stroke-miterlimit="10" stroke-linecap="round" stroke-linejoin="round"/>
<path d="M87.915 84.9887C88.2781 86.4727 89.4877 87.7325 90.9881 88.1964C92.4899 88.6578 94.2301 88.3053 95.4116 87.2983" stroke="#060305" stroke-width="1.33333" stroke-miterlimit="10" stroke-linecap="round" stroke-linejoin="round"/>
</svg>
