<svg width="172" height="175" viewBox="0 0 172 175" fill="none" xmlns="http://www.w3.org/2000/svg">
<path d="M172 84.0344C172 37.6241 133.496 8.98825e-06 86.0005 8.98825e-06C38.5036 8.98825e-06 0 37.6241 0 84.0344C0 130.446 38.5036 168.071 86.0005 168.071C133.496 168.071 172 130.446 172 84.0344Z" fill="#FE5E04"/>
<path d="M167.155 145.366C160.83 130.344 147.344 117.398 131.464 113.405C122.504 111.152 113.75 109.708 104.79 107.456C99.4185 111.499 92.7646 113.831 86.0299 114.028C79.2955 114.228 72.2284 111.813 66.625 108.094C59.1983 109.379 51.7723 110.661 44.3461 111.947C26.35 115.057 11.0515 129.559 7.2157 147.313C20.9905 154.816 35.1974 161.258 49.891 166.777C64.5842 172.294 80.2725 175.771 95.9515 174.853C121.884 173.335 145.451 159.559 167.155 145.366Z" fill="#FDB044"/>
<path d="M52.2269 111.548C56.8639 124.35 70.3968 133.538 84.2939 133.317C98.19 133.097 111.411 123.485 115.62 110.541" stroke="#060305" stroke-width="1.33333" stroke-miterlimit="10" stroke-linecap="round" stroke-linejoin="round"/>
<path d="M36.1106 114.266C37.3471 128.418 36.7517 142.719 34.3439 156.727" stroke="#060305" stroke-width="1.33333" stroke-miterlimit="10" stroke-linecap="round" stroke-linejoin="round"/>
<path d="M131.382 113.578C131.48 126.836 133.79 140.075 138.19 152.616" stroke="#060305" stroke-width="1.33333" stroke-miterlimit="10" stroke-linecap="round" stroke-linejoin="round"/>
<path d="M52.6566 31.4887C54.0403 32.3003 55.4228 33.1106 56.8058 33.9209C56.6735 32.0594 56.542 30.1967 56.4102 28.3352" stroke="#060305" stroke-width="1.33333" stroke-miterlimit="10" stroke-linecap="round" stroke-linejoin="round"/>
<path d="M119.08 36.5075C121.97 35.082 125.607 35.2168 128.379 36.8531C131.149 38.4894 132.962 41.5747 133.013 44.7374" stroke="#060305" stroke-width="1.33333" stroke-miterlimit="10" stroke-linecap="round" stroke-linejoin="round"/>
<path d="M50.2548 68.0682C49.0459 59.5229 47.8371 50.9801 46.6282 42.4374C53.1993 35.6331 61.0896 28.3876 69.8145 24.5391C78.5393 20.6905 88.4249 19.0346 97.8243 20.8136C107.223 22.5938 116.038 28.0041 120.949 36.0336C123.395 35.2849 125.986 36.5965 127.813 38.3545C129.639 40.1126 130.371 42.8798 129.645 45.2819C128.917 47.684 126.763 49.6174 124.251 50.1214C122.681 57.2844 121.028 64.5927 119.457 71.7544L50.2548 68.0682" fill="#060305"/>
<path d="M110.043 109.931C108.314 109.601 106.579 109.287 104.849 108.957C104.758 106.648 104.833 104.145 104.744 101.836C110.637 99.1694 115.37 93.0497 115.99 86.7323C119.181 84.6222 122.061 81.9504 123.888 78.636C125.716 75.3215 126.408 71.3146 125.256 67.72C124.105 64.128 120.839 61.4838 117.032 60.9052C117.268 54.0432 115.575 47.7219 111.703 41.9936C98.1512 42.258 84.7834 42.224 71.2311 42.4885C68.5979 50.2732 65.964 58.0581 63.3303 65.8429C61.9311 63.8086 60.5313 61.7744 59.1319 59.7401C53.9361 59.9038 49.025 63.535 47.3148 68.3326C45.6053 73.1288 46.8643 78.7263 50.1799 82.639C53.496 86.5503 58.6792 88.7757 63.8757 88.9197C63.8112 95.8523 63.7134 102.952 63.6501 109.885C62.1482 110.253 60.0237 110.461 58.5218 110.828C62.9756 120.448 73.7325 127.581 84.5327 127.256C95.334 126.931 106.202 119.801 110.043 109.931" fill="#FFC9C8"/>
<path d="M87.1335 79.1347C86.156 83.4807 82.1722 83.6443 77.5263 82.6482C72.8805 81.6494 69.3959 79.5902 70.3106 75.5231C71.1557 71.7622 75.2725 71.0135 79.9178 72.0123C84.563 73.0085 87.9791 75.3739 87.1335 79.1347" fill="#FF99A1"/>
<path d="M116.141 75.7299C117.182 80.0615 113.66 81.8915 109.03 82.9518C104.399 84.0148 100.346 83.6273 99.373 79.5732C98.4728 75.8255 101.854 73.4117 106.485 72.35C111.115 71.2897 115.242 71.9809 116.141 75.7299Z" fill="#FF99A1"/>
<path d="M117.154 60.4457C117.727 69.5435 117.386 78.6949 116.136 87.7285" stroke="#060305" stroke-width="1.33333" stroke-miterlimit="10" stroke-linecap="round" stroke-linejoin="round"/>
<path d="M117.382 71.5358C118.878 70.6103 120.376 69.6875 121.873 68.762" stroke="#060305" stroke-width="1.33333" stroke-miterlimit="10" stroke-linecap="round" stroke-linejoin="round"/>
<path d="M51.8744 67.1768C54.5431 68.9623 57.2114 70.7491 59.8802 72.5359" stroke="#060305" stroke-width="1.33333" stroke-miterlimit="10" stroke-linecap="round" stroke-linejoin="round"/>
<path d="M63.3613 89.298C63.0253 87.7612 62.6888 86.2257 62.3528 84.6902" stroke="#060305" stroke-width="1.33333" stroke-miterlimit="10" stroke-linecap="round" stroke-linejoin="round"/>
<path d="M80.5207 103.83C88.8861 107.243 98.9778 106.268 106.497 101.319" stroke="#060305" stroke-width="1.33333" stroke-miterlimit="10" stroke-linecap="round" stroke-linejoin="round"/>
<path d="M81.9114 68.5761C81.9114 67.4935 81.0119 66.6126 79.902 66.6126C78.7926 66.6126 77.8925 67.4935 77.8925 68.5761C77.8925 69.6626 78.7926 70.5396 79.902 70.5396C81.0119 70.5396 81.9114 69.6626 81.9114 68.5761Z" fill="#060305"/>
<path d="M109.022 68.5761C109.022 67.4935 108.122 66.6126 107.013 66.6126C105.902 66.6126 105.003 67.4935 105.003 68.5761C105.003 69.6626 105.902 70.5396 107.013 70.5396C108.122 70.5396 109.022 69.6626 109.022 68.5761Z" fill="#060305"/>
<path d="M95.2938 66.6675C95.9448 71.9128 96.5959 77.1568 97.247 82.4007C95.8417 82.3968 94.4364 82.3929 93.0299 82.3889" stroke="#060305" stroke-width="1.33333" stroke-miterlimit="10" stroke-linecap="round" stroke-linejoin="round"/>
<path d="M74.175 57.2583C75.6754 55.4754 78.125 54.5014 80.4724 54.754C82.8195 55.0067 84.9932 56.4794 86.0591 58.5398" stroke="#060305" stroke-width="1.33333" stroke-miterlimit="10" stroke-linecap="round" stroke-linejoin="round"/>
<path d="M101.787 56.5997C104.383 56.3301 106.979 56.0605 109.576 55.7908" stroke="#060305" stroke-width="1.33333" stroke-miterlimit="10" stroke-linecap="round" stroke-linejoin="round"/>
<path d="M84.6212 83.791C84.7645 85.2296 85.7724 86.5543 87.1407 87.1041C88.5086 87.6539 90.179 87.4039 91.3161 86.4797" stroke="#060305" stroke-width="1.33333" stroke-miterlimit="10" stroke-linecap="round" stroke-linejoin="round"/>
</svg>
