<svg width="172" height="175" viewBox="0 0 172 175" fill="none" xmlns="http://www.w3.org/2000/svg">
<path d="M172 85.4359C172 38.2502 133.496 7.53513e-06 86.0013 7.53513e-06C38.5049 7.53513e-06 0 38.2502 0 85.4359C0 132.622 38.5049 170.872 86.0013 170.872C133.496 170.872 172 132.622 172 85.4359Z" fill="#B4D2FE"/>
<path d="M88.6177 21.8607C77.8819 20.8439 67.0215 25.2185 58.9945 32.4929C50.9661 39.7674 45.6183 49.7223 42.6135 60.1855C39.6087 70.65 38.8291 81.6456 38.9095 92.5413" stroke="#C14F4F" stroke-width="1.33333" stroke-miterlimit="10" stroke-linecap="round" stroke-linejoin="round"/>
<path d="M45.8715 121.046C43.1426 109.31 41.7521 97.2699 41.74 85.2256C41.7293 74.8995 42.7488 64.4748 46.0429 54.6824C49.3371 44.8872 55.0265 35.7176 63.2049 29.3455C71.3833 22.9707 82.178 19.6262 92.4088 21.4521C100.197 22.8416 108.247 24.9962 113.49 30.8853C118.734 36.773 121.552 44.4547 122.956 52.191C124.359 59.9273 124.458 67.8286 124.921 75.6767C125.919 92.5134 128.62 109.253 132.973 125.556L45.8715 121.046Z" fill="#C14F4F"/>
<path d="M171.257 145.178C164.833 126.903 147.55 112.939 128.297 109.564C120.242 108.151 112.306 107.768 104.252 106.356C99.139 110.256 92.6686 112.379 86.2143 112.273C79.76 112.166 73.1945 109.727 68.2165 105.658C59.9027 107.782 51.589 109.905 43.2753 112.026C27.1301 116.149 13.7057 129.648 11.2435 145.965C35.2536 160.031 60.7788 175.16 88.6806 174.999C116.581 174.839 147.414 159.518 171.257 145.178Z" fill="#060305"/>
<path d="M54.4907 110.794C61.1499 122.104 74.2863 129.332 87.4669 128.94C100.65 128.55 113.328 120.556 119.296 108.872" stroke="white" stroke-width="1.33333" stroke-miterlimit="10" stroke-linecap="round" stroke-linejoin="round"/>
<path d="M38.9041 113.301C42.4126 126.871 43.85 140.967 43.1534 154.959" stroke="#060305" stroke-width="1.33333" stroke-miterlimit="10" stroke-linecap="round" stroke-linejoin="round"/>
<path d="M136.202 112.383C134.165 126.296 134.544 140.556 137.317 154.342" stroke="#060305" stroke-width="1.33333" stroke-miterlimit="10" stroke-linecap="round" stroke-linejoin="round"/>
<path d="M106.987 107.99C106.819 106.035 106.938 104.025 106.771 102.068C112.939 98.5289 117.587 92.1155 118.412 85.0859C122.107 83.2387 125.358 80.3586 127.184 76.6708C129.011 72.9844 129.287 68.4621 127.479 64.7663C125.669 61.0705 122.064 58.7215 117.934 58.9478C114.992 45.8055 104.654 35.341 91.8542 30.9159C84.0227 41.6799 76.1926 52.4425 68.3625 63.2052C67.2265 61.9276 65.856 59.9286 64.72 58.651C59.1525 57.939 53.285 60.7857 50.4276 65.5861C47.5688 70.3852 47.8849 76.8651 51.1952 81.3688C54.5054 85.8737 60.6208 88.1442 66.0945 86.9025C66.0891 93.8696 66.4495 101.019 66.4455 107.986C64.2364 108.681 61.931 109.069 59.7206 109.763C65.276 118.694 75.358 124.08 85.925 123.954C96.4933 123.83 106.802 117.874 112.14 108.812L106.987 107.99" fill="#FF9A7D"/>
<path d="M86.1688 77.5652C85.3931 81.0693 82.2329 81.1997 78.5476 80.3959C74.8636 79.592 72.1013 77.9311 72.8261 74.6519C73.4972 71.6189 76.7606 71.016 80.4446 71.8212C84.1285 72.625 86.8386 74.5321 86.1688 77.5652Z" fill="#FF7171"/>
<path d="M118.018 74.0264C118.842 77.5199 116.049 78.9932 112.377 79.8503C108.705 80.7047 105.491 80.3946 104.719 77.126C104.005 74.1023 106.686 72.1566 110.358 71.3022C114.032 70.4451 117.304 71.0027 118.018 74.0264" fill="#FF7171"/>
<path d="M117.871 58.6829C119.204 67.6875 119.473 76.8478 118.668 85.9137" stroke="#060305" stroke-width="1.33333" stroke-miterlimit="10" stroke-linecap="round" stroke-linejoin="round"/>
<path d="M119.365 69.4176C121.22 67.9763 123.074 66.535 124.928 65.0937" stroke="#060305" stroke-width="1.33333" stroke-miterlimit="10" stroke-linecap="round" stroke-linejoin="round"/>
<path d="M55.4391 64.9033C58.192 67.1352 60.945 69.3657 63.6966 71.5976" stroke="#060305" stroke-width="1.33333" stroke-miterlimit="10" stroke-linecap="round" stroke-linejoin="round"/>
<path d="M87.8232 105.029C94.3646 107.332 102.033 106.173 107.589 102.041" stroke="#060305" stroke-width="1.33333" stroke-miterlimit="10" stroke-linecap="round" stroke-linejoin="round"/>
<path d="M91.8474 30.1293C89.976 36.391 87.2217 42.3905 83.6877 47.899" stroke="#C14F4F" stroke-width="1.33333" stroke-miterlimit="10" stroke-linecap="round" stroke-linejoin="round"/>
<path d="M110.739 68.0602C110.739 66.9569 109.839 66.0639 108.729 66.0639C107.618 66.0639 106.72 66.9569 106.72 68.0602C106.72 69.1621 107.618 70.0565 108.729 70.0565C109.839 70.0565 110.739 69.1621 110.739 68.0602Z" fill="#060305"/>
<path d="M96.4236 67.2417C97.3051 71.8478 98.1853 76.4539 99.0681 81.06C97.6441 81.2716 96.2214 81.4846 94.7987 81.6975" stroke="#060305" stroke-width="1.33333" stroke-miterlimit="10" stroke-linecap="round" stroke-linejoin="round"/>
<path d="M86.9243 83.405C86.9551 84.8197 87.8861 86.1772 89.2003 86.7228C90.5172 87.2671 92.1421 86.969 93.175 85.9948" stroke="#060305" stroke-width="1.33333" stroke-miterlimit="10" stroke-linecap="round" stroke-linejoin="round"/>
<path d="M78.3346 68.128C80.3681 66.2742 84.1687 67.0847 85.2578 69.604" stroke="#060305" stroke-width="1.33333" stroke-miterlimit="10" stroke-linecap="round" stroke-linejoin="round"/>
<path d="M72.5957 59.6239C77.8617 60.3731 83.1265 61.1211 88.3925 61.8703" stroke="#060305" stroke-width="1.33333" stroke-miterlimit="10" stroke-linecap="round" stroke-linejoin="round"/>
<path d="M100.162 60.252C100.327 56.6241 102.847 53.2091 106.279 51.9607C109.714 50.7124 113.856 51.7052 116.338 54.3723" stroke="#060305" stroke-width="1.33333" stroke-miterlimit="10" stroke-linecap="round" stroke-linejoin="round"/>
</svg>
