<svg width="172" height="175" viewBox="0 0 172 175" fill="none" xmlns="http://www.w3.org/2000/svg">
<path d="M172 83.2672C172 37.2793 133.498 -6.15057e-06 86.0007 -6.15057e-06C38.5038 -6.15057e-06 0 37.2793 0 83.2672C0 129.255 38.5038 166.534 86.0007 166.534C133.498 166.534 172 129.255 172 83.2672Z" fill="#FDB044"/>
<path d="M62.6763 19.4963C66.5076 20.783 69.6719 23.8091 71.0477 27.5032C70.0697 24.3318 70.6391 20.7493 72.5521 18.0085" stroke="#FE5E04" stroke-width="1.33333" stroke-miterlimit="10" stroke-linecap="round" stroke-linejoin="round"/>
<path d="M120.916 57.7705C123.011 59.3114 125.801 59.9327 128.383 59.4294C130.963 58.9262 133.289 57.3087 134.605 55.1024" stroke="#FE5E04" stroke-width="1.33333" stroke-miterlimit="10" stroke-linecap="round" stroke-linejoin="round"/>
<path d="M52.8835 75.7415C52.0904 69.4766 51.296 63.2117 50.5016 56.9468C48.4144 57.3217 45.916 55.8132 45.3373 53.8364C44.7586 51.8584 45.9495 49.5483 47.9295 48.8077C45.0238 48.3939 42.0324 45.3795 42.5348 42.5778C43.0371 39.7774 46.1759 37.6943 49.0561 38.2546C47.4633 34.5528 47.6629 29.8055 50.022 26.5096C52.3797 23.215 56.5313 21.1994 60.6694 21.3446C64.8076 21.4873 68.801 23.7844 70.9096 27.2347C70.5801 23.2358 73.9734 18.9956 78.07 18.3977C82.1666 17.7984 86.4842 20.6624 87.3872 24.5782C87.343 21.9607 89.5654 19.4898 92.2487 19.1733C94.9306 18.8568 97.701 20.7376 98.3092 23.2877C99.8163 19.8725 103.06 17.3068 106.886 17.0345C110.709 16.7608 114.617 18.696 116.625 21.8583C118.634 25.0231 118.656 29.2711 116.678 32.4528C118.674 30.8029 121.861 30.5098 123.856 32.1623C125.849 33.8121 126.355 36.9148 124.981 39.0796C126.447 37.9797 128.931 38.6438 129.607 40.317C130.284 41.9889 128.925 44.1083 127.077 44.2653C129.953 44.2796 132.734 46.9775 133.238 49.7208C133.74 52.4615 132.355 55.3553 130.068 57.0428C127.78 58.7303 124.726 59.279 121.883 58.8626C121.275 65.5711 120.748 71.9968 120.14 78.7053L52.8835 75.7415" fill="#FE5E04"/>
<path d="M169.881 145.671C161.424 128.575 144.382 116.49 125.176 112.813C117.64 111.371 110.164 110.419 102.628 108.975C97.5698 113.236 90.8475 115.602 84.1426 115.479C77.4377 115.357 70.7811 112.93 65.89 108.486C57.4383 110.862 48.9879 113.237 40.5361 115.614C24.4136 120.146 10.9395 133.93 8.40088 149.995C31.5324 166.708 60.1135 175.415 88.9707 174.985C117.829 174.554 147.293 163.065 169.881 145.671" fill="#5ABE46"/>
<path d="M58.3372 111.377C62.9442 121.567 74.1918 128.586 85.6792 128.442C97.1666 128.298 108.221 120.998 112.554 110.695" stroke="#060305" stroke-width="1.33333" stroke-miterlimit="10" stroke-linecap="round" stroke-linejoin="round"/>
<path d="M86.976 121.554C88.3491 137.682 89.7222 153.81 91.0967 169.938" stroke="#060305" stroke-width="1.33333" stroke-miterlimit="10" stroke-linecap="round" stroke-linejoin="round"/>
<path d="M41.0451 115.951C40.2226 130.902 39.4001 145.852 38.5775 160.801" stroke="#060305" stroke-width="1.33333" stroke-miterlimit="10" stroke-linecap="round" stroke-linejoin="round"/>
<path d="M131.398 114.269C134.619 128.407 137.839 142.544 141.061 156.682" stroke="#060305" stroke-width="1.33333" stroke-miterlimit="10" stroke-linecap="round" stroke-linejoin="round"/>
<path d="M105.42 109.507C105.174 107.525 105.365 105.812 105.119 103.83C111.837 100.359 116.597 93.7358 117.366 86.4008C120.605 84.5188 123.482 81.922 125.172 78.6495C126.861 75.3783 127.251 71.3885 125.732 68.0394C124.213 64.6904 120.4 62.7162 116.623 62.8277C116.223 58.633 116.128 53.9285 115.727 49.7325C113.469 50.2383 110.788 48.5612 110.744 46.316C109.644 47.5132 107.696 47.8841 106.21 47.1811C104.726 46.4768 103.834 44.7582 104.135 43.1835C102.18 45.2977 98.8451 46.0942 96.0989 45.1019C93.3526 44.1109 91.3981 41.1497 91.3499 38.313C89.4905 42.0032 85.9123 44.8386 81.809 45.8736C77.7057 46.9087 72.812 46.6078 69.3303 44.2666C67.7884 50.6067 66.3348 56.5006 64.7943 62.842C59.425 60.7187 52.7188 62.7032 49.2933 67.2352C45.8665 71.7659 45.8665 78.3823 49.0857 83.0544C52.3048 87.7265 58.439 90.2596 64.1887 89.5216C64.1365 96.3883 64.0575 102.879 64.0039 109.746C68.8025 116.343 76.7291 120.709 85.0616 120.592C93.3955 120.475 100.821 116.236 105.42 109.507" fill="#FFC9C8"/>
<path d="M83.4446 77.7312C82.6703 81.1464 79.5101 81.2761 75.8261 80.4914C72.1408 79.708 69.3771 78.0905 70.1032 74.8932C70.7743 71.9384 74.0377 71.3509 77.723 72.1343C81.407 72.9177 84.1158 74.7765 83.4446 77.7312" fill="#FF99A1"/>
<path d="M115.612 75.198C116.436 78.6029 113.643 80.0413 109.971 80.874C106.298 81.7094 103.084 81.4045 102.312 78.2189C101.598 75.2733 104.28 73.3782 107.952 72.5429C111.624 71.7102 114.897 72.2537 115.612 75.198" fill="#FF99A1"/>
<path d="M117.064 62.6669C117.179 70.9073 117.296 79.1476 117.411 87.3879" stroke="#060305" stroke-width="1.33333" stroke-miterlimit="10" stroke-linecap="round" stroke-linejoin="round"/>
<path d="M117.719 72.7841C119.522 71.7439 121.326 70.7024 123.129 69.6634" stroke="#060305" stroke-width="1.33333" stroke-miterlimit="10" stroke-linecap="round" stroke-linejoin="round"/>
<path d="M53.8253 67.6776C56.5006 70.024 59.1745 72.3691 61.8484 74.7142" stroke="#060305" stroke-width="1.33333" stroke-miterlimit="10" stroke-linecap="round" stroke-linejoin="round"/>
<path d="M64.3849 89.6786C64.3315 88.6111 64.2795 87.5423 64.2275 86.4748" stroke="#060305" stroke-width="1.33333" stroke-miterlimit="10" stroke-linecap="round" stroke-linejoin="round"/>
<path d="M82.8405 105.917C90.2273 109.117 99.3073 108.323 105.983 103.895" stroke="#060305" stroke-width="1.33333" stroke-miterlimit="10" stroke-linecap="round" stroke-linejoin="round"/>
<path d="M81.9711 69.8813C81.9711 68.806 81.0722 67.9357 79.9616 67.9357C78.8524 67.9357 77.9521 68.806 77.9521 69.8813C77.9521 70.9553 78.8524 71.8269 79.9616 71.8269C81.0722 71.8269 81.9711 70.9553 81.9711 69.8813Z" fill="#060305"/>
<path d="M107.346 69.8813C107.346 68.806 106.446 67.9357 105.337 67.9357C104.225 67.9357 103.328 68.806 103.328 69.8813C103.328 70.9553 104.225 71.8269 105.337 71.8269C106.446 71.8269 107.346 70.9553 107.346 69.8813Z" fill="#060305"/>
<path d="M74.5226 60.4515C75.7712 59.1713 77.5342 58.3762 79.3494 58.2711C81.1646 58.1661 83.0133 58.7562 84.4092 59.8834" stroke="#060305" stroke-width="1.33333" stroke-miterlimit="10" stroke-linecap="round" stroke-linejoin="round"/>
<path d="M100.138 58.1622C103.184 58.0416 106.23 57.9209 109.277 57.8003" stroke="#060305" stroke-width="1.33333" stroke-miterlimit="10" stroke-linecap="round" stroke-linejoin="round"/>
<path d="M92.9333 69.6893C92.9092 72.6091 94.3024 75.5093 96.624 77.3719C95.1504 77.9284 93.575 78.4576 92.1041 79.0127" stroke="#060305" stroke-width="1.33333" stroke-miterlimit="10" stroke-linecap="round" stroke-linejoin="round"/>
<path d="M84.6155 82.6666C84.736 84.0376 85.6564 85.3165 86.9424 85.9002C88.2285 86.4852 89.832 86.3528 90.9975 85.5642" stroke="#060305" stroke-width="1.33333" stroke-miterlimit="10" stroke-linecap="round" stroke-linejoin="round"/>
<path d="M91.1087 37.3311C90.0866 42.8826 85.4782 47.6597 79.8276 49.0268" stroke="#FE5E04" stroke-width="1.33333" stroke-miterlimit="10" stroke-linecap="round" stroke-linejoin="round"/>
</svg>
