<svg width="410" height="239" viewBox="0 0 410 239" fill="none" xmlns="http://www.w3.org/2000/svg">
<path d="M42.933 113.766L225.162 66.6694L190.254 23.3496C185.763 17.7777 181.298 9.26389 186.415 4.23364C188.024 2.9138 190.004 2.12685 192.08 1.98584C194.157 1.84315 196.226 2.35294 198.001 3.44201C201.524 5.68053 204.53 8.64183 206.825 12.1305L232.904 46.3852C239.523 55.076 246.632 64.1575 256.715 68.3304C302.888 87.5014 326.303 139.069 367.08 168.279C360.243 174.784 349.005 170.898 340.554 166.784L321.857 157.658C332.419 172.538 339.531 181.082 349.573 195.469C351.989 203.387 353.99 211.426 355.569 219.551C348.37 215.205 343.305 211.525 333.668 205.391C324.452 194.841 315.895 183.735 308.043 172.133L315.436 199.681C309.659 201.189 304.079 196.851 300.086 192.425C292.091 183.582 285.84 173.308 281.662 162.141C287.775 158.57 295.027 160.531 301.823 159.288C307.386 165.945 314.354 174.452 318.946 180.83C324.242 189.044 330.375 196.688 337.248 203.639C339.318 204.115 341.491 203.809 343.35 202.782C345.21 201.754 346.623 200.075 347.322 198.07C335.868 180.247 329.658 173.401 316.489 155.976C319.579 155.375 322.366 153.734 324.392 151.326C326.418 148.92 327.559 145.89 327.625 142.745C326.606 136.576 322.394 131.409 316.557 129.17C310.779 127.074 304.596 126.348 298.49 127.048C295.025 126.656 291.954 124.641 290.217 121.617L203.73 13.23C201.727 10.2206 198.928 7.82762 195.643 6.31933C192.246 4.92218 188.357 6.49528 186.885 9.86109C186.126 12.7752 187.973 15.4917 190.01 17.9346C218.926 53.7794 251.043 94.2005 279.959 130.044C274.379 130.201 265.305 125.708 260.312 123.19C255.319 120.672 251.63 114.621 253.649 109.4L261.385 112C256.036 106.091 249.819 101.022 242.949 96.9786C244.592 100.372 247.098 103.406 248.513 106.758C249.315 108.466 249.529 110.389 249.119 112.23C248.709 114.069 247.701 115.722 246.251 116.927C242.631 119.363 237.983 116.825 233.911 114.603C224.342 109.773 213.309 108.71 202.993 111.622C199.839 112.522 196.146 115.625 197.962 118.323C206.066 112.551 217.073 112.816 226.67 115.515C236.267 118.216 245.083 123.029 254.593 125.889C273.042 131.506 292.864 129.427 311.893 132.449C316.412 133.169 321.492 134.61 323.436 138.75C324.112 140.648 324.194 142.707 323.675 144.653C323.156 146.599 322.056 148.341 320.524 149.648C317.291 152.188 313.421 153.79 309.34 154.279C296.506 156.594 283.242 154.972 270.465 157.568C253.704 160.904 239.025 171.326 222.358 175.253C200.628 180.37 177.822 174.122 155.564 176.245C136.507 177.995 118.558 185.716 100.069 190.688C88.6963 193.76 77.034 195.758 65.4042 197.776C64.4778 197.936 63.376 198.103 62.165 198.271C49.9295 199.971 37.1426 195.926 31.5739 184.899C19.2608 160.518 16.8231 122.308 42.933 113.766ZM317.62 148.725C319.412 148.872 319.37 145.518 317.759 144.888C316.147 144.258 314.202 144.694 312.389 144.661C310.256 144.509 308.281 143.483 306.933 141.825C305.585 140.167 304.981 138.024 305.266 135.905C305.508 134.623 303.27 134.15 302.48 135.216C301.888 136.406 301.843 137.796 302.358 139.021C302.793 141.77 304.087 144.311 306.053 146.28C308.209 147.645 310.719 148.35 313.27 148.306L317.62 148.725ZM256.618 168.152C256.23 169.411 256.267 170.763 256.723 171.997L259.25 182.615C259.85 186.971 261.878 191.006 265.016 194.086C266.336 195.097 268.573 195.653 269.538 194.266C269.829 193.737 270.006 193.153 270.057 192.552C271.39 182.182 272.708 171.888 274.015 161.669L260.62 165.469C258.975 165.775 257.528 166.745 256.618 168.152ZM302.464 163.757L307.477 169.821Z" fill="#060305"/>
</svg>
