<svg width="16" height="15" viewBox="0 0 16 15" fill="none" xmlns="http://www.w3.org/2000/svg">
<mask id="path-1-outside-1_178_79" maskUnits="userSpaceOnUse" x="-0.0751954" y="-1.31134e-06" width="16" height="15" fill="black">
<rect fill="white" x="-0.0751954" y="-1.31134e-06" width="16" height="15"/>
<path fill-rule="evenodd" clip-rule="evenodd" d="M13.9626 1.17011C14.1879 1.39627 14.1871 1.76222 13.961 1.98747L13.4462 2.50022L13.4592 2.51327L14.7674 3.82141C15.1579 4.21194 15.1579 4.8451 14.7674 5.23563L12.646 7.35695C12.2555 7.74747 11.6223 7.74747 11.2318 7.35695L9.92368 6.0488L9.90351 6.02863L8.18246 7.74277C8.5631 8.19676 8.84229 8.72934 8.99921 9.30447C9.19061 10.006 9.1933 10.746 9.00701 11.4489L9.00673 11.45C8.81893 12.1533 8.44944 12.7945 7.93534 13.3085C7.42135 13.8224 6.78109 14.1909 6.07928 14.3762C5.3772 14.5628 4.6386 14.5604 3.93775 14.3692C3.23674 14.178 2.59849 13.8047 2.08697 13.2873L2.08264 13.2829L2.08266 13.2829C1.33127 12.5065 0.915578 11.4639 0.924961 10.3819C0.934343 9.30003 1.36799 8.26496 2.13263 7.50179C3.53936 6.09541 5.71349 5.91536 7.31643 6.97386L13.1453 1.16846C13.3714 0.943204 13.7374 0.943941 13.9626 1.17011ZM7.1092 8.28341C5.94496 7.15877 4.09438 7.17491 2.94976 8.31941L2.94935 8.31981C2.40007 8.86795 2.08761 9.61255 2.08085 10.3919C2.0741 11.1703 2.37281 11.9194 2.91118 12.4768C3.27969 12.8488 3.73864 13.1167 4.24195 13.254C4.74624 13.3916 5.27759 13.3933 5.78274 13.259L5.78376 13.2587C6.28771 13.1257 6.74807 12.861 7.11804 12.4911C7.4879 12.1213 7.75425 11.6595 7.88978 11.1523C8.02378 10.6464 8.0218 10.1137 7.88404 9.60873C7.749 9.11379 7.48834 8.66321 7.12821 8.30099C7.12178 8.2953 7.11544 8.28944 7.1092 8.28341ZM12.646 3.32644L13.8481 4.52852L11.9389 6.43771L10.7368 5.23563L12.646 3.32644Z"/>
</mask>
<path fill-rule="evenodd" clip-rule="evenodd" d="M13.9626 1.17011C14.1879 1.39627 14.1871 1.76222 13.961 1.98747L13.4462 2.50022L13.4592 2.51327L14.7674 3.82141C15.1579 4.21194 15.1579 4.8451 14.7674 5.23563L12.646 7.35695C12.2555 7.74747 11.6223 7.74747 11.2318 7.35695L9.92368 6.0488L9.90351 6.02863L8.18246 7.74277C8.5631 8.19676 8.84229 8.72934 8.99921 9.30447C9.19061 10.006 9.1933 10.746 9.00701 11.4489L9.00673 11.45C8.81893 12.1533 8.44944 12.7945 7.93534 13.3085C7.42135 13.8224 6.78109 14.1909 6.07928 14.3762C5.3772 14.5628 4.6386 14.5604 3.93775 14.3692C3.23674 14.178 2.59849 13.8047 2.08697 13.2873L2.08264 13.2829L2.08266 13.2829C1.33127 12.5065 0.915578 11.4639 0.924961 10.3819C0.934343 9.30003 1.36799 8.26496 2.13263 7.50179C3.53936 6.09541 5.71349 5.91536 7.31643 6.97386L13.1453 1.16846C13.3714 0.943204 13.7374 0.943941 13.9626 1.17011ZM7.1092 8.28341C5.94496 7.15877 4.09438 7.17491 2.94976 8.31941L2.94935 8.31981C2.40007 8.86795 2.08761 9.61255 2.08085 10.3919C2.0741 11.1703 2.37281 11.9194 2.91118 12.4768C3.27969 12.8488 3.73864 13.1167 4.24195 13.254C4.74624 13.3916 5.27759 13.3933 5.78274 13.259L5.78376 13.2587C6.28771 13.1257 6.74807 12.861 7.11804 12.4911C7.4879 12.1213 7.75425 11.6595 7.88978 11.1523C8.02378 10.6464 8.0218 10.1137 7.88404 9.60873C7.749 9.11379 7.48834 8.66321 7.12821 8.30099C7.12178 8.2953 7.11544 8.28944 7.1092 8.28341ZM12.646 3.32644L13.8481 4.52852L11.9389 6.43771L10.7368 5.23563L12.646 3.32644Z" fill="#292929"/>
<path d="M13.961 1.98747L13.8551 1.88119L13.8551 1.88119L13.961 1.98747ZM13.9626 1.17011L13.8563 1.27596L13.8563 1.27596L13.9626 1.17011ZM13.4462 2.50022L13.3403 2.39394C13.3121 2.42205 13.2962 2.46023 13.2962 2.50007C13.2961 2.5399 13.3119 2.57811 13.3401 2.60628L13.4462 2.50022ZM13.4592 2.51327L13.3531 2.61933L13.3531 2.61933L13.4592 2.51327ZM14.7674 3.82141L14.8734 3.71535L14.8734 3.71535L14.7674 3.82141ZM14.7674 5.23563L14.8734 5.34169L14.7674 5.23563ZM12.646 7.35695L12.54 7.25088L12.646 7.35695ZM11.2318 7.35695L11.1258 7.46301L11.1258 7.46301L11.2318 7.35695ZM9.92368 6.0488L10.0297 5.94273L10.0297 5.94273L9.92368 6.0488ZM9.90351 6.02863L10.0096 5.92257C9.95108 5.86407 9.85627 5.86398 9.79766 5.92235L9.90351 6.02863ZM8.18246 7.74277L8.0766 7.63649C8.02143 7.69144 8.01748 7.77947 8.06751 7.83914L8.18246 7.74277ZM8.99921 9.30447L9.14392 9.26499L9.14392 9.26499L8.99921 9.30447ZM9.00701 11.4489L9.15196 11.4875L9.152 11.4874L9.00701 11.4489ZM9.00673 11.45L9.15165 11.4887L9.15168 11.4886L9.00673 11.45ZM7.93534 13.3085L7.82929 13.2024L7.82929 13.2024L7.93534 13.3085ZM6.07928 14.3762L6.04098 14.2312L6.04075 14.2312L6.07928 14.3762ZM3.93775 14.3692L3.97722 14.2245L3.97722 14.2245L3.93775 14.3692ZM2.08697 13.2873L2.19364 13.1819L2.19364 13.1819L2.08697 13.2873ZM2.08264 13.2829L1.97604 13.1774C1.9182 13.2358 1.91817 13.3299 1.97596 13.3884L2.08264 13.2829ZM2.08266 13.2829L2.18926 13.3884C2.24666 13.3305 2.24719 13.2372 2.19045 13.1786L2.08266 13.2829ZM0.924961 10.3819L1.07496 10.3832L0.924961 10.3819ZM2.13263 7.50179L2.2386 7.60796L2.23869 7.60787L2.13263 7.50179ZM7.31643 6.97386L7.23377 7.09903C7.29314 7.13823 7.37188 7.13034 7.42228 7.08014L7.31643 6.97386ZM13.1453 1.16846L13.2511 1.27474L13.2511 1.27474L13.1453 1.16846ZM2.94976 8.31941L3.05579 8.4255L3.05582 8.42548L2.94976 8.31941ZM7.1092 8.28341L7.00498 8.3913L7.00498 8.3913L7.1092 8.28341ZM2.94935 8.31981L3.05531 8.42598L3.05539 8.4259L2.94935 8.31981ZM2.08085 10.3919L1.93086 10.3906L1.93086 10.3906L2.08085 10.3919ZM2.91118 12.4768L2.80327 12.5811L2.80462 12.5824L2.91118 12.4768ZM4.24195 13.254L4.28143 13.1093L4.28143 13.1093L4.24195 13.254ZM5.78274 13.259L5.74445 13.1139L5.74419 13.114L5.78274 13.259ZM5.78376 13.2587L5.74548 13.1137L5.74547 13.1137L5.78376 13.2587ZM7.11804 12.4911L7.01198 12.385L7.01198 12.385L7.11804 12.4911ZM7.88978 11.1523L8.0347 11.191L8.03478 11.1907L7.88978 11.1523ZM7.88404 9.60873L7.73933 9.64821L7.73933 9.64821L7.88404 9.60873ZM7.12821 8.30099L7.23481 8.19501L7.22757 8.18862L7.12821 8.30099ZM13.8481 4.52852L13.9542 4.63459C13.9823 4.60645 13.9981 4.5683 13.9981 4.52852C13.9981 4.48874 13.9823 4.45058 13.9542 4.42245L13.8481 4.52852ZM12.646 3.32644L12.7521 3.22037C12.6935 3.16179 12.5985 3.16179 12.54 3.22037L12.646 3.32644ZM11.9389 6.43771L11.8329 6.54377C11.8914 6.60235 11.9864 6.60235 12.045 6.54377L11.9389 6.43771ZM10.7368 5.23563L10.6308 5.12956C10.6027 5.15769 10.5868 5.19584 10.5868 5.23563C10.5868 5.27541 10.6027 5.31356 10.6308 5.34169L10.7368 5.23563ZM14.0668 2.09375C14.3517 1.81004 14.3526 1.34911 14.0689 1.06425L13.8563 1.27596C14.0231 1.44342 14.0226 1.7144 13.8551 1.88119L14.0668 2.09375ZM13.552 2.6065L14.0668 2.09375L13.8551 1.88119L13.3403 2.39394L13.552 2.6065ZM13.5653 2.4072L13.5522 2.39415L13.3401 2.60628L13.3531 2.61933L13.5653 2.4072ZM14.8734 3.71535L13.5653 2.4072L13.3531 2.61933L14.6613 3.92748L14.8734 3.71535ZM14.8734 5.34169C15.3225 4.89259 15.3225 4.16445 14.8734 3.71535L14.6613 3.92748C14.9932 4.25942 14.9932 4.79761 14.6613 5.12956L14.8734 5.34169ZM12.7521 7.46301L14.8734 5.34169L14.6613 5.12956L12.54 7.25088L12.7521 7.46301ZM11.1258 7.46301C11.5749 7.91212 12.303 7.91212 12.7521 7.46301L12.54 7.25088C12.208 7.58283 11.6698 7.58283 11.3379 7.25088L11.1258 7.46301ZM9.81761 6.15487L11.1258 7.46301L11.3379 7.25088L10.0297 5.94273L9.81761 6.15487ZM9.79744 6.1347L9.81761 6.15487L10.0297 5.94273L10.0096 5.92257L9.79744 6.1347ZM8.28831 7.84905L10.0094 6.13491L9.79766 5.92235L8.0766 7.63649L8.28831 7.84905ZM9.14392 9.26499C8.9813 8.66895 8.69195 8.11697 8.2974 7.64639L8.06751 7.83914C8.43425 8.27655 8.70329 8.78973 8.8545 9.34395L9.14392 9.26499ZM9.152 11.4874C9.34506 10.7589 9.34228 9.99202 9.14392 9.26499L8.8545 9.34395C9.03895 10.02 9.04154 10.7331 8.86201 11.4105L9.152 11.4874ZM9.15168 11.4886L9.15196 11.4875L8.86206 11.4103L8.86178 11.4114L9.15168 11.4886ZM8.0414 13.4146C8.57419 12.8819 8.95707 12.2174 9.15165 11.4887L8.86181 11.4113C8.6808 12.0891 8.32468 12.7071 7.82929 13.2024L8.0414 13.4146ZM6.11758 14.5212C6.84508 14.3291 7.50871 13.9472 8.0414 13.4146L7.82929 13.2024C7.334 13.6976 6.71709 14.0526 6.04098 14.2312L6.11758 14.5212ZM3.89827 14.5139C4.62465 14.7121 5.39016 14.7146 6.11781 14.5212L6.04075 14.2312C5.36424 14.411 4.65255 14.4087 3.97722 14.2245L3.89827 14.5139ZM1.9803 13.3928C2.51032 13.9289 3.17174 14.3157 3.89827 14.5139L3.97722 14.2245C3.30174 14.0402 2.68665 13.6806 2.19364 13.1819L1.9803 13.3928ZM1.97596 13.3884L1.9803 13.3928L2.19364 13.1819L2.18931 13.1775L1.97596 13.3884ZM1.97606 13.1774L1.97604 13.1774L2.18923 13.3885L2.18926 13.3884L1.97606 13.1774ZM0.774967 10.3806C0.765243 11.5019 1.19602 12.5824 1.97487 13.3872L2.19045 13.1786C1.46653 12.4305 1.06591 11.4259 1.07496 10.3832L0.774967 10.3806ZM2.02667 7.39562C1.23406 8.1867 0.784689 9.25947 0.774967 10.3806L1.07496 10.3832C1.084 9.34059 1.50191 8.34322 2.2386 7.60796L2.02667 7.39562ZM7.39909 6.84869C5.73775 5.75163 3.48459 5.93806 2.02658 7.39571L2.23869 7.60787C3.59414 6.25275 5.68923 6.07909 7.23377 7.09903L7.39909 6.84869ZM13.0394 1.06218L7.21058 6.86758L7.42228 7.08014L13.2511 1.27474L13.0394 1.06218ZM14.0689 1.06425C13.7852 0.779392 13.3243 0.778464 13.0394 1.06218L13.2511 1.27474C13.4186 1.10794 13.6895 1.10849 13.8563 1.27596L14.0689 1.06425ZM3.05582 8.42548C4.14259 7.33883 5.89961 7.32351 7.00498 8.3913L7.21341 8.17553C5.99031 6.99402 4.04617 7.01099 2.8437 8.21333L3.05582 8.42548ZM3.05539 8.4259L3.05579 8.4255L2.84372 8.21331L2.84332 8.21371L3.05539 8.4259ZM2.23084 10.3932C2.23726 9.65311 2.53399 8.94622 3.05531 8.42598L2.8434 8.21363C2.26616 8.78968 1.93796 9.57198 1.93086 10.3906L2.23084 10.3932ZM3.01908 12.3726C2.5081 11.8435 2.22443 11.1324 2.23084 10.3932L1.93086 10.3906C1.92377 11.2082 2.23751 11.9952 2.80328 12.581L3.01908 12.3726ZM4.28143 13.1093C3.80359 12.979 3.36776 12.7246 3.01775 12.3713L2.80462 12.5824C3.19162 12.9731 3.67369 13.2545 4.20248 13.3987L4.28143 13.1093ZM5.74419 13.114C5.26462 13.2415 4.76018 13.2399 4.28143 13.1093L4.20248 13.3987C4.73229 13.5433 5.29057 13.5451 5.82128 13.4039L5.74419 13.114ZM5.74547 13.1137L5.74445 13.1139L5.82102 13.404L5.82205 13.4037L5.74547 13.1137ZM7.01198 12.385C6.66072 12.7362 6.22373 12.9874 5.74548 13.1137L5.82204 13.4037C6.35169 13.2639 6.83543 12.9858 7.2241 12.5971L7.01198 12.385ZM7.74487 11.1136C7.61613 11.5953 7.36315 12.0339 7.01198 12.385L7.2241 12.5971C7.61265 12.2087 7.89238 11.7236 8.0347 11.191L7.74487 11.1136ZM7.73933 9.64821C7.87013 10.1277 7.87202 10.6335 7.74478 11.1139L8.03478 11.1907C8.17554 10.6592 8.17346 10.0997 8.02875 9.56925L7.73933 9.64821ZM7.02184 8.40675C7.36363 8.75052 7.61111 9.17825 7.73933 9.64821L8.02875 9.56925C7.8869 9.04932 7.61304 8.57589 7.23459 8.19523L7.02184 8.40675ZM7.00498 8.3913C7.01281 8.39886 7.02077 8.40621 7.02885 8.41336L7.22757 8.18862C7.22279 8.18438 7.21807 8.18002 7.21341 8.17553L7.00498 8.3913ZM13.9542 4.42245L12.7521 3.22037L12.54 3.4325L13.7421 4.63459L13.9542 4.42245ZM12.045 6.54377L13.9542 4.63459L13.7421 4.42245L11.8329 6.33164L12.045 6.54377ZM10.6308 5.34169L11.8329 6.54377L12.045 6.33164L10.8429 5.12956L10.6308 5.34169ZM12.54 3.22037L10.6308 5.12956L10.8429 5.34169L12.7521 3.4325L12.54 3.22037Z" fill="#292929" mask="url(#path-1-outside-1_178_79)"/>
</svg>
