<svg width="16" height="15" viewBox="0 0 16 15" fill="none" xmlns="http://www.w3.org/2000/svg">
<mask id="path-1-outside-1_175_39" maskUnits="userSpaceOnUse" x="-0.0751954" y="-0.183656" width="16" height="15" fill="black">
<rect fill="white" x="-0.0751954" y="-0.183656" width="16" height="15"/>
<path fill-rule="evenodd" clip-rule="evenodd" d="M13.9626 0.98645C14.1879 1.21261 14.1871 1.57856 13.961 1.80382L13.4462 2.31656L13.4592 2.32961L14.7674 3.63776C15.1579 4.02828 15.1579 4.66145 14.7674 5.05197L12.646 7.17329C12.2555 7.56382 11.6223 7.56382 11.2318 7.17329L9.92368 5.86514L9.90351 5.84498L8.18246 7.55911C8.5631 8.01311 8.84229 8.54568 8.99921 9.12082C9.19061 9.82236 9.1933 10.5624 9.00701 11.2653L9.00673 11.2663C8.81893 11.9696 8.44944 12.6108 7.93534 13.1248C7.42135 13.6388 6.78109 14.0072 6.07928 14.1926C5.3772 14.3792 4.6386 14.3767 3.93775 14.1856C3.23674 13.9943 2.59849 13.6211 2.08697 13.1037L2.08264 13.0993L2.08266 13.0993C1.33127 12.3228 0.915578 11.2802 0.924961 10.1983C0.934343 9.11638 1.36799 8.08131 2.13263 7.31814C3.53936 5.91175 5.71349 5.73171 7.31643 6.7902L13.1453 0.984805C13.3714 0.75955 13.7374 0.760286 13.9626 0.98645ZM7.1092 8.09976C5.94496 6.97511 4.09438 6.99125 2.94976 8.13575L2.94935 8.13615C2.40007 8.68429 2.08761 9.42889 2.08085 10.2083C2.0741 10.9867 2.37281 11.7357 2.91118 12.2932C3.27969 12.6652 3.73864 12.9331 4.24195 13.0704C4.74624 13.2079 5.27759 13.2096 5.78274 13.0753L5.78376 13.075C6.28771 12.942 6.74807 12.6773 7.11804 12.3074C7.4879 11.9376 7.75425 11.4758 7.88978 10.9686C8.02378 10.4627 8.0218 9.93 7.88404 9.42507C7.749 8.93013 7.48834 8.47955 7.12821 8.11733C7.12178 8.11164 7.11544 8.10578 7.1092 8.09976ZM12.646 3.14278L13.8481 4.34486L11.9389 6.25405L10.7368 5.05197L12.646 3.14278Z"/>
</mask>
<path fill-rule="evenodd" clip-rule="evenodd" d="M13.9626 0.98645C14.1879 1.21261 14.1871 1.57856 13.961 1.80382L13.4462 2.31656L13.4592 2.32961L14.7674 3.63776C15.1579 4.02828 15.1579 4.66145 14.7674 5.05197L12.646 7.17329C12.2555 7.56382 11.6223 7.56382 11.2318 7.17329L9.92368 5.86514L9.90351 5.84498L8.18246 7.55911C8.5631 8.01311 8.84229 8.54568 8.99921 9.12082C9.19061 9.82236 9.1933 10.5624 9.00701 11.2653L9.00673 11.2663C8.81893 11.9696 8.44944 12.6108 7.93534 13.1248C7.42135 13.6388 6.78109 14.0072 6.07928 14.1926C5.3772 14.3792 4.6386 14.3767 3.93775 14.1856C3.23674 13.9943 2.59849 13.6211 2.08697 13.1037L2.08264 13.0993L2.08266 13.0993C1.33127 12.3228 0.915578 11.2802 0.924961 10.1983C0.934343 9.11638 1.36799 8.08131 2.13263 7.31814C3.53936 5.91175 5.71349 5.73171 7.31643 6.7902L13.1453 0.984805C13.3714 0.75955 13.7374 0.760286 13.9626 0.98645ZM7.1092 8.09976C5.94496 6.97511 4.09438 6.99125 2.94976 8.13575L2.94935 8.13615C2.40007 8.68429 2.08761 9.42889 2.08085 10.2083C2.0741 10.9867 2.37281 11.7357 2.91118 12.2932C3.27969 12.6652 3.73864 12.9331 4.24195 13.0704C4.74624 13.2079 5.27759 13.2096 5.78274 13.0753L5.78376 13.075C6.28771 12.942 6.74807 12.6773 7.11804 12.3074C7.4879 11.9376 7.75425 11.4758 7.88978 10.9686C8.02378 10.4627 8.0218 9.93 7.88404 9.42507C7.749 8.93013 7.48834 8.47955 7.12821 8.11733C7.12178 8.11164 7.11544 8.10578 7.1092 8.09976ZM12.646 3.14278L13.8481 4.34486L11.9389 6.25405L10.7368 5.05197L12.646 3.14278Z" fill="white"/>
<path d="M13.961 1.80382L13.8551 1.69754L13.8551 1.69754L13.961 1.80382ZM13.9626 0.98645L13.8563 1.0923L13.8563 1.0923L13.9626 0.98645ZM13.4462 2.31656L13.3403 2.21028C13.3121 2.23839 13.2962 2.27658 13.2962 2.31641C13.2961 2.35625 13.3119 2.39446 13.3401 2.42263L13.4462 2.31656ZM13.4592 2.32961L13.3531 2.43568L13.3531 2.43568L13.4592 2.32961ZM14.7674 3.63776L14.8734 3.53169L14.8734 3.53169L14.7674 3.63776ZM14.7674 5.05197L14.8734 5.15804L14.7674 5.05197ZM12.646 7.17329L12.54 7.06723L12.646 7.17329ZM11.2318 7.17329L11.1258 7.27936L11.1258 7.27936L11.2318 7.17329ZM9.92368 5.86514L10.0297 5.75908L10.0297 5.75908L9.92368 5.86514ZM9.90351 5.84498L10.0096 5.73891C9.95108 5.68042 9.85627 5.68032 9.79766 5.7387L9.90351 5.84498ZM8.18246 7.55911L8.0766 7.45283C8.02143 7.50778 8.01748 7.59581 8.06751 7.65549L8.18246 7.55911ZM8.99921 9.12082L9.14392 9.08134L9.14392 9.08134L8.99921 9.12082ZM9.00701 11.2653L9.15196 11.3039L9.152 11.3037L9.00701 11.2653ZM9.00673 11.2663L9.15165 11.305L9.15168 11.3049L9.00673 11.2663ZM7.93534 13.1248L7.82929 13.0188L7.82929 13.0188L7.93534 13.1248ZM6.07928 14.1926L6.04098 14.0475L6.04075 14.0476L6.07928 14.1926ZM3.93775 14.1856L3.97722 14.0408L3.97722 14.0408L3.93775 14.1856ZM2.08697 13.1037L2.19364 12.9982L2.19364 12.9982L2.08697 13.1037ZM2.08264 13.0993L1.97604 12.9937C1.9182 13.0522 1.91817 13.1463 1.97596 13.2047L2.08264 13.0993ZM2.08266 13.0993L2.18926 13.2048C2.24666 13.1468 2.24719 13.0536 2.19045 12.9949L2.08266 13.0993ZM0.924961 10.1983L1.07496 10.1996L0.924961 10.1983ZM2.13263 7.31814L2.2386 7.42431L2.23869 7.42422L2.13263 7.31814ZM7.31643 6.7902L7.23377 6.91537C7.29314 6.95458 7.37188 6.94669 7.42228 6.89648L7.31643 6.7902ZM13.1453 0.984805L13.2511 1.09108L13.2511 1.09108L13.1453 0.984805ZM2.94976 8.13575L3.05579 8.24185L3.05582 8.24182L2.94976 8.13575ZM7.1092 8.09976L7.00498 8.20764L7.00498 8.20764L7.1092 8.09976ZM2.94935 8.13615L3.05531 8.24233L3.05539 8.24225L2.94935 8.13615ZM2.08085 10.2083L1.93086 10.207L1.93086 10.207L2.08085 10.2083ZM2.91118 12.2932L2.80327 12.3974L2.80462 12.3988L2.91118 12.2932ZM4.24195 13.0704L4.28143 12.9257L4.28143 12.9257L4.24195 13.0704ZM5.78274 13.0753L5.74445 12.9303L5.74419 12.9303L5.78274 13.0753ZM5.78376 13.075L5.74548 12.93L5.74547 12.93L5.78376 13.075ZM7.11804 12.3074L7.01198 12.2013L7.01198 12.2013L7.11804 12.3074ZM7.88978 10.9686L8.0347 11.0074L8.03478 11.007L7.88978 10.9686ZM7.88404 9.42507L7.73933 9.46455L7.73933 9.46455L7.88404 9.42507ZM7.12821 8.11733L7.23481 8.01136L7.22757 8.00496L7.12821 8.11733ZM13.8481 4.34486L13.9542 4.45093C13.9823 4.4228 13.9981 4.38465 13.9981 4.34486C13.9981 4.30508 13.9823 4.26693 13.9542 4.2388L13.8481 4.34486ZM12.646 3.14278L12.7521 3.03672C12.6935 2.97814 12.5985 2.97814 12.54 3.03672L12.646 3.14278ZM11.9389 6.25405L11.8329 6.36012C11.8914 6.4187 11.9864 6.4187 12.045 6.36012L11.9389 6.25405ZM10.7368 5.05197L10.6308 4.94591C10.6027 4.97404 10.5868 5.01219 10.5868 5.05197C10.5868 5.09175 10.6027 5.12991 10.6308 5.15804L10.7368 5.05197ZM14.0668 1.9101C14.3517 1.62638 14.3526 1.16546 14.0689 0.880598L13.8563 1.0923C14.0231 1.25977 14.0226 1.53074 13.8551 1.69754L14.0668 1.9101ZM13.552 2.42284L14.0668 1.9101L13.8551 1.69754L13.3403 2.21028L13.552 2.42284ZM13.5653 2.22354L13.5522 2.2105L13.3401 2.42263L13.3531 2.43568L13.5653 2.22354ZM14.8734 3.53169L13.5653 2.22354L13.3531 2.43568L14.6613 3.74382L14.8734 3.53169ZM14.8734 5.15804C15.3225 4.70893 15.3225 3.98079 14.8734 3.53169L14.6613 3.74382C14.9932 4.07577 14.9932 4.61396 14.6613 4.94591L14.8734 5.15804ZM12.7521 7.27936L14.8734 5.15804L14.6613 4.94591L12.54 7.06723L12.7521 7.27936ZM11.1258 7.27936C11.5749 7.72846 12.303 7.72846 12.7521 7.27936L12.54 7.06723C12.208 7.39917 11.6698 7.39917 11.3379 7.06723L11.1258 7.27936ZM9.81761 5.97121L11.1258 7.27936L11.3379 7.06723L10.0297 5.75908L9.81761 5.97121ZM9.79744 5.95104L9.81761 5.97121L10.0297 5.75908L10.0096 5.73891L9.79744 5.95104ZM8.28831 7.66539L10.0094 5.95126L9.79766 5.7387L8.0766 7.45283L8.28831 7.66539ZM9.14392 9.08134C8.9813 8.4853 8.69195 7.93332 8.2974 7.46274L8.06751 7.65549C8.43425 8.0929 8.70329 8.60607 8.8545 9.1603L9.14392 9.08134ZM9.152 11.3037C9.34506 10.5752 9.34228 9.80837 9.14392 9.08134L8.8545 9.1603C9.03895 9.83635 9.04154 10.5495 8.86201 11.2268L9.152 11.3037ZM9.15168 11.3049L9.15196 11.3039L8.86206 11.2267L8.86178 11.2277L9.15168 11.3049ZM8.0414 13.2309C8.57419 12.6982 8.95707 12.0337 9.15165 11.305L8.86181 11.2276C8.6808 11.9055 8.32468 12.5235 7.82929 13.0188L8.0414 13.2309ZM6.11758 14.3376C6.84508 14.1455 7.50871 13.7635 8.0414 13.2309L7.82929 13.0188C7.334 13.514 6.71709 13.869 6.04098 14.0475L6.11758 14.3376ZM3.89827 14.3303C4.62465 14.5284 5.39016 14.5309 6.11781 14.3375L6.04075 14.0476C5.36424 14.2274 4.65255 14.2251 3.97722 14.0408L3.89827 14.3303ZM1.9803 13.2091C2.51032 13.7453 3.17174 14.1321 3.89827 14.3303L3.97722 14.0408C3.30174 13.8566 2.68665 13.4969 2.19364 12.9982L1.9803 13.2091ZM1.97596 13.2047L1.9803 13.2091L2.19364 12.9982L2.18931 12.9938L1.97596 13.2047ZM1.97606 12.9937L1.97604 12.9937L2.18923 13.2048L2.18926 13.2048L1.97606 12.9937ZM0.774967 10.197C0.765243 11.3182 1.19602 12.3987 1.97487 13.2036L2.19045 12.9949C1.46653 12.2469 1.06591 11.2423 1.07496 10.1996L0.774967 10.197ZM2.02667 7.21197C1.23406 8.00304 0.784689 9.07582 0.774967 10.197L1.07496 10.1996C1.084 9.15694 1.50191 8.15957 2.2386 7.42431L2.02667 7.21197ZM7.39909 6.66503C5.73775 5.56797 3.48459 5.75441 2.02658 7.21206L2.23869 7.42422C3.59414 6.0691 5.68923 5.89544 7.23377 6.91537L7.39909 6.66503ZM13.0394 0.878525L7.21058 6.68392L7.42228 6.89648L13.2511 1.09108L13.0394 0.878525ZM14.0689 0.880598C13.7852 0.595738 13.3243 0.59481 13.0394 0.878525L13.2511 1.09108C13.4186 0.924289 13.6895 0.924835 13.8563 1.0923L14.0689 0.880598ZM3.05582 8.24182C4.14259 7.15517 5.89961 7.13986 7.00498 8.20764L7.21341 7.99187C5.99031 6.81036 4.04617 6.82734 2.8437 8.02968L3.05582 8.24182ZM3.05539 8.24225L3.05579 8.24185L2.84372 8.02965L2.84332 8.03005L3.05539 8.24225ZM2.23084 10.2096C2.23726 9.46946 2.53399 8.76257 3.05531 8.24233L2.8434 8.02998C2.26616 8.60602 1.93796 9.38832 1.93086 10.207L2.23084 10.2096ZM3.01908 12.189C2.5081 11.6599 2.22443 10.9487 2.23084 10.2096L1.93086 10.207C1.92377 11.0246 2.23751 11.8115 2.80328 12.3974L3.01908 12.189ZM4.28143 12.9257C3.80359 12.7953 3.36776 12.541 3.01775 12.1876L2.80462 12.3988C3.19162 12.7894 3.67369 13.0708 4.20248 13.2151L4.28143 12.9257ZM5.74419 12.9303C5.26462 13.0579 4.76018 13.0563 4.28143 12.9257L4.20248 13.2151C4.73229 13.3596 5.29057 13.3614 5.82128 13.2203L5.74419 12.9303ZM5.74547 12.93L5.74445 12.9303L5.82102 13.2203L5.82205 13.2201L5.74547 12.93ZM7.01198 12.2013C6.66072 12.5525 6.22373 12.8038 5.74548 12.93L5.82204 13.2201C6.35169 13.0803 6.83543 12.8021 7.2241 12.4135L7.01198 12.2013ZM7.74487 10.9299C7.61613 11.4117 7.36315 11.8502 7.01198 12.2013L7.2241 12.4135C7.61265 12.025 7.89238 11.54 8.0347 11.0074L7.74487 10.9299ZM7.73933 9.46455C7.87013 9.944 7.87202 10.4498 7.74478 10.9302L8.03478 11.007C8.17554 10.4756 8.17346 9.916 8.02875 9.38559L7.73933 9.46455ZM7.02184 8.22309C7.36363 8.56687 7.61111 8.9946 7.73933 9.46455L8.02875 9.38559C7.8869 8.86566 7.61304 8.39224 7.23459 8.01158L7.02184 8.22309ZM7.00498 8.20764C7.01281 8.2152 7.02077 8.22256 7.02885 8.22971L7.22757 8.00496C7.22279 8.00073 7.21807 7.99637 7.21341 7.99187L7.00498 8.20764ZM13.9542 4.2388L12.7521 3.03672L12.54 3.24885L13.7421 4.45093L13.9542 4.2388ZM12.045 6.36012L13.9542 4.45093L13.7421 4.2388L11.8329 6.14799L12.045 6.36012ZM10.6308 5.15804L11.8329 6.36012L12.045 6.14799L10.8429 4.94591L10.6308 5.15804ZM12.54 3.03672L10.6308 4.94591L10.8429 5.15804L12.7521 3.24885L12.54 3.03672Z" fill="white" mask="url(#path-1-outside-1_175_39)"/>
</svg>
