<svg width="16" height="15" viewBox="0 0 16 15" fill="none" xmlns="http://www.w3.org/2000/svg">
<path d="M8 0.108655C7.21689 0.108655 6.45106 0.328634 5.79934 0.741185C5.14757 1.15376 4.63894 1.74059 4.33842 2.42793C4.03787 3.11534 3.95915 3.87199 4.11244 4.60203C4.26571 5.33203 4.64392 6.002 5.19856 6.52744C5.75315 7.05285 6.45927 7.41023 7.22743 7.55499C7.99557 7.69974 8.79181 7.62548 9.51561 7.34145C10.2394 7.05741 10.8588 6.57615 11.2948 5.95793C11.7309 5.33965 11.9639 4.6123 11.9639 3.86787C11.9639 2.86951 11.5452 1.91293 10.8014 1.20829C10.0578 0.503782 9.05002 0.108655 8 0.108655ZM8 6.00339C7.55247 6.00339 7.11529 5.87765 6.74378 5.64248C6.37231 5.40733 6.08342 5.07353 5.913 4.68375C5.7426 4.29403 5.6981 3.86545 5.7849 3.45202C5.87171 3.03856 6.08611 2.65818 6.40166 2.35923C6.71726 2.06025 7.11984 1.85621 7.55868 1.77352C7.99753 1.69082 8.45237 1.73329 8.86553 1.89542C9.27867 2.05754 9.63113 2.33183 9.87881 2.68299C10.1264 3.0341 10.2583 3.44643 10.2583 3.86787C10.2583 4.43289 10.0214 4.97566 9.59834 5.3765C9.17509 5.77747 8.60022 6.00339 8 6.00339ZM15.075 13.4468C15.075 12.0576 14.4924 10.7262 13.4569 9.74518C12.4216 8.76431 11.0181 8.21392 9.55556 8.21392H6.44444C4.98187 8.21392 3.57843 8.76431 2.54306 9.74518C1.50755 10.7262 0.925 12.0576 0.925 13.4468C0.925 13.8952 1.28847 14.2587 1.73684 14.2587H1.81871C2.26708 14.2587 2.63056 13.8952 2.63056 13.4468C2.63056 12.4909 3.03133 11.5733 3.74617 10.8961C4.46114 10.2188 5.43167 9.8376 6.44444 9.8376H9.55556C10.5683 9.8376 11.5389 10.2188 12.2538 10.8961C12.9687 11.5733 13.3694 12.4909 13.3694 13.4468C13.3694 13.8952 13.7329 14.2587 14.1813 14.2587H14.2632C14.7115 14.2587 15.075 13.8952 15.075 13.4468Z" fill="#69B694" stroke="#69B694" stroke-width="0.15"/>
</svg>
