<svg width="14" height="14" viewBox="0 0 14 14" fill="none" xmlns="http://www.w3.org/2000/svg">
<path fill-rule="evenodd" clip-rule="evenodd" d="M10.4645 1.8641C10.7131 1.49552 10.6175 0.990551 10.2228 0.785873C9.01796 0.161031 7.65156 -0.102785 6.28982 0.0361348C4.65991 0.202414 3.13996 0.935142 1.99467 2.10671C0.849386 3.27828 0.15133 4.81447 0.0220725 6.44773C-0.107185 8.081 0.340545 9.70786 1.28729 11.045C2.23404 12.3821 3.61981 13.3448 5.20328 13.7654C6.78674 14.186 8.46757 14.0378 9.95304 13.3467C11.4385 12.6556 12.6345 11.4653 13.3327 9.98321C13.9161 8.74494 14.1211 7.36848 13.932 6.02448C13.87 5.58423 13.4254 5.32635 12.9952 5.43842C12.565 5.55049 12.3135 5.99048 12.3603 6.4326C12.4636 7.40865 12.2989 8.39996 11.8763 9.29707C11.3386 10.4383 10.4177 11.3548 9.2739 11.887C8.13009 12.4191 6.83585 12.5332 5.61658 12.2094C4.39731 11.8855 3.33027 11.1442 2.60127 10.1146C1.87228 9.08505 1.52753 7.83236 1.62705 6.57475C1.72658 5.31714 2.26409 4.13428 3.14596 3.23217C4.02783 2.33006 5.19819 1.76586 6.45322 1.63782C7.43978 1.53718 8.42952 1.71106 9.31584 2.13272C9.71731 2.32372 10.2158 2.23268 10.4645 1.8641ZM13.6433 2.51676C13.9288 2.16159 13.8722 1.6423 13.517 1.3569C13.1619 1.07149 12.6426 1.12805 12.3572 1.48322L7.2694 7.81465L5.0416 5.87744C4.69778 5.57846 4.17668 5.61482 3.8777 5.95864C3.57873 6.30247 3.61508 6.82356 3.95891 7.12254L6.83391 9.62254C7.00321 9.76976 7.22517 9.84168 7.44864 9.82172C7.67211 9.80176 7.87781 9.69165 8.01835 9.51676L13.6433 2.51676Z" fill="white"/>
</svg>
