<svg width="14" height="15" viewBox="0 0 14 15" fill="none" xmlns="http://www.w3.org/2000/svg">
<path fill-rule="evenodd" clip-rule="evenodd" d="M10.4642 2.04775C10.7128 1.67917 10.6172 1.1742 10.2226 0.969519C9.01771 0.344677 7.65131 0.0808604 6.28958 0.219781C4.65967 0.38606 3.13971 1.11879 1.99443 2.29036C0.849142 3.46193 0.151086 4.99811 0.0218283 6.63138C-0.10743 8.26464 0.340301 9.8915 1.28705 11.2286C2.23379 12.5658 3.61956 13.5285 5.20303 13.9491C6.7865 14.3696 8.46733 14.2215 9.9528 13.5304C11.4383 12.8393 12.6343 11.649 13.3325 10.1669C13.9158 8.92858 14.1209 7.55213 13.9317 6.20813C13.8698 5.76788 13.4252 5.51 12.995 5.62207C12.5647 5.73413 12.3133 6.17412 12.3601 6.61624C12.4634 7.5923 12.2987 8.5836 11.876 9.48071C11.3384 10.622 10.4175 11.5385 9.27366 12.0706C8.12984 12.6028 6.8356 12.7169 5.61634 12.393C4.39707 12.0692 3.33002 11.3279 2.60103 10.2983C1.87203 9.26869 1.52728 8.01601 1.62681 6.7584C1.72634 5.50078 2.26384 4.31792 3.14571 3.41581C4.02758 2.5137 5.19794 1.9495 6.45298 1.82147C7.43953 1.72082 8.42927 1.89471 9.31559 2.31637C9.71706 2.50737 10.2156 2.41633 10.4642 2.04775ZM13.6431 2.70041C13.9285 2.34524 13.872 1.82595 13.5168 1.54054C13.1616 1.25514 12.6423 1.31169 12.3569 1.66686L7.26915 7.9983L5.04136 6.06109C4.69753 5.76211 4.17644 5.79846 3.87746 6.14229C3.57848 6.48611 3.61484 7.00721 3.95866 7.30619L6.83366 9.80619C7.00296 9.95341 7.22492 10.0253 7.44839 10.0054C7.67186 9.98541 7.87757 9.8753 8.0181 9.70041L13.6431 2.70041Z" fill="#D1976C"/>
</svg>
