<svg width="16" height="16" viewBox="0 0 16 16" fill="none" xmlns="http://www.w3.org/2000/svg">
<path d="M8 0.925C7.21689 0.925 6.45106 1.14498 5.79934 1.55753C5.14757 1.97011 4.63894 2.55693 4.33842 3.24428C4.03787 3.93168 3.95915 4.68834 4.11244 5.41838C4.26571 6.14838 4.64392 6.81834 5.19856 7.34379C5.75315 7.86919 6.45927 8.22658 7.22743 8.37133C7.99557 8.51608 8.79181 8.44182 9.51561 8.15779C10.2394 7.87375 10.8588 7.3925 11.2948 6.77428C11.7309 6.156 11.9639 5.42864 11.9639 4.68421C11.9639 3.68586 11.5452 2.72927 10.8014 2.02463C10.0578 1.32013 9.05002 0.925 8 0.925ZM8 6.81974C7.55247 6.81974 7.11529 6.69399 6.74378 6.45882C6.37231 6.22368 6.08342 5.88987 5.913 5.5001C5.7426 5.11038 5.6981 4.6818 5.7849 4.26837C5.87171 3.8549 6.08611 3.47453 6.40166 3.17558C6.71726 2.87659 7.11984 2.67256 7.55868 2.58986C7.99753 2.50716 8.45237 2.54964 8.86553 2.71177C9.27867 2.87389 9.63113 3.14817 9.87881 3.49934C10.1264 3.85044 10.2583 4.26278 10.2583 4.68421C10.2583 5.24924 10.0214 5.792 9.59834 6.19284C9.17509 6.59381 8.60022 6.81974 8 6.81974ZM15.075 14.2632C15.075 12.874 14.4924 11.5425 13.4569 10.5615C12.4216 9.58065 11.0181 9.03026 9.55556 9.03026H6.44444C4.98187 9.03026 3.57843 9.58065 2.54306 10.5615C1.50755 11.5425 0.925 12.874 0.925 14.2632C0.925 14.7115 1.28847 15.075 1.73684 15.075H1.81871C2.26708 15.075 2.63056 14.7115 2.63056 14.2632C2.63056 13.3073 3.03133 12.3897 3.74617 11.7125C4.46114 11.0351 5.43167 10.6539 6.44444 10.6539H9.55556C10.5683 10.6539 11.5389 11.0351 12.2538 11.7125C12.9687 12.3897 13.3694 13.3073 13.3694 14.2632C13.3694 14.7115 13.7329 15.075 14.1813 15.075H14.2632C14.7115 15.075 15.075 14.7115 15.075 14.2632Z" fill="white" stroke="white" stroke-width="0.15"/>
</svg>
