<svg width="14" height="15" viewBox="0 0 14 15" fill="none" xmlns="http://www.w3.org/2000/svg">
<path fill-rule="evenodd" clip-rule="evenodd" d="M6.8953 1.00081C6.88754 0.547558 6.51227 0.181493 6.06321 0.243468C5.05269 0.382932 4.08078 0.74605 3.21734 1.31126C2.12289 2.02769 1.24597 3.04048 0.684877 4.23611C0.123784 5.43174 -0.0992985 6.76294 0.0406378 8.08048C0.180574 9.39801 0.677998 10.6498 1.47715 11.6955C2.27629 12.7412 3.34557 13.5395 4.56512 14.0009C5.78466 14.4623 7.10626 14.5686 8.38176 14.3078C9.65726 14.047 10.8362 13.4294 11.7865 12.5243C12.5448 11.8021 13.1336 10.9195 13.5139 9.94259C13.6743 9.5303 13.4184 9.08851 12.992 8.9705C12.5599 8.85091 12.1185 9.11008 11.941 9.52178C11.6483 10.2009 11.2223 10.8153 10.6864 11.3257C9.95469 12.0226 9.04688 12.4982 8.06475 12.699C7.08262 12.8998 6.06499 12.818 5.12594 12.4627C4.18689 12.1074 3.36354 11.4928 2.7482 10.6876C2.13285 9.88236 1.74984 8.91848 1.64209 7.90398C1.53434 6.88947 1.70611 5.86445 2.13815 4.94382C2.57019 4.02318 3.24543 3.24333 4.08815 2.69168C4.7 2.29116 5.38257 2.02244 6.09396 1.89844C6.54014 1.82067 6.90306 1.45364 6.8953 1.00081ZM11.958 0.599943C12.2883 0.849887 12.3534 1.32027 12.1035 1.65058L7.4762 7.7656C7.35136 7.93058 7.16392 8.03666 6.95822 8.05875C6.75252 8.08084 6.54683 8.01699 6.38981 7.88229L4.01364 5.84395C3.69925 5.57426 3.66301 5.10077 3.9327 4.78638C4.20239 4.47199 4.67588 4.43576 4.99027 4.70545L6.76122 6.22461L10.9073 0.745449C11.1573 0.415144 11.6277 0.349999 11.958 0.599943ZM13.4707 3.6667C13.7959 3.92323 13.8515 4.39483 13.595 4.72004L7.96722 11.8542C7.83943 12.0162 7.65054 12.1184 7.44503 12.1368C7.23951 12.1551 7.03552 12.088 6.88107 11.9512L4.00465 9.40323C3.69459 9.12857 3.66588 8.65457 3.94054 8.34451C4.21519 8.03444 4.68919 8.00574 4.99926 8.28039L7.2813 10.3018L12.4173 3.79103C12.6739 3.46582 13.1455 3.41016 13.4707 3.6667Z" fill="#385385"/>
</svg>
