<svg width="14" height="15" viewBox="0 0 14 15" fill="none" xmlns="http://www.w3.org/2000/svg">
<path fill-rule="evenodd" clip-rule="evenodd" d="M6.8953 0.817153C6.88754 0.363903 6.51227 -0.00216211 6.06321 0.0598133C5.05269 0.199277 4.08078 0.562396 3.21734 1.1276C2.12289 1.84403 1.24597 2.85683 0.684877 4.05246C0.123784 5.24809 -0.0992985 6.57929 0.0406378 7.89682C0.180574 9.21436 0.677998 10.4661 1.47715 11.5119C2.27629 12.5576 3.34557 13.3559 4.56512 13.8173C5.78466 14.2787 7.10626 14.3849 8.38176 14.1241C9.65726 13.8633 10.8362 13.2457 11.7865 12.3407C12.5448 11.6184 13.1336 10.7359 13.5139 9.75894C13.6743 9.34665 13.4184 8.90485 12.992 8.78684C12.5599 8.66726 12.1185 8.92643 11.941 9.33812C11.6483 10.0173 11.2223 10.6317 10.6864 11.1421C9.95469 11.839 9.04688 12.3145 8.06475 12.5153C7.08262 12.7162 6.06499 12.6343 5.12594 12.2791C4.18689 11.9238 3.36354 11.3091 2.7482 10.5039C2.13285 9.6987 1.74984 8.73482 1.64209 7.72032C1.53434 6.70582 1.70611 5.6808 2.13815 4.76016C2.57019 3.83953 3.24543 3.05967 4.08815 2.50802C4.7 2.10751 5.38257 1.83878 6.09396 1.71478C6.54014 1.63701 6.90306 1.26999 6.8953 0.817153ZM11.958 0.416288C12.2883 0.666232 12.3534 1.13662 12.1035 1.46692L7.4762 7.58195C7.35136 7.74692 7.16392 7.853 6.95822 7.8751C6.75252 7.89719 6.54683 7.83333 6.38981 7.69864L4.01364 5.66029C3.69925 5.3906 3.66301 4.91711 3.9327 4.60273C4.20239 4.28834 4.67588 4.2521 4.99027 4.52179L6.76122 6.04096L10.9073 0.561794C11.1573 0.23149 11.6277 0.166344 11.958 0.416288ZM13.4707 3.48304C13.7959 3.73958 13.8515 4.21118 13.595 4.53639L7.96722 11.6706C7.83943 11.8326 7.65054 11.9348 7.44503 11.9531C7.23951 11.9715 7.03552 11.9043 6.88107 11.7675L4.00465 9.21957C3.69459 8.94492 3.66588 8.47091 3.94054 8.16085C4.21519 7.85079 4.68919 7.82208 4.99926 8.09674L7.2813 10.1182L12.4173 3.60738C12.6739 3.28217 13.1455 3.2265 13.4707 3.48304Z" fill="white"/>
</svg>
