<svg width="1001" height="668" viewBox="0 0 1001 668" fill="none" xmlns="http://www.w3.org/2000/svg">
<g clip-path="url(#clip0_18_3)">
<path d="M1000.27 666.936H0.274475V0.269351H1000.27V666.936Z" fill="white"/>
<path d="M333.977 83.76H167.627V0.978634H333.977V83.76Z" fill="#47B6D4"/>
<path d="M916.872 501.04H833.883V333.867H916.872V501.04Z" fill="#47B6D4"/>
<path d="M833.883 583.865H667.667V500.532H833.883V583.865Z" fill="#FAB512"/>
<path d="M833.883 333.749H667.449V167.317H833.883V333.749Z" fill="#2F2762"/>
<path d="M333.777 501.368H0V334.239H333.777V501.368Z" fill="#2F2762"/>
<path d="M500.508 167.159H667.404V333.865H500.508V167.159" fill="#EE1E5F"/>
<path d="M333.777 334.239H167.215V167.2H333.777V334.239Z" fill="#FAB512"/>
<path d="M418.347 250.38H500.871V167.2H418.347V250.38Z" fill="#47B6D4"/>
<path d="M500.508 166.977H583.619V83.8667H500.508V166.977" fill="#47B6D4"/>
<path d="M667.889 333.764H501.12V501.32H667.889V333.764Z" fill="#4E61B6"/>
<path d="M751.415 333.628V500.668C705.281 500.668 667.895 463.268 667.895 417.148C667.895 371.015 705.281 333.628 751.415 333.628Z" fill="#4E61B6"/>
<path d="M500.363 0.773288H667.401C667.401 46.9066 630.003 84.2933 583.883 84.2933C537.748 84.2933 500.363 46.9066 500.363 0.773288Z" fill="#FAB512"/>
<path d="M538.344 0.773302H629.419C629.419 25.9266 609.027 46.3107 583.883 46.3107C558.729 46.3107 538.344 25.9266 538.344 0.773302" fill="#EE1E5F"/>
<path d="M500.359 417.524V334.004H584.34C584.087 380.173 546.587 417.524 500.359 417.524" fill="#FAB512"/>
<path d="M500.381 375.525V334.004H542.349C542.112 356.984 523.42 375.525 500.381 375.525" fill="#47B6D4"/>
<path d="M416.107 500.123H417.6L416.853 500.869L416.107 500.123Z" fill="#2F2762"/>
<path d="M667.404 332.879V167.317H833.883C833.38 258.836 759.043 332.879 667.404 332.879Z" fill="#47B6D4"/>
<path d="M667.449 249.625V167.317H750.644C750.172 212.871 713.12 249.625 667.449 249.625Z" fill="#FAB512"/>
<path d="M501.12 417.76H334.067L417.6 334.239L501.12 417.76Z" fill="#2F2762"/>
<path d="M454.26 417.76H380.927L417.597 381.097L454.26 417.76Z" fill="#4E61B6"/>
<path d="M250.548 334.239L334.072 250.716L417.595 334.239L334.072 417.763L250.548 334.239" fill="#47B6D4"/>
<path d="M334.067 417.76L333.777 334.239H417.6L334.067 417.76Z" fill="#EE1E5F"/>
<path d="M334.081 250.72L333.777 334.239H250.548L334.081 250.72Z" fill="#EE1E5F"/>
<path d="M418.237 84.0894H500.113V0.978683H418.237V84.0894Z" fill="#47B6D4"/>
<path d="M418.237 0.978683L500.113 84.0894L500.031 1.20271L418.237 0.978683Z" fill="#4E61B6"/>
<path d="M334.067 250.533L250.547 334.053L167.027 250.533L167.253 250.307H333.773V250.239L334.067 250.533Z" fill="#2F2762"/>
<path d="M333.773 250.239V250.307H167.253L250.547 167.013L333.773 250.239" fill="white"/>
<path d="M213.881 250.533L250.548 213.867L287.215 250.533L250.548 287.2L213.881 250.533" fill="#4E61B6"/>
<path d="M417.6 584.841C463.72 584.841 501.12 547.44 501.12 501.32H334.08C334.08 547.44 371.467 584.841 417.6 584.841" fill="#FAB512"/>
<path d="M501.12 501.32V417.763H334.08V501.32H501.12" fill="#47B6D4"/>
<path d="M417.413 547.763C391.64 547.763 370.747 526.869 370.747 501.096C370.747 475.323 391.64 454.429 417.413 454.429C443.187 454.429 464.08 475.323 464.08 501.096C464.08 526.869 443.187 547.763 417.413 547.763Z" fill="#EE1E5F"/>
<path d="M667.895 501.32C621.841 501.32 584.508 463.987 584.508 417.935V334.001H667.895V501.32Z" fill="#2F2762"/>
<path d="M333.777 582.631H0V501.368H333.777V582.631Z" fill="#EE1E5F"/>
<path d="M333.635 501.236V501.368H0.418762L167.093 334.693L333.635 501.236Z" fill="white"/>
<path d="M85.9771 501.368L167.027 420.32L248.076 501.368L167.027 582.417L85.9771 501.368Z" fill="#4E61B6"/>
<path d="M819.225 376C819.225 390.571 807.412 402.383 792.841 402.383C778.271 402.383 766.459 390.571 766.459 376C766.459 361.428 778.271 349.617 792.841 349.617C807.412 349.617 819.225 361.428 819.225 376Z" fill="#2F2762"/>
<path d="M668.039 583.68H500.985L584.519 667.198L668.039 583.68Z" fill="#2F2762"/>
<path d="M538.976 583.68H630.049C630.049 608.832 609.659 629.216 584.512 629.216C559.359 629.216 538.976 608.832 538.976 583.68Z" fill="#4E61B6"/>
<path d="M667.947 501.208H501.079V583.68H667.947V501.208Z" fill="#EE1E5F"/>
<path d="M568.833 543.08C568.833 557.651 557.02 569.463 542.451 569.463C527.88 569.463 516.067 557.651 516.067 543.08C516.067 528.511 527.88 516.697 542.451 516.697C557.02 516.697 568.833 528.511 568.833 543.08" fill="white"/>
<path d="M652.261 543.08C652.261 557.651 640.449 569.463 625.879 569.463C611.308 569.463 599.496 557.651 599.496 543.08C599.496 528.511 611.308 516.697 625.879 516.697C640.449 516.697 652.261 528.511 652.261 543.08" fill="white"/>
<path d="M418.347 0.533343H333.777V250.311H418.347V0.533343Z" fill="#EE1E5F"/>
<path d="M402.337 42.5333C402.337 57.1053 390.525 68.916 375.955 68.916C361.384 68.916 349.572 57.1053 349.572 42.5333C349.572 27.9627 361.384 16.152 375.955 16.152C390.525 16.152 402.337 27.9627 402.337 42.5333Z" fill="#FAB512"/>
<path d="M402.337 125.423C402.337 139.993 390.525 151.805 375.955 151.805C361.384 151.805 349.572 139.993 349.572 125.423C349.572 110.851 361.384 99.04 375.955 99.04C390.525 99.04 402.337 110.851 402.337 125.423Z" fill="#FAB512"/>
<path d="M402.337 208.311C402.337 222.881 390.525 234.693 375.955 234.693C361.384 234.693 349.572 222.881 349.572 208.311C349.572 193.74 361.384 181.928 375.955 181.928C390.525 181.928 402.337 193.74 402.337 208.311Z" fill="#FAB512"/>
<path d="M0 582.631V667.198H249.777V582.631H0Z" fill="#47B6D4"/>
<path d="M42 598.973C56.5703 598.973 68.3823 610.785 68.3823 625.355C68.3823 639.927 56.5703 651.737 42 651.737C27.4292 651.737 15.6172 639.927 15.6172 625.355C15.6172 610.785 27.4292 598.973 42 598.973" fill="#2F2762"/>
<path d="M124.888 598.973C139.459 598.973 151.271 610.785 151.271 625.355C151.271 639.927 139.459 651.737 124.888 651.737C110.318 651.737 98.5063 639.927 98.5063 625.355C98.5063 610.785 110.318 598.973 124.888 598.973" fill="#2F2762"/>
<path d="M207.777 598.973C222.348 598.973 234.16 610.785 234.16 625.355C234.16 639.927 222.348 651.737 207.777 651.737C193.205 651.737 181.395 639.927 181.395 625.355C181.395 610.785 193.205 598.973 207.777 598.973" fill="#2F2762"/>
<path d="M833.415 167.317L916.939 83.7934L1000.46 167.317L916.939 250.84L833.415 167.317" fill="#2F2762"/>
<path d="M916.933 250.837L917.216 167.317H1000.47L916.933 250.837Z" fill="#EE1E5F"/>
<path d="M916.949 83.7973L917.216 167.317H833.415L916.949 83.7973Z" fill="#EE1E5F"/>
<path d="M80.1219 582.698L0 501.368L0.0802084 582.481L80.1219 582.698Z" fill="#FAB512"/>
<path d="M249.777 667.198H333.749V582.417H249.777V667.198Z" fill="#EE1E5F"/>
<path d="M250.136 582.417L333.777 667.198L333.695 582.645L250.136 582.417Z" fill="#FAB512"/>
<path d="M500.359 250.267L583.883 166.744L667.404 250.267L583.883 333.791L500.359 250.267Z" fill="#2F2762"/>
<path d="M501.027 167.169C501.027 167.169 502.988 207.115 480.217 229.655C457.445 252.196 418.513 250.204 418.513 250.204C418.513 250.204 416.501 211.665 439.272 189.125C462.043 166.585 501.027 167.169 501.027 167.169" fill="#FAB512"/>
<path d="M418.511 84.0907C418.511 84.0907 416.549 124.036 439.32 146.576C462.091 169.117 501.023 167.125 501.023 167.125C501.023 167.125 503.036 128.587 480.265 106.047C457.493 83.5067 418.511 84.0907 418.511 84.0907" fill="#EE1E5F"/>
<path d="M501.111 167.169C501.111 167.169 499.149 207.115 521.92 229.655C544.691 252.195 583.623 250.203 583.623 250.203C583.623 250.203 585.636 211.665 562.865 189.125C540.095 166.584 501.111 167.169 501.111 167.169Z" fill="#FAB512"/>
<path d="M583.627 84.0907C583.627 84.0907 585.588 124.036 562.817 146.576C540.047 169.116 501.115 167.124 501.115 167.124C501.115 167.124 499.101 128.587 521.872 106.045C544.643 83.5054 583.627 84.0907 583.627 84.0907Z" fill="#EE1E5F"/>
<path d="M667.404 250.267L583.837 249.815L583.883 333.791L667.404 250.267Z" fill="#4E61B6"/>
<path d="M333.56 250.38L500.871 417.692V250.38H333.56Z" fill="white"/>
<path d="M485.992 292.48C485.992 307.051 474.18 318.863 459.609 318.863C445.037 318.863 433.227 307.051 433.227 292.48C433.227 277.908 445.037 266.097 459.609 266.097C474.18 266.097 485.992 277.908 485.992 292.48Z" fill="#4E61B6"/>
<path d="M750.507 584.121C750.507 584.121 752.468 624.067 729.696 646.607C706.925 669.147 667.993 667.155 667.993 667.155C667.993 667.155 665.981 628.617 688.752 606.076C711.523 583.536 750.507 584.121 750.507 584.121" fill="#47B6D4"/>
<path d="M667.991 501.043C667.991 501.043 666.028 540.988 688.8 563.528C711.571 586.069 750.504 584.076 750.504 584.076C750.504 584.076 752.516 545.539 729.744 522.999C706.973 500.459 667.991 501.043 667.991 501.043Z" fill="#4E61B6"/>
<path d="M750.591 584.121C750.591 584.121 748.629 624.067 771.4 646.607C794.172 669.147 833.104 667.155 833.104 667.155C833.104 667.155 835.117 628.617 812.345 606.076C789.573 583.536 750.591 584.121 750.591 584.121" fill="#47B6D4"/>
<path d="M833.107 501.041C833.107 501.041 835.068 540.986 812.297 563.527C789.525 586.068 750.595 584.075 750.595 584.075C750.595 584.075 748.581 545.537 771.352 522.997C794.123 500.457 833.107 501.041 833.107 501.041" fill="#4E61B6"/>
<path d="M833.995 418.088H751.415V500.668H833.995V418.088" fill="#47B6D4"/>
<path d="M751.415 418.088H833.995V500.668L751.415 418.088Z" fill="#2F2762"/>
<path d="M1000 584.14H916.941V667.198H1000V584.14Z" fill="#FAB512"/>
<path d="M916.941 584.14H1000V667.198L916.941 584.14Z" fill="#EE1E5F"/>
<path d="M833.883 584.14V667.198H916.941V584.14H833.883" fill="#4E61B6"/>
<path d="M833.883 667.198V584.14H916.941L833.883 667.198Z" fill="#2F2762"/>
<path d="M1000 334.489H916.941V584.267H1000V334.489Z" fill="#2F2762"/>
<path d="M984.852 376.489C984.852 391.061 973.041 402.872 958.471 402.872C943.899 402.872 932.088 391.061 932.088 376.489C932.088 361.919 943.899 350.107 958.471 350.107C973.041 350.107 984.852 361.919 984.852 376.489Z" fill="#4E61B6"/>
<path d="M984.852 459.379C984.852 473.949 973.041 485.76 958.471 485.76C943.899 485.76 932.088 473.949 932.088 459.379C932.088 444.807 943.899 432.996 958.471 432.996C973.041 432.996 984.852 444.807 984.852 459.379" fill="#4E61B6"/>
<path d="M984.852 542.267C984.852 556.837 973.041 568.649 958.471 568.649C943.899 568.649 932.088 556.837 932.088 542.267C932.088 527.696 943.899 515.884 958.471 515.884C973.041 515.884 984.852 527.696 984.852 542.267" fill="#4E61B6"/>
<path d="M916.872 416.872H916.871C870.819 416.872 833.485 454.205 833.485 500.259V584.191H916.872V416.872" fill="#EE1E5F"/>
<path d="M833.415 167.317L916.933 250.837L916.941 334.489L833.883 333.749L833.415 167.317" fill="#FAB512"/>
<path d="M916.913 334.952C916.913 334.952 918.876 374.897 896.105 397.437C873.333 419.977 834.401 417.984 834.401 417.984C834.401 417.984 832.389 379.447 855.16 356.905C877.931 334.367 916.913 334.952 916.913 334.952" fill="#EE1E5F"/>
<path d="M999.957 251.537C999.957 251.537 1001.92 291.483 979.148 314.023C956.377 336.564 917.445 334.571 917.445 334.571C917.445 334.571 915.432 296.033 938.204 273.492C960.975 250.952 999.957 251.537 999.957 251.537" fill="#EE1E5F"/>
<path d="M0 167.2H167.215V0.533355H0V167.2Z" fill="#FAB512"/>
<path d="M167.215 84.2907V167.172H83.876C84.1271 121.357 121.341 84.2907 167.215 84.2907" fill="#2F2762"/>
<path d="M167.193 125.988V167.192H125.546C125.782 144.388 144.329 125.988 167.193 125.988Z" fill="#47B6D4"/>
<path d="M0 0.533355C46.4505 0.533355 84.1068 38.188 84.1068 84.64V167.2H0V0.533355Z" fill="#4E61B6"/>
<path d="M151.928 42.5333C151.928 57.1053 140.116 68.916 125.546 68.916C110.975 68.916 99.1631 57.1053 99.1631 42.5333C99.1631 27.9627 110.975 16.152 125.546 16.152C140.116 16.152 151.928 27.9627 151.928 42.5333Z" fill="#EE1E5F"/>
<path d="M334.271 84.0533L250.751 167.572L167.231 84.0533L167.457 83.8267H333.977V83.76L334.271 84.0533" fill="#4E61B6"/>
<path d="M333.977 83.7601V83.8267H167.457L250.751 0.533367L333.977 83.7601Z" fill="#2F2762"/>
<path d="M214.085 84.0533L250.752 47.3866L287.419 84.0533L250.752 120.72L214.085 84.0533" fill="#FAB512"/>
<path d="M834.717 167.317L667.404 0.00533388V167.317H834.717Z" fill="#2F2762"/>
<path d="M682.285 125.217C682.285 110.648 694.096 98.836 708.668 98.836C723.237 98.836 735.051 110.648 735.051 125.217C735.051 139.789 723.237 151.6 708.668 151.6C694.096 151.6 682.285 139.789 682.285 125.217" fill="#4E61B6"/>
<path d="M919.153 0.533322H747.676L833.427 86.26L919.153 0.533322Z" fill="#EE1E5F"/>
<path d="M833.427 86.26L833.883 167.317L1000.55 0.533347H919.153L833.427 86.26Z" fill="#47B6D4"/>
<path d="M1000.55 0.533347L916.939 83.7934L1000.47 167.317L1000.55 0.533347Z" fill="#4E61B6"/>
<path d="M401.521 625.66C401.521 640.231 389.709 652.043 375.14 652.043C360.568 652.043 348.757 640.231 348.757 625.66C348.757 611.089 360.568 599.277 375.14 599.277C389.709 599.277 401.521 611.089 401.521 625.66" fill="#47B6D4"/>
<path d="M484.951 625.66C484.951 640.231 473.139 652.043 458.567 652.043C443.997 652.043 432.185 640.231 432.185 625.66C432.185 611.089 443.997 599.277 458.567 599.277C473.139 599.277 484.951 611.089 484.951 625.66" fill="#47B6D4"/>
<path d="M500.985 583.68L501.12 667.2L584.519 667.198L500.985 583.68Z" fill="#FAB512"/>
<path d="M667.404 130.311V203.644L630.743 166.972L667.404 130.311Z" fill="#47B6D4"/>
<path d="M583.956 167.159V84.1H667.016L583.956 167.159Z" fill="#2F2762"/>
<path d="M167.627 250.72C167.627 296.84 130.227 334.239 84.1068 334.239V167.2C130.227 167.2 167.627 204.587 167.627 250.72Z" fill="#4E61B6"/>
<path d="M84.1068 334.239H0V167.2H84.1068V334.239Z" fill="#EE1E5F"/>
<path d="M130.548 250.533C130.548 224.76 109.655 203.867 83.8817 203.867C58.1084 203.867 37.2151 224.76 37.2151 250.533C37.2151 276.307 58.1084 297.2 83.8817 297.2C109.655 297.2 130.548 276.307 130.548 250.533Z" fill="#2F2762"/>
</g>
<defs>
<clipPath id="clip0_18_3">
<rect width="1000.55" height="667.2" fill="white"/>
</clipPath>
</defs>
</svg>
