<svg width="1000" height="667" viewBox="0 0 1000 667" fill="none" xmlns="http://www.w3.org/2000/svg">
<g clip-path="url(#clip0_18_114)">
<path d="M1000 666.667H0.000427246V6.00815e-05H1000V666.667Z" fill="white"/>
<path d="M1070.14 680.859C1032.53 690.54 991.309 685.331 957.295 666.601C923.281 647.873 896.837 615.82 884.913 578.868C881.384 567.929 879.963 553.903 889.028 546.836C899.041 539.032 913.253 545.671 925.069 550.316C941.305 556.697 959.209 558.776 976.475 556.284C989.201 554.448 1001.82 550.173 1014.61 551.508C1033.78 553.508 1049.55 567.82 1060.31 583.81C1075.01 605.653 1083.01 633.173 1076.73 658.74C1070.44 684.307 1047.63 706.408 1021.31 706.947" fill="#FCD583"/>
<path d="M-46.4161 462.057C-41.4251 449.157 -25.5855 444.428 -11.7651 443.875C26.9667 442.329 64.9188 460.684 91.9667 488.449C119.014 516.215 135.932 552.622 145.475 590.192C150.067 608.276 153.072 626.983 151.548 645.579C150.021 664.174 143.683 682.753 131.365 696.767C108.099 723.237 66.9667 728.498 33.8484 716.451C0.7297 704.403 -25.3224 678.105 -45.8964 649.493C-67.6271 619.273 -84.7636 584.943 -89.9901 548.091C-95.2167 511.237 -87.5292 471.641 -64.226 442.616" fill="#20345F"/>
<path d="M-30.403 185.045C-35.1254 167.179 -39.8912 148.8 -37.7729 130.44C-35.6541 112.081 -25.0464 93.4827 -7.59684 87.392C7.62192 82.08 24.8875 87.312 37.9552 96.7494C51.024 106.188 60.8 119.372 70.7688 132.039C144.625 225.893 239.439 301.448 339.949 365.953C440.461 430.459 547.172 484.597 652.012 541.802C690.424 562.76 729.161 584.556 759.959 615.641C781.137 637.016 798.332 671.527 780.464 695.737C765.655 715.805 736.192 715.781 711.332 713.795C629.516 707.257 547.7 700.719 465.885 694.181C438.368 691.983 409.957 689.531 385.608 676.524C351.745 658.436 331.383 623.263 308.993 592.076C273.037 541.992 227.832 498.572 176.344 464.657C149.487 446.968 120.145 431.128 101.066 405.237C81.9864 379.347 77.1126 339.225 100.324 316.963C25.8563 310.757 -36.7374 238.573 -32.338 163.979" fill="#31B9A8"/>
<path d="M41.7609 264.285C29.476 263.093 17.674 271.264 11.5266 281.968C5.37971 292.669 3.96824 305.44 4.02293 317.783C4.27397 374.192 32.1323 426.891 65.2469 472.557C98.3615 518.224 137.509 559.698 165.832 608.483C189.285 648.879 207.656 696.644 248.745 718.861C292.664 742.608 351.745 725.979 383.063 687.095C414.381 648.209 419.665 592.395 403.997 544.989C388.329 497.585 354.033 458.068 314.155 428.029" fill="#31B9A8"/>
<path d="M380.693 90.2666C411.165 136.263 466.609 164.54 521.732 162.2C584.785 159.523 641.9 120.327 704.943 117.384C752.272 115.176 800.175 134.96 832.153 169.921C862.159 202.725 877.289 246.064 892.219 287.939C907.147 329.815 923.523 372.947 955.171 404.168C986.82 435.389 1038.19 451.187 1076.78 429.124C1108.95 410.736 1123.61 372.383 1131.33 336.147C1143.82 277.521 1144.33 215.889 1128.68 158.027C1113.04 100.163 1080.78 46.2746 1034.45 8.24796C990.337 -27.9587 935.22 -48.7494 879.209 -59.6907C823.199 -70.6307 765.844 -72.2694 708.797 -73.8747C688.687 -74.44 668.576 -75.0067 648.464 -75.572C628.428 -76.136 608.391 -76.7 588.353 -77.264C568.317 -77.8267 548.28 -78.3907 528.243 -78.9547C508.132 -79.52 488.021 -80.0867 467.911 -80.652C449.003 -81.184 429.871 -82.6254 410.963 -82.0654C400.195 -81.7467 389.043 -79.8281 379.815 -73.9574C371.805 -68.8614 366.209 -61.0934 362.625 -52.4027C358.189 -41.6467 356.431 -29.892 355.352 -18.3787C353.805 -1.86667 354.099 14.66 357.087 31.0026C360.203 48.0453 365.98 64.6213 374.353 79.7987C375.339 81.5827 376.36 83.3506 377.416 85.0946C378.095 86.216 380.693 89.0266 380.693 90.2666" fill="#20345F"/>
<path d="M-75.101 -53.4107C-14.2557 -51.8 36.8626 -6.66265 72.3938 42.7574C107.925 92.176 134.22 148.699 176.887 192.107C250.24 266.736 359 290.871 460.257 317.277C561.513 343.685 669.771 381.912 725.148 470.701C754.104 517.127 766.525 574.773 806.284 612.364C830.932 635.665 863.38 648.48 894.712 661.472C926.044 674.463 958.131 688.892 980.613 714.288C1003.1 739.685 1013.3 779.101 995.693 808.091C930.167 824.412 856.44 801.675 811.487 751.283C771.056 705.96 752.817 641.219 703.287 606.069C655.979 572.496 591.42 574.32 540.957 545.707C481.133 511.783 450.84 441.143 394.196 402.143C333.625 360.439 250.761 360.197 192.776 314.973C130.003 266.015 111.322 176.068 49.8251 125.519C26.3276 106.203 -1.98904 93.916 -28.5864 79.1547C-55.1828 64.3934 -81.2833 45.9213 -95.4822 19.02C-109.683 -7.88002 -108.42 -44.936 -85.5177 -64.9547" fill="#20345F"/>
<path d="M58.1323 -110.617C111.24 24.9974 230.66 132.801 370.983 171.803C463.441 197.5 565.005 195.535 648.833 242.243C718.404 281.008 767.308 349.529 798.843 422.661C819.503 470.577 837.227 525.564 882.709 551.141C942.319 584.663 1025.58 552.627 1080.62 593.212C1095.84 604.429 1107.14 620.222 1122.07 631.822C1136.99 643.424 1158.41 650.319 1174.65 640.646C1187.94 632.727 1193.63 615.339 1190.71 600.145C1187.78 584.951 1177.62 571.957 1165.52 562.313C1096.08 506.959 982.771 555.657 910.355 504.26C878.331 481.528 861.141 443.256 850.591 405.427C840.039 367.597 834.545 328.121 818.863 292.116C790.925 227.969 729.761 179.405 660.951 166.732C589.565 153.584 515.343 165.808 445.276 146.847C383.647 130.168 334.328 94.532 289.059 49.5053C247.165 7.83468 205.272 -33.836 163.377 -75.5066C143.745 -95.0346 123.467 -115.007 98.0214 -125.928C72.5761 -136.848 40.4085 -136.756 19.7131 -118.36" fill="#20345F"/>
<path d="M-47.6593 -118.62C-18.9927 -5.10261 45.3042 99.1414 133.879 175.708C222.453 252.273 334.903 300.813 451.373 312.756C536.075 321.44 628.048 318.087 694.167 371.735C750.916 417.781 771.235 491.096 807.771 554.389C874.564 670.098 1014.38 739.017 1146.83 721.525C1045.86 699.208 953.515 639.822 891.32 557.209C844.253 494.689 814.843 420.913 775.036 353.537C735.229 286.161 680.423 222 605.676 198.828C547.261 180.72 484.473 189.871 423.403 193.151C362.333 196.429 295.907 191.799 249.039 152.508C190.62 103.536 180.836 16.9427 133.933 -43.1506C74.7964 -118.919 -29.7937 -138.48 -124.848 -152.707" fill="#31B9A8"/>
<path d="M161.779 -134.651C183.225 -50.2 233.035 26.7854 301.277 80.96C369.52 135.135 455.797 166.181 542.912 167.911C597.42 168.992 652.819 159.047 705.988 171.099C755.556 182.335 800.407 213.157 828.663 255.407C868.704 315.279 877.856 397.659 935.808 440.433C970.999 466.409 1018.37 471.689 1061.2 462.795C1104.02 453.9 1143.09 432.217 1179.62 408.168C1145.69 445.132 1084.79 446.591 1040.67 422.7C996.552 398.811 966.596 355.228 943.908 310.477C921.221 265.727 903.937 218.025 876.313 176.143C848.688 134.259 807.951 97.548 758.377 89.8173C679.883 77.5773 608.759 139.164 529.833 148.231C462.72 155.939 387.649 114.427 375.521 47.968C370.5 20.4546 376.137 -8.48799 368.745 -35.4613C358.428 -73.1107 323.887 -100.232 286.764 -112.312C249.641 -124.391 209.771 -123.927 170.736 -123.34" fill="#FCD583"/>
<path d="M-131.068 16.788C-104.472 60.7774 -55.4421 85.0267 -9.54893 108.184C36.3459 131.34 84.5907 158.647 106.58 205.111C125.007 244.048 121.503 289.404 130.029 331.631C141.648 389.175 177.067 441.536 226.155 473.736C310.26 528.907 427.719 525.199 499.409 595.751C555.119 650.576 565.943 745.21 524.051 811.199C526.865 781.473 508.241 752.834 483.507 736.108C458.773 719.383 428.769 712.561 399.297 707.764C369.828 702.964 339.757 699.771 311.873 689.095C255.691 667.583 212.875 614.443 203.803 554.972C201.195 537.872 201.093 520.048 194.307 504.137C169.713 446.473 74.1984 443.957 55.9943 383.969C41.6307 336.639 87.5672 290.307 85.0473 240.909C83.1297 203.299 53.3276 172.755 21.0074 153.427C-11.313 134.097 -47.8625 122.029 -78.3666 99.9468C-108.872 77.8654 -133.396 41.0173 -125.475 4.20132" fill="#FCD583"/>
<path d="M383.484 13.3187C387.797 52.1733 405.957 90.9453 438.356 112.827C465.505 131.161 499.959 136.032 532.573 132.933C577.507 128.667 619.785 110.556 661.401 93.08C703.016 75.6027 745.788 58.3093 790.857 55.8346C835.925 53.3586 884.435 68.3067 911.291 104.583C952.263 159.923 931.591 244.599 973.788 299.008C1005.63 340.064 1067.17 350.315 1115.47 331.152C1163.76 311.988 1199.29 268.636 1220.13 221.041C1243.29 168.153 1250.19 106.103 1228.39 52.6426C1199.94 -17.128 1126.26 -61.3293 1051.46 -70.42C976.665 -79.5107 901.167 -58.328 832.289 -27.7813C784.951 -6.788 739.525 18.732 690.684 35.9453C641.844 53.16 588.06 61.7173 538.244 47.576C488.428 33.4333 443.979 -7.23338 436.657 -58.4987C434.811 -71.4307 435.231 -85.36 429.207 -97.296C426.159 -103.332 421.625 -107.845 415.152 -110.06C410.701 -111.581 404.539 -112.633 400.228 -110.088C392.959 -105.795 394.001 -92.8547 393.035 -85.7267C392.079 -78.684 390.109 -71.8214 388.657 -64.872C387.003 -56.9667 385.603 -49.008 384.54 -41.0013C382.415 -25.0067 381.644 -8.79468 382.913 7.30533C383.072 9.31333 383.263 11.316 383.484 13.3187" fill="#F3622C"/>
<path d="M284.18 484.172C232.415 463.592 188.405 424.109 162.347 374.873C159.065 368.672 155.977 361.756 157.325 354.872C159.644 343.035 174.313 337.38 186.129 339.801C197.944 342.22 207.74 350.112 217.911 356.596C266.389 387.5 329.771 388.993 376.593 422.359C411.072 446.928 432.369 485.855 463.433 514.621C502.952 551.216 555.611 569.208 603.813 593.244C652.015 617.28 700.103 652.512 714.128 704.515C719.428 724.163 718.731 747.036 705.571 762.559C688.351 782.871 655.108 782.822 632.625 768.551C610.145 754.28 596.591 729.514 586.929 704.7C577.268 679.885 570.415 653.734 556.797 630.852C527.012 580.8 470.007 554.204 414.787 535.681C359.567 517.159 301.028 502.924 255.192 466.987" fill="#F3622C"/>
<path d="M-72.1541 153.403C-39.7426 152.293 -6.3156 159.645 20.0031 178.595C46.3224 197.541 64.4927 229.04 63.0074 261.436C61.9527 284.448 51.588 305.819 43.3146 327.319C35.0422 348.817 28.7156 372.733 35.8678 394.631C46.4839 427.127 81.6558 443.18 109.563 462.927C175.727 509.739 210.944 596.586 196.071 676.261C193.347 690.853 188.361 706.248 176.337 714.953C156.637 729.217 126.836 717.579 113.687 697.117C100.539 676.655 99.6792 650.873 100.016 626.553C100.354 602.233 101.26 576.838 90.847 554.857C73.8312 518.94 32.4251 502.752 3.21929 475.796C-35.3432 440.203 -51.7844 382.401 -37.7286 331.84C-31.7297 310.263 -20.6254 289.748 -19.662 267.375C-18.6609 244.136 -28.9682 221.545 -43.536 203.415C-58.1036 185.283 -76.7557 170.948 -95.2156 156.799" fill="#F3622C"/>
<path d="M49.9484 535.925C72.2219 566.395 82.5292 605.375 78.2287 642.872C76.7599 655.68 73.4459 668.733 65.437 678.838C57.4292 688.941 43.8667 695.431 31.4016 692.137C18.2454 688.661 9.63336 675.386 7.17763 662.003C4.72191 648.62 7.14378 634.895 8.89639 621.4C10.649 607.907 11.649 593.736 6.5943 581.103C1.16357 567.528 -10.5099 557.557 -22.153 548.712C-34.1516 539.596 -47.3521 530.58 -55.0046 517.209C-60.2754 508 -62.4448 496.365 -53.2478 488.903C-45.188 482.361 -33.3182 481.519 -23.4614 483.132C-10.0083 485.335 2.74533 493.181 13.787 500.82C26.1178 509.351 37.2183 519.673 46.5292 531.431C47.6974 532.907 48.838 534.405 49.9484 535.925" fill="#31B9A8"/>
<path d="M582.481 402.464C622.215 421.237 661.609 444.269 687.591 479.711C710.937 511.555 721.841 551.286 745.899 582.596C782.215 629.856 842.255 650.855 891.456 684.489C903.303 692.588 914.947 701.9 921.545 714.644C928.141 727.385 928.473 744.334 918.892 755.016C911.305 763.475 898.927 766.451 887.676 764.859C876.428 763.267 866.127 757.69 856.752 751.269C817.721 724.543 791.724 683.195 765.289 643.964C738.856 604.733 709.148 564.984 666.505 544.502C621.117 522.7 563.621 523.972 527.737 488.648C508.184 469.4 498.439 442.032 479.469 422.207C447.788 389.099 397.003 383.011 359.693 356.407C352.249 351.099 344.648 342.26 348.253 333.856C352.243 324.559 367.819 322.952 377.887 323.943C400.139 326.132 408.769 326.764 424.943 330.325C438.283 333.263 483.543 354.684 492.965 359.936C506.567 367.517 520.609 374.264 534.759 380.753C548.883 387.229 563.123 393.448 577.215 399.996C578.972 400.813 580.728 401.636 582.481 402.464" fill="#31B9A8"/>
<path d="M756.391 39.2426C795.032 28.1706 836.692 23.2347 875.277 34.496C913.864 45.7587 948.647 75.688 957.344 114.932C960.593 129.592 960.177 144.771 960.799 159.773C961.42 174.776 963.228 190.181 970.408 203.369C977.588 216.556 991.209 227.148 1006.22 226.865C1018.67 226.632 1029.94 219.151 1038.42 210.033C1065.98 180.367 1068.56 132.809 1050.76 96.4306C1032.97 60.052 998.033 34.2426 960.204 19.792C895.205 -5.0387 818.853 1.04799 759.055 36.624L756.391 39.2426" fill="#FCD583"/>
<path d="M398.852 18.8854C396.133 9.84674 393.385 0.430703 394.865 -8.89063C396.344 -18.212 403.393 -27.3719 412.813 -27.9786C423.275 -28.6532 431.445 -19.1866 436.515 -10.0119C444.915 5.19741 450.013 22.2454 460.129 36.3694C477.228 60.2454 506.844 72.6774 536.075 75.5107C565.304 78.3441 594.631 72.7654 623.424 66.9907C628.047 66.0641 634.716 66.5387 635.117 71.2361C635.36 74.0574 632.849 76.2734 630.548 77.9214C591.281 106.02 540.383 117.292 492.925 108.397C463.276 102.84 434.352 89.0947 415.1 65.8721C395.847 42.6507 387.773 9.19608 398.964 -18.8173" fill="#FCD583"/>
<path d="M426.859 281.325C486.795 289.208 548.557 279.263 607.593 292.268C664.516 304.809 716.335 339.208 749.991 386.799C728.943 347.429 700.699 311.631 665.632 284.001C630.567 256.373 588.549 237.109 544.312 231.108C497.688 224.783 450.5 233.105 403.521 235.713C383.183 236.843 362.687 236.725 342.467 234.044C322.496 231.396 302.705 226.165 284.741 216.893C282.587 215.78 276.669 211.289 274.024 213.847C272.235 215.573 280.117 220.328 281.669 221.507C289.7 227.6 298.035 233.293 306.628 238.564C323.819 249.105 342.044 257.957 360.953 264.959C379.861 271.959 399.457 277.108 419.375 280.244C421.865 280.636 424.36 280.996 426.859 281.325Z" fill="#20345F"/>
<path d="M121.217 114.908C130.107 121.885 142.101 128.455 152.111 123.205C159.101 119.539 162.387 110.991 162.076 103.105C161.767 95.2174 158.532 87.7787 155.349 80.556C144.604 56.1694 133.801 31.676 119.529 9.1707C105.258 -13.336 87.2662 -33.9519 64.623 -48.0039C57.7741 -52.2532 49.4293 -56.3826 41.1959 -53.9666C35.4657 -52.2839 30.9631 -48.336 32.1219 -42.0986C33.3303 -35.5893 34.9943 -29.0746 36.3391 -22.5746C37.8834 -15.1186 39.799 -7.73858 42.0683 -0.470578C46.5735 13.9601 52.4735 27.9547 59.6271 41.2721C66.8105 54.6427 75.2599 67.3334 84.8443 79.1027C94.424 90.8694 105.139 101.715 116.836 111.377C118.281 112.573 119.742 113.749 121.217 114.908" fill="#20345F"/>
<path d="M464.456 366.996C466.381 368.627 468.387 370.647 468.391 373.168C468.395 375.456 466.647 377.46 464.571 378.42C462.495 379.377 460.137 379.489 457.851 379.507C437.609 379.657 417.365 373.555 400.581 362.241C396.027 359.171 391.404 354.236 394.671 348.464C396.895 344.536 402.184 344.885 406.067 345.004C419.615 345.417 432.943 348.551 445.156 354.471C452.075 357.824 458.587 362.027 464.456 366.996Z" fill="#20345F"/>
<path d="M647.884 470.792C655.659 478.245 663.581 488.792 659.608 498.803C655.236 509.812 640.241 511.103 628.531 509.324C577.628 501.592 531.113 468.943 506.541 423.699C503.587 418.259 500.523 411.445 503.887 405.484C506.179 401.424 509.308 399.608 513.887 400.324C525.791 402.185 537.745 406.121 549.076 410.12C560.811 414.263 572.264 419.2 583.333 424.88C594.405 430.563 605.095 436.988 615.301 444.105C625.557 451.26 635.329 459.111 644.503 467.607C645.64 468.659 646.767 469.72 647.884 470.792" fill="#20345F"/>
<path d="M689.927 510.321C695.628 514.54 697.173 522.12 693.379 527.251C689.583 532.38 681.884 533.12 676.18 528.901C670.479 524.681 668.933 517.103 672.728 511.972C676.524 506.841 684.223 506.103 689.927 510.321Z" fill="#20345F"/>
<path d="M366.172 460.484C373.003 462.4 377.143 468.932 375.42 475.079C373.697 481.223 366.764 484.652 359.935 482.737C353.104 480.823 348.964 474.289 350.687 468.144C352.409 461.999 359.343 458.569 366.172 460.484Z" fill="#FCD583"/>
<path d="M407.347 485.856C412.061 488.311 414.095 493.739 411.887 497.981C409.679 502.221 404.067 503.672 399.352 501.217C394.637 498.764 392.605 493.336 394.813 489.095C397.02 484.852 402.632 483.403 407.347 485.856Z" fill="#FCD583"/>
<path d="M453.132 519.195C455.935 520.652 457.143 523.879 455.831 526.4C454.519 528.921 451.183 529.781 448.383 528.323C445.58 526.867 444.372 523.64 445.684 521.119C446.996 518.597 450.332 517.736 453.132 519.195Z" fill="#FCD583"/>
<path d="M178.32 45.2493C184.209 94.6573 214.449 139.485 255.092 168.191C295.732 196.896 345.908 210.328 395.648 211.639C427.104 212.468 460.095 208.128 485.928 190.16C344.795 168.484 215.144 81.1453 142.029 -41.5027C164.768 26.3666 188.316 95.764 232.824 151.82" fill="#F3622C"/>
<path d="M583.088 321.271C633.832 331.411 683.705 351.9 721.149 387.619C764.625 429.092 787.663 486.877 818.132 538.664C859.996 609.816 917.707 671.581 985.855 718.172C904.969 683.317 819.881 645.128 769.433 572.931C745.363 538.484 730.72 498.172 706.708 463.684C676.312 420.025 632.021 387.515 584.445 363.712C567.561 355.264 550.189 347.819 532.568 341.051C514.985 334.296 423.64 310.589 424.315 309.384C424.984 308.192 458.436 310.503 459.981 310.529C479.539 310.86 499.099 311.471 518.609 312.887C538 314.295 557.349 316.499 576.479 320.005C578.685 320.409 580.888 320.831 583.088 321.271" fill="#F3622C"/>
<path d="M862.339 287.709C887.359 336.773 895.675 396.837 936.692 433.592C968.569 462.156 1013.36 470.067 1055.63 476.817C1046.68 507.153 1016.43 528.504 984.953 531.575C953.475 534.645 921.831 521.432 898.073 500.551C874.317 479.669 857.733 451.719 845.423 422.584C833.111 393.449 824.732 362.84 814.833 332.8C804.936 302.761 793.325 272.907 775.329 246.896C764.385 231.077 751.083 216.913 736.093 204.867C721.009 192.743 704.211 182.748 686.339 175.32C681.388 173.263 676.356 171.404 671.256 169.751C668.707 168.924 666.14 168.149 663.557 167.428C661.609 166.881 658.712 166.648 657.155 165.297C660.733 164.588 665.089 165.165 668.76 165.296C672.893 165.443 677.023 165.712 681.141 166.099C689.32 166.869 697.453 168.108 705.495 169.789C721.488 173.133 737.109 178.231 752.032 184.879C767.077 191.581 781.42 199.861 794.749 209.539C807.969 219.137 820.195 230.115 831.091 242.292C842.049 254.541 851.659 268.007 859.549 282.429C860.504 284.176 861.435 285.936 862.339 287.709" fill="#F3622C"/>
<path d="M734.2 119.349C769.057 123.468 801.971 140.044 827.631 163.993C842.129 177.525 854.777 194.067 859.096 213.424C860.44 219.445 859.621 227.692 853.62 229.127C849.843 230.031 846.179 227.515 843.109 225.136C811.548 200.675 779.305 175.239 741.027 163.877C715.264 156.233 688.015 155.381 661.143 155.577C653.571 155.633 644.597 155.465 638.376 150.516C637.017 149.435 635.153 147.833 635.533 145.891C635.925 143.889 638.501 142.649 640.029 141.603C643.768 139.043 647.648 136.689 651.64 134.547C659.629 130.26 668.068 126.824 676.759 124.24C685.475 121.648 694.444 119.915 703.493 119.037C712.591 118.155 721.773 118.139 730.873 118.996C731.984 119.1 733.093 119.219 734.2 119.349" fill="#31B9A8"/>
<path d="M886.223 255.492C889.608 257.124 891.149 261.731 889.456 265.085C887.765 268.439 883.177 269.944 879.813 268.273C876.447 266.603 874.869 262.073 876.436 258.659C878.003 255.244 882.432 253.485 885.928 254.863" fill="#31B9A8"/>
<path d="M283.485 33.1667C276.128 23.776 269.293 13.424 267.359 1.65202C264.485 -15.8426 274.123 -34.6653 289.996 -42.5613C305.869 -50.4573 326.696 -46.7893 338.915 -33.9426C349.872 -22.4226 353.332 -5.89201 356.335 9.71999C358.095 18.8693 359.855 28.016 361.613 37.164C363.747 48.2547 365.671 60.5867 359.656 70.1467C356.152 75.7147 350.177 78.9386 343.829 80.0733C339.088 80.92 334.185 81.2186 329.875 78.7346C325.248 76.0693 321.383 71.8413 317.34 68.404C311.468 63.4093 305.832 58.136 300.459 52.6053C294.463 46.432 288.792 39.9413 283.485 33.1667" fill="#31B9A8"/>
<path d="M373.597 680.637C321.528 671.555 274.179 638.347 247.908 592.483C240.103 578.855 234.141 561.679 241.648 547.881C248.048 536.12 262.997 530.801 276.221 532.905C289.444 535.01 300.976 543.275 310.109 553.069C322.121 565.951 331.536 582.305 347.449 589.856C366.775 599.027 389.605 592.473 410.881 594.673C441.079 597.796 468.269 620.686 476.492 649.912C478.885 658.414 479.64 668.049 475.105 675.628C471.475 681.692 465.019 685.486 458.512 688.244C425.803 702.108 385.025 694.095 359.997 668.881" fill="#20345F"/>
<path d="M94.3355 395.372C78.3432 384.329 69.2208 364.089 71.5412 344.793C72.2896 338.56 74.2271 332.304 78.2167 327.455C82.2052 322.605 88.4875 319.376 94.7193 320.14C102.841 321.135 108.904 328.468 111.54 336.212C114.175 343.959 114.229 352.307 115.451 360.396C116.901 369.981 120.033 379.308 124.665 387.824C126.964 392.052 129.658 396.152 130.895 400.804C132.132 405.455 131.609 410.941 128.154 414.293C124.579 417.763 118.782 417.997 114.14 416.187C109.499 414.373 105.743 410.888 102.111 407.479C90.9396 396.987 79.4771 386.04 73.5552 371.905C67.6333 357.771 68.7609 339.483 80.3339 329.435" fill="#20345F"/>
<path d="M112.266 498.312C149.784 533.632 173.232 586.184 165.309 637.098C164.62 641.522 163.641 646.067 160.995 649.677C158.348 653.288 153.62 655.724 149.333 654.434C144.683 653.037 142.22 648.067 140.505 643.522C126.847 607.291 126.492 565.66 104.794 533.592C93.5448 516.965 77.4448 504.369 62.4276 491.049C47.411 477.729 32.8079 462.753 26.1724 443.808C24.6246 439.391 23.5864 434.316 25.7782 430.18C27.312 427.285 31.1636 425.421 34.385 426.24C37.0058 426.907 37.8755 430.576 39.3443 432.567C44.0282 438.913 49.3536 444.763 55.0214 450.239C66.5058 461.337 79.3224 470.921 91.7922 480.861C98.8042 486.451 105.734 492.16 112.266 498.312" fill="#FCD583"/>
<path d="M310.499 464.257C315.723 466.328 321.804 467.852 326.8 465.279C331.399 462.909 333.836 457.437 333.657 452.265C333.476 447.096 331.063 442.231 327.995 438.065C317.332 423.597 298.939 416.488 281.008 415.248C275.724 414.881 269.256 415.307 266.48 420.643C264.219 424.987 268.521 429.596 270.871 432.911C277.195 441.833 285.097 449.583 294.189 455.669C299.304 459.095 304.777 461.987 310.499 464.257" fill="#FCD583"/>
<path d="M974.023 265.684C970.573 262.575 967.453 258.916 965.911 254.535C964.368 250.153 964.625 244.945 967.444 241.253C971.605 235.799 979.833 235.284 986.332 237.485C992.829 239.685 998.411 243.972 1004.7 246.713C1012.13 249.957 1020.48 250.987 1027.41 255.395C1032.46 258.604 1037.52 264.365 1033.88 270.465C1026.71 282.496 1006.48 280.549 995.252 277.317C987.435 275.065 980.076 271.141 974.023 265.684" fill="#FCD583"/>
<path d="M278.085 130.889C283.323 132.988 288.791 135.255 292.36 139.624C295.929 143.993 296.756 151.155 292.596 154.967C289.235 158.044 284.033 157.889 279.616 156.769C273.641 155.257 268.035 152.309 263.4 148.245C258.561 144.003 254.653 136.979 257.739 131.331C260.065 127.072 265.641 125.483 270.417 126.345C275.192 127.207 279.365 129.993 283.384 132.715" fill="#FCD583"/>
<path d="M497.656 -16.3333C520.78 18.3321 567.995 34.7587 607.641 21.9334C622.149 17.2414 637.031 6.70674 638.053 -8.50526C639.059 -23.4973 625.989 -35.9293 612.227 -41.9639C583.657 -54.4933 550.804 -49.2106 520.099 -43.7053" fill="#31B9A8"/>
<path d="M10.6099 219.513C10.6099 224.053 6.33129 227.735 1.0542 227.735C-4.22341 227.735 -8.50049 224.053 -8.50049 219.513C-8.50049 214.972 -4.22341 211.291 1.0542 211.291C6.33129 211.291 10.6099 214.972 10.6099 219.513Z" fill="#20345F"/>
<path d="M11.4995 245.735C11.4995 250.276 7.22086 270.401 1.94324 270.401C-3.33383 270.401 -7.61249 250.276 -7.61249 245.735C-7.61249 241.195 -3.33383 237.513 1.94324 237.513C7.22086 237.513 11.4995 241.195 11.4995 245.735Z" fill="#20345F"/>
<path d="M765.932 408.512C769.576 413.875 772.561 419.743 775.823 425.357C779.149 431.089 782.541 436.783 785.959 442.46C789.325 448.051 792.597 453.699 795.825 459.371C797.44 462.205 798.96 465.096 800.603 467.915C802.127 470.535 803.825 473.533 806.316 475.337C806.889 475.753 807.729 475.195 807.711 474.537C807.619 471.445 805.969 468.296 804.577 465.591C803.135 462.787 801.523 460.056 799.968 457.315C796.699 451.544 793.293 445.853 789.804 440.212C786.367 434.657 782.728 429.212 778.867 423.943C776.995 421.389 775.101 418.857 773.155 416.36C770.991 413.584 768.673 410.973 766.615 408.112C766.323 407.705 765.641 408.085 765.932 408.512" fill="#F3622C"/>
<path d="M812.343 482.159C811.88 483.461 812.224 484.948 812.68 486.377C813.149 487.853 813.763 489.317 814.485 490.684C815.165 491.969 815.885 493.248 816.7 494.453C817.176 495.157 817.709 495.815 818.387 496.331C818.937 496.752 819.653 497.325 820.388 497.299C820.761 497.285 821.071 497.051 821.181 496.695C821.377 496.061 821.097 495.285 820.877 494.691C820.608 493.965 820.291 493.269 819.86 492.605C819.064 491.381 818.277 490.157 817.563 488.884C816.872 487.652 816.171 486.428 815.467 485.204C815.096 484.56 814.755 483.895 814.312 483.297C814.105 483.019 813.887 482.769 813.627 482.544C813.547 482.509 813.464 482.476 813.383 482.44C813.447 482.401 813.445 482.361 813.377 482.319C813.217 482.151 813.08 482.08 812.863 481.948C812.656 481.821 812.417 481.949 812.343 482.159" fill="#F3622C"/>
<path d="M826.495 506.548C826.367 507.833 826.568 509.265 827.183 510.409C827.5 510.999 827.924 511.527 828.431 511.965C828.716 512.212 828.899 512.297 829.241 512.439C829.187 512.417 829.133 512.395 829.08 512.372C829.125 512.397 829.171 512.423 829.217 512.447C829.276 512.477 829.333 512.507 829.393 512.535C829.904 512.777 830.396 512.776 830.907 512.54C831.14 512.432 831.345 512.088 831.315 511.829C831.264 511.409 831.141 511.033 830.851 510.708C830.8 510.652 830.74 510.596 830.685 510.543C830.565 510.428 830.711 510.561 830.729 510.617C830.665 510.432 830.479 510.24 830.348 510.103C830.167 509.911 829.996 509.713 829.819 509.516C830.209 509.952 829.604 509.241 829.675 509.327C829.641 509.287 829.607 509.248 829.572 509.207C829.548 509.177 829.523 509.147 829.5 509.116C829.436 509.037 829.465 509.076 829.588 509.231C829.568 509.176 829.505 509.119 829.472 509.071C829.175 508.643 828.879 508.204 828.657 507.731C828.629 507.671 828.529 507.513 828.66 507.745C828.628 507.688 828.611 507.62 828.587 507.56C828.541 507.436 828.504 507.312 828.475 507.184C828.444 507.056 828.417 506.929 828.396 506.801C828.379 506.693 828.379 506.655 828.391 506.787C828.384 506.707 828.376 506.628 828.369 506.548C828.329 506.061 827.965 505.588 827.432 505.611C826.883 505.636 826.547 506.025 826.495 506.548" fill="#F3622C"/>
<path d="M620.079 353.487C633.172 360.101 643.701 371.984 655.035 381.148C660.561 385.615 665.824 390.927 671.693 394.909C674.676 396.933 680.385 399.043 683.147 395.32C689.929 386.18 668.415 373.305 662.681 369.363C649.932 360.595 635.269 357.504 621.404 351.22C619.892 350.536 618.552 352.715 620.079 353.487Z" fill="#FCD583"/>
<path d="M688.215 406.797C688.611 408.683 690.019 410.628 691.677 411.548C695.036 413.411 699.905 411.113 699.683 406.955C699.58 405.036 698.747 402.829 697.161 401.591C696.196 400.836 695.339 400.285 694.087 400.117C692.945 399.964 691.671 400.109 690.673 400.753C688.588 402.097 687.704 404.381 688.215 406.797Z" fill="#FCD583"/>
<path d="M699.357 416.247C699.543 417.36 700.031 418.323 700.923 419.044C702.035 419.943 703.205 420.395 704.648 420.029C705.288 419.867 705.853 419.597 706.325 419.127C707.635 417.817 707.729 415.776 706.831 414.211C706.425 413.507 705.879 412.88 705.167 412.465C704.751 412.221 704.195 412.056 703.724 411.877C702.571 411.441 701.103 411.96 700.271 412.792C699.304 413.759 699.145 414.959 699.357 416.247" fill="#FCD583"/>
<path d="M707.281 421.348C707.253 421.368 707.224 421.387 707.195 421.407C706.135 422.12 705.515 423.372 705.875 424.651C705.973 425.003 706.125 425.355 706.301 425.675C706.881 426.723 708.328 427.345 709.487 426.971C710.681 426.584 711.54 425.535 711.556 424.252C711.56 423.877 711.496 423.489 711.415 423.124C711.281 422.524 710.856 421.996 710.385 421.632C709.843 421.212 709.329 421.092 708.645 421.015C708.221 420.968 707.64 421.108 707.281 421.348" fill="#FCD583"/>
<path d="M760.135 497.935C760.403 499.101 760.656 500.189 760.759 501.387C760.859 502.561 760.716 503.725 761.108 504.861C761.108 504.211 761.108 503.561 761.108 502.913C759.468 507.029 765.207 510.944 768.369 507.851C769.707 506.543 769.901 504.189 768.98 502.612C767.829 500.647 765.819 500.011 763.667 500.355C764.608 500.477 765.548 500.6 766.489 500.724C765.717 500.196 764.804 500.011 764.023 499.5C763.08 498.887 762.569 498.096 762.019 497.141C761.423 496.107 759.876 496.811 760.135 497.935Z" fill="#FCD583"/>
<path d="M769.725 515.087C769.748 515.219 769.771 515.351 769.792 515.484C769.881 515.147 769.971 514.811 770.059 514.473C769.943 514.573 769.827 514.675 769.709 514.775C768.695 515.647 769.06 517.349 770.121 517.977C770.151 517.995 770.18 518.012 770.209 518.029C770.748 518.348 771.381 518.367 771.947 518.128C772.536 517.879 772.86 517.451 773.077 516.863C773.091 516.827 773.104 516.793 773.116 516.759C773.592 515.472 772.376 514.207 771.151 514.177C771.032 514.175 770.912 514.172 770.793 514.169C771.092 514.34 771.391 514.512 771.689 514.684C771.625 514.569 771.56 514.455 771.497 514.34C771.261 513.924 770.717 513.755 770.285 513.943C769.817 514.151 769.643 514.596 769.725 515.087" fill="#FCD583"/>
<path d="M249.895 196.839C260.907 208.291 271.245 217.943 285.757 224.868C299.989 231.657 314.976 236.251 330.429 239.284C347.983 242.729 365.791 244.561 383.603 246.02C401.951 247.523 420.667 250.605 439.063 249.767C441.216 249.669 442.552 246.392 440.261 245.341C424.899 238.299 407.779 236.949 391.203 234.832C373.501 232.571 355.696 230.781 338.127 227.609C323.572 224.983 309.08 221.38 295.119 216.476C280.599 211.373 263.803 204.715 251.752 194.983C250.463 193.941 248.697 195.593 249.895 196.839" fill="#20345F"/>
<path d="M202.077 159.537C202.663 160.297 203.401 161.06 203.856 161.907C204.308 162.751 205.473 162.913 206.197 162.353C206.939 161.781 207.045 160.649 206.359 159.976C205.871 159.496 205.304 158.575 204.831 157.928C204.339 157.257 203.425 156.856 202.649 157.356C201.999 157.775 201.535 158.828 202.077 159.537Z" fill="#20345F"/>
<path d="M215.517 170.841C215.984 172.368 216.688 173.752 217.833 174.88C218.237 175.279 218.665 175.644 219.111 175.995C220.304 176.936 221.423 177.327 222.948 177.505C224.615 177.703 226.296 176.26 226.889 174.855C227.577 173.224 227.191 171.439 225.999 170.144C225.224 169.305 224.465 168.981 223.456 168.529C224.391 168.947 222.937 168.245 222.777 168.165C222.364 167.912 221.924 167.711 221.459 167.56C221.047 167.387 221.024 167.379 221.392 167.539C220.78 167.285 220.171 167.044 219.556 166.803C217.197 165.872 214.84 168.62 215.517 170.841" fill="#20345F"/>
<path d="M233.276 182.507C233.276 182.561 233.276 182.616 233.277 182.672C233.413 182.165 233.551 181.66 233.687 181.153C233.28 181.759 233.151 182.451 233.147 183.165C233.312 182.555 233.477 181.944 233.643 181.333C232.263 183.705 233.232 186.924 235.651 188.213C237.363 189.128 239.739 189.013 241.119 187.508C242.516 185.985 242.803 183.875 241.825 182.041C240.535 179.621 237.313 178.653 234.944 180.032C235.555 179.867 236.165 179.701 236.777 179.537C236.06 179.54 235.369 179.671 234.765 180.076C235.272 179.939 235.777 179.803 236.281 179.665C236.227 179.664 236.172 179.664 236.117 179.664C234.589 179.652 233.264 180.976 233.276 182.507Z" fill="#20345F"/>
<path d="M895.049 288.28C895.043 288.393 895.035 288.507 895.027 288.619C895.227 287.875 895.429 287.131 895.629 286.387C895.615 286.407 895.601 286.427 895.587 286.445C895.436 286.805 895.284 287.163 895.132 287.523C894.944 288.121 894.917 288.72 895.052 289.319C895.053 289.727 895.156 290.105 895.36 290.457C895.467 290.839 895.66 291.171 895.94 291.452C896.257 291.943 896.679 292.329 897.204 292.612C897.563 292.764 897.921 292.916 898.28 293.067C898.68 293.121 899.08 293.175 899.479 293.228C900.1 293.252 900.677 293.123 901.216 292.84C901.597 292.733 901.929 292.54 902.211 292.261C902.549 292.06 902.819 291.791 903.019 291.452C903.417 291.016 903.685 290.505 903.825 289.92C903.88 289.52 903.933 289.12 903.987 288.72C903.933 288.32 903.88 287.923 903.825 287.523C903.673 287.163 903.523 286.805 903.371 286.445C903.088 285.921 902.701 285.499 902.211 285.181C901.775 284.783 901.264 284.513 900.677 284.375C900.66 284.368 900.641 284.361 900.624 284.355C901.504 285.033 902.387 285.709 903.267 286.387C903.197 286.296 903.127 286.204 903.056 286.112C902.833 285.821 902.609 285.532 902.385 285.243C901.996 284.823 901.535 284.527 901.001 284.353C900.667 284.159 900.305 284.061 899.917 284.06C899.347 283.932 898.776 283.957 898.204 284.137C897.863 284.281 897.52 284.427 897.177 284.571C896.888 284.795 896.599 285.019 896.308 285.243C895.889 285.632 895.593 286.093 895.42 286.625C895.151 287.137 895.027 287.689 895.049 288.28" fill="#31B9A8"/>
<path d="M904.484 302.217C904.508 302.309 904.535 302.4 904.56 302.489C904.632 302.745 904.697 302.952 904.851 303.213C905.205 303.819 905.764 304.213 906.425 304.416C906.655 304.447 906.883 304.477 907.111 304.508C907.464 304.521 907.795 304.447 908.103 304.287C908.32 304.225 908.508 304.115 908.669 303.955C908.949 303.773 909.171 303.533 909.333 303.233C909.469 303.044 909.561 302.831 909.609 302.593C909.732 302.131 909.732 301.669 909.609 301.208C909.595 301.169 909.579 301.131 909.563 301.093C909.531 301.009 909.499 300.928 909.465 300.845C909.387 300.508 909.231 300.215 909.003 299.967C908.821 299.685 908.58 299.463 908.277 299.301C907.983 299.112 907.663 299.009 907.319 298.993C906.975 298.917 906.631 298.932 906.288 299.041C906.083 299.127 905.877 299.213 905.671 299.301C905.281 299.531 904.973 299.839 904.744 300.228C904.657 300.433 904.569 300.64 904.484 300.845C904.36 301.303 904.36 301.761 904.484 302.217" fill="#31B9A8"/>
<path d="M912.828 316.316C912.867 316.3 912.905 316.283 912.944 316.267C912.487 316.208 912.027 316.148 911.568 316.088C911.611 316.117 911.653 316.149 911.696 316.179C911.835 316.279 911.907 316.317 912.143 316.381C912.439 316.461 912.733 316.461 913.029 316.381C913.1 316.364 913.167 316.336 913.229 316.297C913.435 316.231 913.611 316.117 913.76 315.957C913.871 315.864 913.959 315.749 914.027 315.615C914.189 315.336 914.252 315.051 914.255 314.731C914.256 314.676 914.256 314.62 914.257 314.565C914.083 314.984 913.909 315.403 913.736 315.82C913.881 315.725 913.997 315.6 914.084 315.449C914.297 315.215 914.441 314.941 914.516 314.627C914.616 314.307 914.631 313.985 914.559 313.663C914.545 313.341 914.448 313.041 914.273 312.764C914.147 312.601 914.02 312.439 913.893 312.276C913.675 312.041 913.416 311.875 913.116 311.776C912.829 311.625 912.519 311.555 912.185 311.568C911.853 311.555 911.543 311.625 911.255 311.776C910.955 311.875 910.696 312.041 910.477 312.276C910.351 312.439 910.224 312.601 910.099 312.764C909.923 313.041 909.827 313.341 909.812 313.663C909.74 313.985 909.755 314.307 909.855 314.627C909.937 314.819 910.017 315.012 910.099 315.205C910.313 315.568 910.603 315.857 910.965 316.072C911.159 316.152 911.351 316.233 911.544 316.316C911.972 316.429 912.4 316.429 912.828 316.316" fill="#31B9A8"/>
<path d="M918.997 328.28C919.055 328.3 919.112 328.32 919.171 328.34C919.2 328.351 919.229 328.361 919.259 328.371C919.276 328.376 919.291 328.381 919.308 328.387C919.373 328.411 919.412 328.409 919.5 328.421C919.699 328.448 919.611 328.448 919.811 328.421C919.867 328.413 919.92 328.408 919.973 328.399C919.983 328.397 919.992 328.396 920 328.395C920.017 328.392 920.035 328.389 920.052 328.387C920.088 328.381 920.123 328.375 920.16 328.371C920.297 328.332 920.416 328.263 920.517 328.161C920.619 328.06 920.688 327.94 920.727 327.803C920.732 327.768 920.737 327.733 920.743 327.699C920.745 327.681 920.748 327.664 920.751 327.647C920.752 327.637 920.755 327.627 920.756 327.617C920.756 327.613 920.757 327.609 920.757 327.605C920.771 327.505 920.784 327.404 920.797 327.304C920.8 327.249 920.793 327.196 920.777 327.143C920.765 327.049 920.767 327.019 920.744 326.951C920.739 326.936 920.733 326.923 920.728 326.908C920.719 326.877 920.709 326.849 920.699 326.819C920.677 326.76 920.657 326.7 920.636 326.64C920.573 326.415 920.459 326.217 920.293 326.051C920.127 325.885 919.932 325.772 919.705 325.708C919.247 325.583 918.744 325.715 918.408 326.051C918.072 326.388 917.939 326.889 918.064 327.349C918.128 327.575 918.243 327.771 918.408 327.937C918.575 328.101 918.771 328.216 918.997 328.28" fill="#31B9A8"/>
<path d="M924.684 337.529C926.803 337.529 926.805 334.237 924.684 334.237C922.565 334.237 922.563 337.529 924.684 337.529Z" fill="#31B9A8"/>
<path d="M360.709 98.648C360.748 98.6813 360.787 98.7147 360.827 98.7494C361.172 99.016 361.517 99.284 361.864 99.5507C362.273 99.7227 362.68 99.8947 363.088 100.068C363.543 100.129 363.997 100.189 364.451 100.249C365.157 100.277 365.816 100.131 366.427 99.8093C366.861 99.688 367.237 99.468 367.557 99.1494C367.943 98.9214 368.249 98.616 368.477 98.2307C368.795 97.9107 369.015 97.5334 369.136 97.0987C369.457 96.4881 369.605 95.8294 369.577 95.1241C369.572 95.0761 369.567 95.028 369.56 94.9813C369.557 94.044 369.323 93.172 368.853 92.364C368.392 91.5827 367.772 90.964 366.993 90.5027C366.184 90.0334 365.312 89.7974 364.376 89.7947C363.663 89.7667 362.996 89.916 362.379 90.2414C361.735 90.4507 361.179 90.808 360.709 91.3147C360.065 91.9613 359.621 92.7227 359.376 93.6027C359.128 94.5214 359.128 95.44 359.376 96.3587C359.621 97.2374 360.065 98 360.709 98.648Z" fill="#31B9A8"/>
<path d="M381.569 112.931C382.151 112.952 382.693 112.831 383.196 112.567C383.72 112.396 384.172 112.105 384.555 111.695C384.968 111.312 385.259 110.859 385.429 110.335C385.693 109.831 385.815 109.289 385.792 108.707C385.743 108.333 385.692 107.959 385.641 107.585C385.441 106.869 385.079 106.248 384.555 105.72C384.271 105.5 383.987 105.28 383.701 105.06C383.043 104.679 382.332 104.485 381.569 104.483C380.988 104.461 380.444 104.583 379.943 104.848C379.419 105.017 378.965 105.309 378.583 105.72C378.171 106.103 377.88 106.556 377.709 107.08C377.444 107.583 377.324 108.125 377.345 108.707C377.396 109.081 377.445 109.456 377.497 109.829C377.697 110.545 378.059 111.167 378.583 111.695C378.868 111.915 379.153 112.135 379.437 112.355C380.096 112.736 380.807 112.928 381.569 112.931" fill="#31B9A8"/>
<path d="M394.313 119.571C394.637 119.583 394.941 119.516 395.22 119.367C395.512 119.272 395.765 119.111 395.979 118.881C396.208 118.668 396.371 118.416 396.465 118.124C396.612 117.843 396.68 117.54 396.667 117.216C396.64 117.008 396.611 116.8 396.584 116.591C396.472 116.192 396.271 115.845 395.979 115.552C395.82 115.428 395.661 115.307 395.501 115.184C395.135 114.971 394.739 114.864 394.313 114.861C393.991 114.851 393.687 114.919 393.407 115.065C393.115 115.16 392.863 115.321 392.649 115.552C392.42 115.764 392.257 116.017 392.163 116.311C392.015 116.591 391.947 116.892 391.959 117.216C391.988 117.425 392.016 117.635 392.044 117.843C392.156 118.241 392.357 118.588 392.649 118.881C392.808 119.004 392.967 119.127 393.125 119.249C393.493 119.463 393.888 119.569 394.313 119.571" fill="#31B9A8"/>
<path d="M137.443 429.027C137.973 429.045 138.468 428.935 138.928 428.695C139.405 428.54 139.82 428.272 140.168 427.897C140.545 427.547 140.811 427.135 140.967 426.655C141.208 426.196 141.319 425.701 141.299 425.169C141.253 424.828 141.207 424.485 141.161 424.145C140.977 423.491 140.647 422.924 140.168 422.443C139.908 422.241 139.649 422.04 139.388 421.84C138.787 421.491 138.139 421.316 137.443 421.313C136.911 421.293 136.416 421.404 135.956 421.645C135.479 421.801 135.064 422.067 134.716 422.443C134.339 422.792 134.073 423.207 133.917 423.684C133.676 424.144 133.565 424.639 133.585 425.169C133.631 425.512 133.677 425.853 133.723 426.196C133.907 426.848 134.236 427.416 134.716 427.897C134.975 428.097 135.235 428.299 135.496 428.5C136.097 428.849 136.745 429.024 137.443 429.027" fill="#20345F"/>
<path d="M145.252 435.624C145.271 435.76 145.288 435.896 145.308 436.033C145.473 436.621 145.772 437.133 146.203 437.567C146.636 437.997 147.148 438.296 147.736 438.461C148.045 438.503 148.353 438.544 148.661 438.585C149.288 438.584 149.875 438.425 150.416 438.111C150.821 437.892 151.147 437.595 151.392 437.215C151.7 436.879 151.907 436.484 152.015 436.033C152.18 435.416 152.18 434.8 152.015 434.184C151.849 433.595 151.552 433.083 151.12 432.649C151.021 432.559 150.923 432.471 150.824 432.38C150.599 432.207 150.375 432.033 150.149 431.86C149.767 431.615 149.353 431.484 148.909 431.464C148.613 431.384 148.319 431.384 148.023 431.464C147.579 431.484 147.165 431.615 146.783 431.86C146.559 432.033 146.333 432.207 146.109 432.38C145.936 432.605 145.761 432.829 145.588 433.055C145.344 433.437 145.212 433.851 145.192 434.295C145.093 434.737 145.112 435.181 145.252 435.624" fill="#20345F"/>
<path d="M248.135 518.823C248.112 518.795 248.091 518.765 248.068 518.737C248.211 519.263 248.352 519.785 248.495 520.311C248.413 519.267 248.125 518.452 247.396 517.66C247.044 517.276 246.609 516.992 246.195 516.675C246.463 516.881 246.732 517.089 247 517.296C246.249 516.708 245.944 516.503 245.049 516.153C244.889 516.092 244.732 516.031 244.571 515.976C243.967 515.772 243.328 515.721 242.693 515.665C241.701 515.577 240.629 515.661 239.664 515.864C237.591 516.297 235.841 517.371 234.203 518.652C232.879 519.689 231.748 521.041 230.887 522.483C230.363 523.356 229.871 524.356 229.643 525.343C229.344 526.636 229.459 527.321 229.655 528.589C229.869 529.977 230.877 531.044 231.979 531.821C231.276 530.908 230.573 529.995 229.871 529.081C230.06 529.713 230.347 530.261 230.673 530.817C231.403 532.056 232.756 532.837 234.196 532.837C234.933 532.835 235.619 532.649 236.255 532.28C236.868 531.917 237.356 531.429 237.719 530.817C237.745 530.78 237.773 530.745 237.799 530.708C237.583 530.989 237.365 531.269 237.149 531.551C237.524 531.1 237.916 530.665 238.251 530.177C237.337 530.879 236.424 531.581 235.511 532.284C236.575 532.003 237.469 531.353 238.135 530.491C238.379 530.175 238.605 529.853 238.844 529.535C238.581 529.875 238.319 530.215 238.055 530.555C238.46 530.036 238.857 529.601 239.111 529.015C239.365 528.424 239.604 527.825 239.847 527.231C239.673 527.64 239.501 528.048 239.329 528.456C239.645 527.713 240.051 527.024 240.535 526.377C240.269 526.72 240.004 527.064 239.74 527.407C240.301 526.681 240.944 526.04 241.668 525.479C241.331 525.739 240.992 526 240.653 526.263C241.735 525.447 242.9 524.792 244.144 524.259C243.776 524.413 243.407 524.569 243.039 524.724C244.832 523.989 247.011 523.728 248.068 521.881C247.696 522.255 247.324 522.627 246.951 522.999C246.985 522.984 247.017 522.972 247.052 522.957C247.669 522.695 248.296 521.784 248.44 521.151C248.608 520.417 248.616 519.451 248.135 518.823" fill="#20345F"/>
<path d="M231.428 504.731C231.12 504.643 230.804 504.6 230.499 504.517C230.205 504.437 229.919 504.355 229.617 504.304C230.055 504.557 230.492 504.813 230.929 505.068C230.459 504.571 229.82 504.295 229.173 504.111C229.656 504.392 230.137 504.672 230.619 504.953C229.871 504.281 229.049 503.929 228.043 503.905C227.856 503.9 227.668 503.917 227.481 503.904C226.82 503.857 226.199 503.907 225.539 504.071C224.851 504.24 224.193 504.551 223.557 504.852C223.056 505.091 222.625 505.381 222.185 505.721C219.433 507.848 216.925 512.707 220.009 515.6C219.791 515.317 219.572 515.033 219.352 514.749C219.364 514.773 219.376 514.799 219.388 514.823C219.937 515.968 221.221 516.641 222.415 516.801C223.731 516.979 224.928 516.583 225.895 515.661C225.917 515.641 225.939 515.621 225.96 515.6C225.341 515.961 224.721 516.321 224.104 516.683C224.891 516.404 225.617 516.076 226.22 515.476C226.572 515.121 226.861 514.691 227.071 514.237C227.349 513.635 227.551 513.013 227.803 512.403C227.652 512.763 227.499 513.123 227.348 513.483C227.576 512.955 227.865 512.465 228.212 512.007C227.979 512.308 227.747 512.608 227.513 512.909C227.985 512.303 228.468 511.707 228.933 511.095C228.707 511.387 228.48 511.68 228.255 511.973C228.497 511.663 228.759 511.373 229.043 511.1C229.168 510.98 229.292 510.859 229.421 510.741C229.799 510.396 230.055 510.043 230.384 509.612C230.184 509.871 229.985 510.128 229.785 510.385C229.888 510.256 229.991 510.124 230.109 510.009C229.868 510.196 229.627 510.381 229.387 510.568C229.528 510.465 229.675 510.373 229.82 510.275C230.073 510.099 230.355 509.891 230.579 509.676C231.039 509.235 231.244 508.715 231.463 508.143C231.181 508.624 230.9 509.107 230.619 509.589C230.927 509.317 231.205 509.065 231.393 508.669C231.039 509.025 230.683 509.38 230.328 509.736C230.445 509.679 230.564 509.624 230.685 509.573C230.46 509.668 230.233 509.763 230.007 509.86C230.201 509.781 230.396 509.708 230.597 509.651C230.363 509.683 230.128 509.713 229.893 509.747C230.18 509.719 230.464 509.712 230.752 509.723C232.015 509.772 233.087 508.717 233.248 507.52C233.415 506.273 232.653 505.083 231.428 504.731" fill="#20345F"/>
<path d="M216.405 495.12C216.151 495.197 215.895 495.275 215.64 495.352C216.42 495.455 217.201 495.556 217.981 495.659C217.851 495.585 217.715 495.525 217.571 495.481C217.445 495.412 217.316 495.357 217.18 495.317C216.896 495.28 216.613 495.241 216.331 495.204C216.04 495.237 215.749 495.276 215.46 495.32C216.285 495.429 217.111 495.537 217.935 495.645C217.641 495.415 217.307 495.261 216.927 495.184C216.595 495.14 216.263 495.096 215.931 495.049C215.413 495.031 214.933 495.139 214.485 495.373C214.02 495.524 213.619 495.783 213.279 496.149C212.913 496.488 212.655 496.889 212.503 497.355C212.269 497.803 212.161 498.284 212.18 498.8C212.161 499.316 212.269 499.797 212.503 500.244C212.655 500.708 212.913 501.111 213.279 501.451C213.532 501.647 213.784 501.841 214.039 502.037C214.623 502.376 215.253 502.547 215.931 502.549C216.263 502.504 216.595 502.46 216.927 502.416C217.561 502.237 218.113 501.916 218.581 501.451C218.777 501.199 218.972 500.945 219.167 500.692C219.443 500.263 219.591 499.797 219.612 499.299C219.724 498.8 219.703 498.301 219.547 497.803C219.469 497.424 219.316 497.088 219.085 496.796C219.193 497.62 219.301 498.444 219.408 499.268C219.432 499.121 219.451 498.973 219.469 498.823C219.564 498.399 219.545 497.975 219.412 497.549C219.335 497.269 219.213 497.001 219.071 496.749C219.172 497.529 219.276 498.309 219.377 499.091C219.455 498.833 219.532 498.579 219.611 498.323C219.877 497.44 219.584 496.432 218.94 495.789C218.615 495.467 218.231 495.244 217.791 495.12C217.329 494.995 216.868 494.995 216.405 495.12" fill="#20345F"/>
<path d="M205.869 491.605C209.515 491.605 209.521 485.939 205.869 485.939C202.223 485.939 202.217 491.605 205.869 491.605Z" fill="#20345F"/>
<path d="M283.776 308.977C283.74 309.399 284.027 310.916 283.849 309.864C283.675 308.825 283.977 310.713 284.012 310.892C284.012 310.048 284.012 309.204 284.012 308.36C284.011 308.368 284.008 308.376 284.007 308.385C283.576 310.436 284.247 313.24 286.376 314.207C289.629 315.683 293.108 316.744 296.468 317.955C300.287 319.333 306.741 322.364 308.984 317.052C309.775 315.176 309.28 313.088 307.825 311.668C306.679 310.551 305.561 310.049 304.089 309.472C302.625 308.897 301.131 308.415 299.644 307.909C296.576 306.868 293.488 305.577 290.347 304.785C288.245 304.255 285.559 305.107 284.527 307.153C284.772 306.655 285.132 306.272 285.608 306.007C285.171 306.241 284.821 306.563 284.557 306.971C284.075 307.596 283.843 308.163 283.776 308.977" fill="#31B9A8"/>
<path d="M254.497 293.995C254.105 294.501 253.983 295.153 253.999 295.785C254.125 295.313 254.255 294.839 254.383 294.367C253.493 295.605 253.939 297.109 254.56 298.323C254.916 299.019 255.589 299.535 256.192 299.999C256.797 300.468 256.735 300.389 257.623 300.756C257.711 300.792 257.796 300.827 257.885 300.86C258.217 300.981 258.505 301.023 258.868 301.071C259.976 301.22 261.12 301.112 262.109 300.517C263.205 299.856 263.901 298.681 263.901 297.392C263.899 296.739 263.735 296.129 263.407 295.564C263.085 295.021 262.653 294.588 262.109 294.265C261.647 293.924 261.065 293.809 260.541 293.592C260.847 293.72 261.153 293.849 261.459 293.98C260.821 293.704 260.104 293.387 259.403 293.257C259.212 293.221 259.024 293.175 258.837 293.117C258.365 292.973 257.867 292.957 257.377 292.896C257.679 292.937 257.981 292.979 258.283 293.019C258.188 293.005 258.095 292.988 257.999 292.973C257.847 292.941 257.693 292.921 257.539 292.909C257.253 292.832 256.967 292.832 256.68 292.909C256.388 292.909 256.117 292.984 255.865 293.129C255.687 293.169 255.529 293.245 255.391 293.357C255.865 293.228 256.337 293.1 256.811 292.973C256.779 292.969 256.748 292.965 256.717 292.961C256.959 292.993 257.2 293.025 257.441 293.057C257.149 293.015 256.809 292.917 256.54 292.929C256.261 292.941 255.955 292.984 255.692 293.076C255.432 293.137 255.205 293.257 255.011 293.433C254.793 293.575 254.621 293.763 254.497 293.995" fill="#31B9A8"/>
<path d="M220.093 279.025C220.269 279.168 220.444 279.311 220.621 279.453C220.705 279.523 220.789 279.591 220.875 279.657C220.92 279.696 220.965 279.733 221.012 279.769C221.133 279.869 221.257 279.965 221.383 280.057C221.504 280.156 221.628 280.252 221.755 280.344C221.94 280.453 222.136 280.545 222.327 280.648C222.431 280.703 222.533 280.76 222.637 280.813C223.123 281.059 223.657 281.255 224.213 281.227C224.479 281.192 224.743 281.156 225.008 281.12C225.32 281.047 225.6 280.917 225.849 280.732C225.183 280.819 224.516 280.907 223.849 280.993C223.931 281.009 224.009 281.027 224.091 281.043C224.225 281.071 224.349 281.084 224.496 281.103C224.897 281.156 224.785 281.16 225.185 281.105C225.504 281.092 225.803 280.996 226.079 280.82C226.24 280.696 226.403 280.571 226.564 280.445C226.568 280.441 226.572 280.439 226.575 280.435C226.648 280.363 226.651 280.345 226.756 280.208C226.855 280.081 226.879 280.064 226.931 279.977C226.935 279.971 226.937 279.965 226.941 279.959C227.021 279.767 227.103 279.577 227.183 279.385C227.212 279.172 227.24 278.96 227.269 278.747C227.24 278.535 227.212 278.32 227.183 278.108C227.177 278.093 227.173 278.077 227.168 278.061C227.108 277.856 226.992 277.625 226.899 277.429C226.86 277.347 226.82 277.263 226.78 277.18C226.868 277.847 226.955 278.513 227.043 279.18C227.12 279.008 227.157 278.825 227.152 278.632C227.241 278.235 227.223 277.836 227.099 277.439C227.06 277.297 227.005 277.16 226.933 277.032C226.811 276.655 226.603 276.331 226.307 276.056C226.236 275.976 226.164 275.895 226.092 275.816C225.941 275.648 225.797 275.469 225.64 275.309C225.333 274.997 224.885 274.724 224.521 274.448C224.332 274.305 224.144 274.161 223.955 274.019C223.589 273.785 223.195 273.659 222.771 273.641C222.347 273.545 221.923 273.564 221.499 273.697C221.245 273.805 220.992 273.912 220.737 274.019C220.367 274.219 220.068 274.492 219.843 274.84C219.647 275.039 219.509 275.272 219.433 275.543C219.233 275.924 219.143 276.332 219.16 276.771C219.197 277.053 219.235 277.336 219.273 277.619C219.424 278.157 219.697 278.628 220.093 279.025" fill="#31B9A8"/>
<path d="M608.444 629.46C615.665 624.477 625.46 624.339 633.672 627.427C641.885 630.514 648.727 636.44 654.648 642.914C660.879 649.724 666.383 657.422 669.235 666.201C672.088 674.98 672.053 684.973 667.665 693.095C662.373 702.896 651.729 708.237 640.875 708.698C633.343 709.019 625.225 708.271 618.983 703.639C613.48 699.555 610.335 693.183 607.835 686.977C604.333 678.284 600.439 668.792 598.563 659.617C596.377 648.917 598.983 635.988 608.444 629.46" fill="#FCD583"/>
<path d="M397.233 644.568C397.648 636.509 404.756 629.467 412.791 628.722C420.827 627.981 428.916 633.305 431.808 640.839C435.568 650.637 429.82 663.003 419.888 666.397C409.957 669.792 397.812 663.485 394.92 653.397C392.029 643.308 399.039 631.498 409.289 629.252" fill="#31B9A8"/>
<path d="M97.8303 353.136C100.729 348.395 97.0527 341.171 91.5151 340.721C85.9771 340.272 81.187 346.811 83.2834 351.956C85.3798 357.1 93.3755 358.429 97.023 354.239" fill="#31B9A8"/>
<path d="M105.555 27.2333C110.122 31.0493 108.778 39.276 103.748 42.456C98.7183 45.636 91.6959 44.2027 87.2755 40.2187C82.8547 36.2347 80.7011 30.2547 79.9615 24.3494C79.4615 20.3574 79.661 15.9267 82.2626 12.8587C86.5084 7.84933 95.1516 9.31465 99.6724 14.076C104.195 18.8386 105.682 25.64 106.986 32.076" fill="#31B9A8"/>
<path d="M718.132 245.431C715.919 239.879 715.205 232.624 719.753 228.745C726.549 222.948 736.928 229.151 742.471 233.743C747.953 238.284 754.837 243.017 758.553 249.235C761.963 254.941 760.607 263.045 756.357 268.056C751.153 274.195 741.553 270.591 735.993 267.028C728 261.908 721.648 254.252 718.132 245.431Z" fill="#31B9A8"/>
<path d="M521.009 255.308C524.945 256.697 529.599 259.939 528.253 263.889C527.441 266.275 524.768 267.397 522.361 268.144C511.543 271.497 500.136 272.916 488.825 272.392C483.237 272.133 477.671 271.401 472.209 270.195C467.391 269.131 461.236 268.079 457.636 264.403C452.732 259.395 454.281 251.051 461.271 249.633C468.531 248.16 476.408 249.903 483.756 249.784C496.496 249.579 508.941 251.048 521.009 255.308Z" fill="#31B9A8"/>
<path d="M47.2651 630.409C42.6542 631.343 37.9839 628.357 35.3912 624.431C32.799 620.505 31.8027 615.777 30.6516 611.215C26.6776 595.463 20.274 580.325 11.7391 566.503C8.7818 561.714 5.18024 556.172 5.54638 550.289C5.86409 545.186 9.4995 541.437 14.2938 540.096C25.049 537.083 33.0932 546.537 39.8027 553.433C44.5084 558.271 48.5188 563.427 50.8615 569.815C54.1636 578.817 56.2938 589.027 57.2156 598.529C58.0672 607.307 59.4798 627.939 47.2651 630.409" fill="#20345F"/>
<path d="M879.595 411.727C878.515 423.371 885.741 434.457 893.397 442.593C902.253 452.003 913.347 458.701 923.605 466.403C926.087 468.265 928.544 470.16 930.881 472.205C932.715 473.808 934.719 475.901 935.471 477.752C935.532 477.9 935.964 479.537 935.88 478.919C935.92 479.209 935.921 479.548 935.905 479.847C935.939 479.228 935.911 479.897 935.855 480.041C935.511 480.917 935.688 480.473 935.759 480.311C935.461 480.996 935.439 480.804 935.603 480.591C935.283 481.005 935.177 481.013 935.439 480.82C935.077 481.088 934.627 481.348 934.215 481.521C934.661 481.335 933.376 481.724 933.204 481.764C933.132 481.78 932.156 481.956 932.58 481.897C933.004 481.837 932.02 481.936 931.944 481.94C930.732 482.009 928.969 481.936 928.112 481.815C916.744 480.176 907.533 470.712 899.779 462.801C891.848 454.708 884.38 445.484 880.008 435.071C878.017 430.328 876.096 424.627 876.268 419.593C876.277 419.307 876.295 419.019 876.321 418.732C876.261 419.396 876.321 418.707 876.347 418.585C876.467 418.044 876.584 417.501 876.783 416.984C876.537 417.624 877.085 416.495 877.248 416.268C876.755 416.957 877.203 416.271 877.301 416.268C876.981 416.487 876.944 416.519 877.195 416.363C877.443 416.224 877.403 416.228 877.076 416.373C877.584 416.183 877.201 416.253 877.453 416.364C877.699 416.471 877.931 416.592 878.216 416.833C879.165 417.643 879.477 418.881 879.765 420.053C880.5 423.04 880.931 426.027 881.979 428.936C883.045 431.895 884.379 434.783 885.963 437.499C889.093 442.869 893.175 447.716 897.623 452.039C902.503 456.779 907.864 461.036 913.245 465.189C915.765 467.135 918.299 469.071 920.737 471.117C921.815 472.023 922.905 472.985 923.769 474.101C923.639 473.932 923.497 473.692 923.999 474.447C924.188 474.733 924.359 475.032 924.528 475.332C924.723 475.679 924.835 476.096 924.868 476.372C924.805 475.847 924.637 477.024 924.831 476.54C925.036 476.024 924.503 477.217 924.727 476.725C925.059 475.989 924.772 476.651 924.387 476.941C925.091 476.409 924.336 476.923 924.261 476.92C924.828 476.937 924.471 476.869 924.163 476.936C923.875 477 923.595 477.096 923.301 477.137C924.237 477.001 922.852 477.08 922.76 477.079C922.527 477.073 921.949 476.879 922.673 477.067C922.356 476.984 922.044 476.909 921.733 476.796C921.885 476.852 922.439 477.181 921.367 476.628C921.051 476.464 920.739 476.283 920.436 476.095C919.432 475.471 918.591 474.693 917.589 473.727C913.093 469.388 908.901 464.701 904.959 459.859C897.256 450.392 890.643 439.727 884.647 428.963C883.164 426.301 881.361 423.871 879.579 421.405C877.779 418.916 874.04 420.389 874.629 423.492C875.971 430.545 878.959 436.88 882.427 443.131C885.797 449.207 889.636 454.985 893.816 460.533C898.06 466.164 902.584 471.576 907.457 476.673C912.351 481.791 918.007 487.612 925.772 486.096C929.361 485.393 932.507 482.847 933.629 479.32C934.868 475.433 933.377 471.544 930.987 468.465C928.8 465.651 925.951 463.551 923.156 461.38C920.024 458.951 916.849 456.583 913.688 454.192C903.484 446.479 892.625 437.231 888.797 424.525C887.779 421.147 887.495 417.607 885.948 414.392C884.327 411.015 880.979 408.291 877.107 408.265C869.808 408.219 867.239 416.048 867.912 422.12C869.411 435.625 876.052 447.712 884.341 458.232C888.444 463.437 893.008 468.265 897.779 472.86C902.699 477.595 907.908 482.228 913.845 485.655C919.564 488.957 926.476 491.336 933.163 490.571C936.948 490.137 940.515 488.745 942.812 485.559C944.921 482.633 945.212 478.751 943.999 475.401C941.467 468.421 934.875 463.595 929.064 459.416C923.244 455.228 917.193 451.369 911.219 447.412C900.816 440.525 890.296 431.913 885.347 420.093C884.167 417.272 883.156 414.304 882.377 411.349C881.948 409.721 879.736 410.203 879.595 411.727" fill="#FCD583"/>
<path d="M876.143 425.079C877.904 429.812 879.317 434.605 881.635 439.124C883.857 443.46 886.472 447.569 889.399 451.463C895.548 459.641 903.141 466.744 911.627 472.459C914.132 474.147 916.709 475.699 919.521 476.819C920.747 477.308 922.016 477.844 923.328 478.072C924.075 478.201 924.851 478.337 925.612 478.352C925.933 478.357 926.272 478.364 926.588 478.276C926.884 478.215 927.145 478.092 927.372 477.908C927.567 477.772 927.52 477.787 927.233 477.951C928.836 477.896 929.325 476.175 928.441 475.035C928.545 475.169 928.733 476.112 928.593 475.205C928.512 474.695 928.34 474.301 928.041 473.881C927.744 473.464 927.357 473.069 927.001 472.697C926.137 471.795 925.132 471.073 924.149 470.344C922.221 468.912 920.137 467.425 918.047 466.044C914.009 463.381 910.655 460.821 907.113 457.725C900.189 451.669 893.912 444.652 888.668 437.093C885.643 432.729 882.355 428.236 880.217 423.361C879.212 421.071 875.26 422.709 876.143 425.079" fill="#FCD583"/>
<path d="M921.788 472.652C922.495 474.892 923.775 476.688 925.609 478.152C927.541 479.696 929.753 480.777 932.203 481.207C931.341 479.693 930.483 478.179 929.621 476.664C929.371 478.16 929.221 479.639 929.104 481.151C930.467 479.787 931.831 478.424 933.193 477.06C932.281 477.068 931.38 477.087 930.471 477.005C930.317 476.992 929.509 476.888 930.209 476.988C930.932 477.091 930.033 476.953 929.952 476.939C929.505 476.861 929.061 476.767 928.621 476.657C927.783 476.449 926.959 476.187 926.155 475.873C925.943 475.791 925.733 475.701 925.523 475.615C925.387 475.56 924.643 475.247 925.265 475.52C925.908 475.804 925.076 475.431 925.012 475.401C924.805 475.305 924.601 475.204 924.396 475.104C923.613 474.725 922.877 474.292 922.119 473.871C921.723 473.651 921.319 473.463 920.941 473.209C920.753 473.087 920.577 472.947 920.395 472.816C919.979 472.516 921.087 473.352 920.38 472.8C919.856 472.392 919.323 472.04 918.697 471.807C918.939 471.896 918.947 472.008 918.693 471.793C918.487 471.619 918.281 471.44 918.076 471.263C917.825 471.049 917.565 470.852 917.307 470.649C917.656 470.924 917.191 470.553 917.129 470.501C916.667 470.121 916.232 469.805 915.707 469.527C914.355 468.813 912.787 469.705 912.728 471.236C912.68 472.467 913.065 473.623 913.591 474.724C913.707 474.968 913.833 475.207 913.964 475.443C914.016 475.539 914.436 476.096 914.179 475.761C913.939 475.447 914.263 475.943 914.309 476.059C914.665 476.929 914.723 477.125 915.324 477.856C916.72 479.559 918.367 481.052 920.235 482.224C922.109 483.4 924.251 484.215 926.405 484.699C928.573 485.184 930.968 485.504 933.193 485.24C934.265 485.113 935.315 484.883 936.087 484.041C936.785 483.281 937.373 482.221 937.284 481.151C937.16 479.639 937.005 478.159 936.745 476.664C936.489 475.191 934.673 473.828 933.184 473.952C932.717 473.991 932.251 474.008 931.783 473.992C931.599 473.985 931.413 473.969 931.228 473.961C930.569 473.929 931.573 474.049 931.159 473.961C930.287 473.775 929.441 473.577 928.593 473.293C928.424 473.237 928.229 473.151 928.508 473.271C928.292 473.177 928.081 473.073 927.872 472.967C927.5 472.776 927.137 472.567 926.787 472.339C926.1 471.891 925.377 471.457 924.748 470.929C923.491 469.873 921.216 470.832 921.788 472.652" fill="#FCD583"/>
<path d="M877.725 416.196C877.691 417.644 877.595 419.103 877.632 420.552C877.649 421.248 877.641 421.949 877.692 422.644C877.772 423.74 878.001 424.823 878.519 425.796C878.977 426.655 880.031 427.088 880.957 426.964C881.923 426.833 882.712 426.152 882.992 425.211C883.512 423.459 883.041 421.612 882.731 419.863C882.481 418.447 882.1 417.047 881.777 415.648C881.548 414.647 880.484 414.04 879.515 414.169C878.493 414.307 877.752 415.159 877.725 416.196" fill="#FCD583"/>
<path d="M876.865 416.465C876.721 417.116 876.576 417.767 876.432 418.42C876.523 418.204 876.613 417.985 876.705 417.769C876.476 418.293 876.28 418.767 876.149 419.317C876.061 419.681 875.976 420.041 875.904 420.409C875.595 422.008 875.5 424.091 876.809 425.292C877.396 425.833 878.229 426.26 879.055 426.223C879.917 426.184 880.66 425.883 881.3 425.292C882.609 424.089 882.515 422.008 882.204 420.409C882.137 420.061 882.056 419.719 881.973 419.375C881.933 419.204 881.895 419.031 881.851 418.86C881.752 418.477 881.561 418.129 881.403 417.769C881.495 417.985 881.587 418.204 881.677 418.42C881.533 417.767 881.389 417.116 881.244 416.465C881.039 415.535 880.007 414.756 879.055 414.797C878.089 414.841 877.087 415.467 876.865 416.465" fill="#FCD583"/>
<path d="M868.047 392.211C867.948 392.251 867.848 392.276 867.744 392.292C868.177 392.233 868.611 392.175 869.045 392.116C868.965 392.127 868.887 392.129 868.805 392.123C870.235 392.943 871.667 393.764 873.097 394.585C873.087 394.555 873.073 394.528 873.057 394.501C872.787 394.151 872.517 393.801 872.247 393.451C871.777 392.945 871.221 392.589 870.577 392.379C870.173 392.145 869.737 392.027 869.269 392.025C868.58 391.871 867.889 391.901 867.201 392.117C867.136 392.143 867.069 392.16 867 392.171C867.452 392.109 867.904 392.048 868.356 391.988C868.328 391.991 868.299 391.993 868.271 391.995C867.815 392.055 867.359 392.116 866.904 392.179C866.048 392.419 865.303 392.852 864.671 393.48C864.66 393.492 864.651 393.505 864.637 393.517C865.787 393.04 866.939 392.564 868.089 392.088C868.083 392.088 868.077 392.088 868.072 392.088C868.503 392.145 868.936 392.204 869.367 392.263C869.336 392.253 869.308 392.243 869.279 392.229C869.665 392.392 870.051 392.555 870.435 392.717C870.372 392.689 870.313 392.655 870.259 392.613C870.58 392.863 870.901 393.111 871.223 393.359C871.2 393.341 871.179 393.321 871.157 393.304C871 393.171 870.837 393.045 870.671 392.928C870.376 392.635 870.028 392.431 869.628 392.319C869.259 392.105 868.861 391.997 868.435 391.996C868.188 391.917 867.943 391.892 867.693 391.923C869.055 392.959 870.416 393.993 871.777 395.031C871.735 394.931 871.705 394.828 871.689 394.721C871.739 395.085 871.787 395.448 871.836 395.812C871.827 395.728 871.828 395.648 871.827 395.564C871.824 394.843 871.643 394.169 871.28 393.545C870.925 392.945 870.447 392.468 869.845 392.112C869.223 391.751 868.551 391.568 867.829 391.567C867.107 391.568 866.435 391.751 865.811 392.112C865.627 392.249 865.157 392.592 864.987 392.749C864.976 392.757 864.967 392.765 864.957 392.775C864.94 392.792 864.923 392.809 864.905 392.828C864.889 392.845 864.873 392.865 864.857 392.883C864.625 393.163 864.389 393.471 864.176 393.765C864.147 393.808 864.119 393.851 864.095 393.896C864.083 393.917 864.072 393.939 864.061 393.961C863.9 394.309 863.753 394.676 863.611 395.031C864.596 394.044 865.581 393.059 866.567 392.073C866.56 392.076 866.556 392.079 866.549 392.081C866.172 392.24 865.795 392.399 865.419 392.557C864.868 392.855 864.425 393.261 864.092 393.776C863.799 394.071 863.596 394.419 863.484 394.819C863.188 395.383 863.052 395.989 863.076 396.641C863.093 396.859 863.121 397.075 863.163 397.288C863.187 397.505 863.216 397.721 863.251 397.936C863.253 397.956 863.257 397.975 863.261 397.993C863.269 398.027 863.279 398.059 863.289 398.091C863.293 398.099 863.296 398.107 863.3 398.115C863.461 398.499 863.623 398.881 863.784 399.264C863.792 399.283 863.8 399.3 863.809 399.317C863.827 399.352 863.845 399.384 863.867 399.416C863.703 399.028 863.54 398.641 863.376 398.253C863.377 398.259 863.38 398.263 863.381 398.267C863.381 397.403 863.381 396.537 863.381 395.672C863.377 395.684 863.375 395.696 863.372 395.708C862.893 397.452 863.393 399.411 864.709 400.668C865.619 401.541 866.049 401.651 867.201 402.12C867.661 402.181 868.12 402.244 868.58 402.305C869.293 402.332 869.96 402.183 870.577 401.859C871.017 401.735 871.399 401.513 871.723 401.192C872.287 400.825 872.732 400.341 873.057 399.736C873.164 399.536 873.252 399.325 873.324 399.108C873.471 398.893 873.561 398.661 873.597 398.415C872.836 399.404 872.075 400.395 871.313 401.384C871.752 401.124 872.163 400.803 872.529 400.448C872.564 400.415 872.599 400.377 872.629 400.34C872.892 400.021 873.167 399.661 873.412 399.327C873.431 399.304 873.447 399.28 873.463 399.257C873.624 398.873 873.784 398.492 873.945 398.111C874.003 397.687 874.06 397.261 874.117 396.836C874.06 396.411 874.003 395.985 873.945 395.561C873.797 394.936 873.512 394.393 873.088 393.929C872.875 393.569 872.588 393.283 872.227 393.069C871.928 392.772 871.576 392.567 871.169 392.453C870.795 392.236 870.392 392.127 869.959 392.125C869.321 391.984 868.684 392.011 868.047 392.211" fill="#FCD583"/>
<path d="M857.724 376.843C857.815 376.864 857.904 376.885 857.995 376.907C858.035 376.917 858.075 376.927 858.113 376.935C858.403 376.975 858.692 377.013 858.981 377.052C859.287 377.075 859.579 377.035 859.856 376.932C859.989 376.884 860.12 376.828 860.249 376.767C860.413 376.712 860.571 376.643 860.723 376.557C859.761 376.557 858.801 376.557 857.84 376.557C858.047 376.659 858.251 376.761 858.456 376.863C858.467 376.867 858.477 376.872 858.488 376.876C858.696 376.965 858.904 377.052 859.111 377.141C859.228 377.192 859.353 377.209 859.487 377.199C859.611 377.244 859.732 377.259 859.857 377.243C859.893 377.239 859.932 377.233 859.969 377.229C860.239 377.199 860.535 377.184 860.785 377.121C861.504 376.943 862.129 376.317 862.308 375.599C862.349 375.432 862.373 375.153 862.392 374.984C862.395 374.963 862.397 374.941 862.4 374.921C862.404 374.879 862.409 374.836 862.415 374.795C862.42 374.753 862.425 374.711 862.429 374.669C862.456 374.425 862.408 374.172 862.333 373.939C862.288 373.829 862.243 373.721 862.196 373.612C862.153 373.495 862.105 373.38 862.049 373.269C861.948 373.064 861.847 372.859 861.745 372.653C861.745 373.613 861.745 374.573 861.745 375.535C861.761 375.505 861.777 375.476 861.792 375.447C861.9 375.191 862.008 374.932 862.117 374.676C862.171 374.535 862.192 374.384 862.181 374.227C862.26 373.937 862.26 373.649 862.181 373.36C862.153 373.149 862.14 372.993 862.095 372.807C862.073 372.716 862.052 372.627 862.031 372.537C861.864 371.944 861.564 371.429 861.131 370.992C860.693 370.559 860.179 370.26 859.585 370.093C858.383 369.761 857.063 370.109 856.18 370.992C855.297 371.875 854.948 373.193 855.28 374.397C855.447 374.991 855.747 375.505 856.18 375.941C856.617 376.376 857.132 376.676 857.724 376.843Z" fill="#FCD583"/>
</g>
<defs>
<clipPath id="clip0_18_114">
<rect width="1000" height="666.667" fill="white"/>
</clipPath>
</defs>
</svg>
